<?xml version="1.0" encoding="UTF-8" standalone="no"?>
<svg
   xmlns:dc="http://purl.org/dc/elements/1.1/"
   xmlns:cc="http://creativecommons.org/ns#"
   xmlns:rdf="http://www.w3.org/1999/02/22-rdf-syntax-ns#"
   xmlns:svg="http://www.w3.org/2000/svg"
   xmlns="http://www.w3.org/2000/svg"
   xmlns:sodipodi="http://sodipodi.sourceforge.net/DTD/sodipodi-0.dtd"
   xmlns:inkscape="http://www.inkscape.org/namespaces/inkscape"
   width="1041.277"
   height="554.141"
   viewBox="0 0 1041.277 554.141"
   version="1.1"
   id="svg59"
   sodipodi:docname="undraw_docusaurus_react.svg"
   inkscape:version="0.92.5 (2060ec1f9f, 2020-04-08)">
  <metadata
     id="metadata65">
    <rdf:RDF>
      <cc:Work
         rdf:about="">
        <dc:format>image/svg+xml</dc:format>
        <dc:type
           rdf:resource="http://purl.org/dc/dcmitype/StillImage" />
        <dc:title>Powered by React</dc:title>
      </cc:Work>
    </rdf:RDF>
  </metadata>
  <defs
     id="defs63" />
  <sodipodi:namedview
     pagecolor="#ffffff"
     bordercolor="#666666"
     borderopacity="1"
     objecttolerance="10"
     gridtolerance="10"
     guidetolerance="10"
     inkscape:pageopacity="0"
     inkscape:pageshadow="2"
     inkscape:window-width="2560"
     inkscape:window-height="1376"
     id="namedview61"
     showgrid="false"
     inkscape:zoom="0.66648933"
     inkscape:cx="-746.14811"
     inkscape:cy="-28.377025"
     inkscape:window-x="0"
     inkscape:window-y="27"
     inkscape:window-maximized="1"
     inkscape:current-layer="svg59" />
  <title
     id="title2">Powered by React</title>
  <path
     id="Path_299"
     data-name="Path 299"
     d="M 961.469 438.175 C 960.309 440.675 959.152 443.142 957.999 445.575 C 956.199 449.355 954.422 453.062 952.669 456.695 C 951.889 458.305 951.109 459.885 950.349 461.465 C 941.749 479.035 933.719 494.575 926.899 507.355 C 914.294 530.942 889.831 545.778 863.089 546.055 L 711.439 547.705 L 709.839 547.705 L 696.839 547.845 L 685.719 547.965 L 651.619 548.335 L 650.239 548.335 L 632.879 548.525 L 632.349 548.525 L 525.349 549.685 L 429.839 550.685 L 418.729 550.805 L 349.729 551.555 L 349.649 551.555 L 304.899 552.035 L 304.419 552.035 L 162.919 553.565 L 120.589 554.025 C 116.985 554.066 113.381 553.886 109.799 553.485 C 108.579 553.345 107.359 553.185 106.149 552.995 C 86.407 549.948 68.305 540.228 54.859 525.455 C 36.649 505.425 23.399 482.055 14.499 456.695 C 13.212 453.035 12.012 449.328 10.899 445.575 C -19.911 341.425 17.649 207.055 85.249 117.135 C 88.082 113.375 90.962 109.708 93.889 106.135 L 93.959 106.055 C 114.749 80.535 138.059 59.215 162.889 44.055 C 206.889 17.145 255.639 9.565 303.589 32.155 C 344.159 51.275 382.039 60.265 418.759 62.705 C 422.469 62.945 426.179 63.125 429.869 63.235 C 514.099 65.885 593.039 35.535 685.739 15.945 C 689.429 15.165 693.129 14.395 696.859 13.665 C 762.989 0.505 836.349 -6.435 923.589 8.155 C 932.653 9.636 941.596 11.775 950.349 14.555 C 954.196 15.795 957.902 17.128 961.469 18.555 C 1003.109 35.495 1025.819 66.795 1035.469 106.015 C 1036.382 109.655 1037.172 113.358 1037.839 117.125 C 1054.949 211.465 1004.839 345.285 961.469 438.175 Z"
     fill="#f2f2f2" />
  <path
     id="Path_300"
     data-name="Path 300"
     d="M 497.009 445.575 C 496.606 449.315 495.981 453.029 495.139 456.695 L 588.839 456.695 L 588.839 445.575 L 497.009 445.575 Z M 418.759 508.385 L 429.869 508.295 L 429.869 480.825 C 426.059 480.655 422.349 480.485 418.759 480.305 L 418.759 508.385 Z M 185.839 445.575 L 185.839 456.695 L 384.339 456.695 L 384.339 445.575 L 185.839 445.575 Z M 1035.519 106.055 L 961.519 106.055 L 961.519 18.565 C 957.952 17.118 954.246 15.785 950.399 14.565 L 950.399 106.055 L 696.859 106.055 L 696.859 13.635 C 693.129 14.365 689.429 15.135 685.739 15.915 L 685.739 106.055 L 429.869 106.055 L 429.869 63.205 C 426.179 63.095 422.469 62.915 418.759 62.675 L 418.759 106.055 L 162.889 106.055 L 162.889 44.055 C 138.059 59.215 114.749 80.535 93.959 106.055 L 93.889 106.055 L 93.889 106.135 C 90.956 109.735 88.076 113.402 85.249 117.135 L 93.889 117.135 L 93.889 445.575 L 10.889 445.575 C 11.996 449.328 13.196 453.035 14.489 456.695 L 93.879 456.695 L 93.879 550.315 C 97.873 551.537 101.951 552.469 106.079 553.105 C 107.289 553.295 108.509 553.455 109.729 553.595 C 113.311 553.996 116.915 554.176 120.519 554.135 L 162.849 553.675 L 162.849 456.675 L 418.759 456.675 L 418.759 550.885 L 429.869 550.765 L 429.869 456.695 L 685.739 456.695 L 685.739 548.055 L 696.859 547.935 L 696.859 456.695 L 950.349 456.695 L 950.349 461.465 C 951.109 459.885 951.889 458.305 952.669 456.695 C 954.422 453.062 956.199 449.355 957.999 445.575 C 959.152 443.148 960.309 440.682 961.469 438.175 L 961.469 117.175 L 1037.889 117.175 C 1037.216 113.382 1036.426 109.675 1035.519 106.055 Z M 162.889 445.575 L 162.889 117.135 L 418.759 117.135 L 418.759 445.575 L 162.889 445.575 Z M 429.889 445.575 L 429.889 117.135 L 685.739 117.135 L 685.739 445.575 L 429.889 445.575 Z M 950.369 445.575 L 696.859 445.575 L 696.859 117.135 L 950.349 117.135 L 950.369 445.575 Z"
     opacity="0.1" />
  <path
     id="Path_301"
     data-name="Path 301"
     d="M 863.079 533.615 L 863.079 546.615 L 711.159 548.015 L 709.539 548.045 L 651.799 548.575 L 650.419 548.595 L 632.869 548.745 L 632.349 548.745 L 525.369 549.735 L 349.759 551.365 L 349.609 551.365 L 304.959 551.785 L 304.479 551.795 L 106.079 553.615 L 106.079 538.615 L 152.729 510.615 L 246.329 509.835 L 248.329 509.825 L 248.989 509.815 L 250.989 509.785 L 295.929 509.415 L 297.939 509.405 L 298.579 509.395 L 300.579 509.385 L 314.989 509.265 L 315.369 509.255 L 350.919 508.955 L 351.209 508.955 L 628.609 506.615 L 635.399 506.565 L 636.079 506.565 L 641.259 506.515 L 678.909 506.205 L 680.909 506.175 L 682.759 506.155 L 683.719 506.155 L 695.429 506.065 L 697.749 506.035 L 700.859 506.015 L 710.609 505.925 L 726.079 505.795 L 728.079 505.775 L 731.559 505.755 L 732.209 505.755 L 806.919 505.115 L 863.079 533.615 Z"
     fill="#65617d" />
  <path
     id="Path_302"
     data-name="Path 302"
     d="M 863.079 533.615 L 863.079 546.615 L 711.159 548.015 L 709.539 548.045 L 651.799 548.575 L 650.419 548.595 L 632.869 548.745 L 632.349 548.745 L 525.369 549.735 L 349.759 551.365 L 349.609 551.365 L 304.959 551.785 L 304.479 551.795 L 106.079 553.615 L 106.079 538.615 L 152.729 510.615 L 246.329 509.835 L 248.329 509.825 L 248.989 509.815 L 250.989 509.785 L 295.929 509.415 L 297.939 509.405 L 298.579 509.395 L 300.579 509.385 L 314.989 509.265 L 315.369 509.255 L 350.919 508.955 L 351.209 508.955 L 628.609 506.615 L 635.399 506.565 L 636.079 506.565 L 641.259 506.515 L 678.909 506.205 L 680.909 506.175 L 682.759 506.155 L 683.719 506.155 L 695.429 506.065 L 697.749 506.035 L 700.859 506.015 L 710.609 505.925 L 726.079 505.795 L 728.079 505.775 L 731.559 505.755 L 732.209 505.755 L 806.919 505.115 L 863.079 533.615 Z"
     opacity="0.2" />
  <path
     id="Path_303"
     data-name="Path 303"
     d="M 296.089 483.625 L 296.089 508.115 C 296.09 510.483 294.728 512.639 292.589 513.655 C 291.809 514.033 290.956 514.238 290.089 514.255 L 255.189 514.995 C 254.257 515.017 253.333 514.822 252.489 514.425 C 250.312 513.427 248.916 511.25 248.919 508.855 L 248.919 483.625 L 296.089 483.625 Z"
     fill="#3f3d56" />
  <path
     id="Path_304"
     data-name="Path 304"
     d="M 296.089 483.625 L 296.089 508.115 C 296.09 510.483 294.728 512.639 292.589 513.655 C 291.809 514.033 290.956 514.238 290.089 514.255 L 255.189 514.995 C 254.257 515.017 253.333 514.822 252.489 514.425 C 250.312 513.427 248.916 511.25 248.919 508.855 L 248.919 483.625 L 296.089 483.625 Z"
     opacity="0.1" />
  <path
     id="Path_305"
     data-name="Path 305"
     d="M 298.089 483.625 L 298.089 508.115 C 298.09 510.483 296.728 512.639 294.589 513.655 C 293.809 514.033 292.956 514.238 292.089 514.255 L 257.189 514.995 C 256.257 515.017 255.333 514.822 254.489 514.425 C 252.312 513.427 250.916 511.25 250.919 508.855 L 250.919 483.625 L 298.089 483.625 Z"
     fill="#3f3d56" />
  <rect
     id="Rectangle_137"
     data-name="Rectangle 137"
     width="47.17"
     height="31.5"
     fill="#3f3d56"
     x="680.909"
     y="483.615" />
  <rect
     id="Rectangle_138"
     data-name="Rectangle 138"
     width="47.17"
     height="31.5"
     opacity="0.1"
     x="680.909"
     y="483.615" />
  <rect
     id="Rectangle_139"
     data-name="Rectangle 139"
     width="47.17"
     height="31.5"
     fill="#3f3d56"
     x="678.909"
     y="483.615" />
  <path
     id="Path_306"
     data-name="Path 306"
     d="M 298.079 483.615 L 298.079 488.585 L 250.909 489.845 L 250.909 483.615 L 298.079 483.615 Z"
     opacity="0.1" />
  <path
     id="Path_307"
     data-name="Path 307"
     d="M 381.339 312.325 L 381.339 480.525 C 381.314 482.657 379.62 484.395 377.489 484.475 L 185.839 489.575 L 185.789 489.575 C 183.619 489.548 181.866 487.795 181.839 485.625 L 181.839 312.325 C 181.866 310.155 183.619 308.402 185.789 308.375 L 377.389 308.375 C 379.559 308.402 381.312 310.155 381.339 312.325 L 381.339 312.325 Z"
     fill="#65617d" />
  <path
     id="Path_308"
     data-name="Path 308"
     d="M 185.839 308.375 L 185.839 489.575 L 185.789 489.575 C 183.619 489.548 181.866 487.795 181.839 485.625 L 181.839 312.325 C 181.866 310.155 183.619 308.402 185.789 308.375 L 185.839 308.375 Z"
     opacity="0.1" />
  <path
     id="Path_309"
     data-name="Path 309"
     d="M 194.579 319.115 L 372.079 319.115 L 372.079 467.365 L 194.579 471.365 L 194.579 319.115 Z"
     fill="#39374d" />
  <path
     id="Path_310"
     data-name="Path 310"
     d="M 726.079 483.615 L 726.079 490.025 L 678.909 488.765 L 678.909 483.615 L 726.079 483.615 Z"
     opacity="0.1" />
  <path
     id="Path_311"
     data-name="Path 311"
     d="M 788.339 312.325 L 788.339 485.625 C 788.312 487.815 786.529 489.575 784.339 489.575 L 592.649 484.475 C 590.518 484.395 588.824 482.657 588.799 480.525 L 588.799 312.325 C 588.826 310.155 590.579 308.402 592.749 308.375 L 784.349 308.375 C 786.535 308.38 788.312 310.139 788.339 312.325 Z"
     fill="#65617d" />
  <path
     id="Path_312"
     data-name="Path 312"
     d="M 788.339 312.325 L 788.339 485.625 C 788.312 487.815 786.529 489.575 784.339 489.575 L 784.339 308.375 C 786.529 308.375 788.312 310.135 788.339 312.325 Z"
     opacity="0.1" />
  <path
     id="Path_313"
     data-name="Path 313"
     d="M 775.579 319.115 L 598.079 319.115 L 598.079 467.365 L 775.579 471.365 L 775.579 319.115 Z"
     fill="#39374d" />
  <path
     id="Path_314"
     data-name="Path 314"
     d="M 583.839 312.325 L 583.839 480.525 C 583.814 482.657 582.12 484.395 579.989 484.475 L 388.339 489.575 C 386.149 489.575 384.366 487.815 384.339 485.625 L 384.339 312.325 C 384.366 310.155 386.119 308.402 388.289 308.375 L 579.889 308.375 C 582.059 308.402 583.812 310.155 583.839 312.325 Z"
     fill="#65617d" />
  <path
     id="Path_315"
     data-name="Path 315"
     d="M 397.079 319.115 L 574.579 319.115 L 574.579 467.365 L 397.079 471.365 L 397.079 319.115 Z"
     fill="#4267b2" />
  <path
     id="Path_316"
     data-name="Path 316"
     d="M 863.079 533.615 L 863.079 546.615 L 711.159 548.015 L 709.539 548.045 L 651.799 548.575 L 650.419 548.595 L 632.869 548.745 L 632.349 548.745 L 525.369 549.735 L 349.759 551.365 L 349.609 551.365 L 304.959 551.785 L 304.479 551.795 L 106.079 553.615 L 106.079 538.615 L 308.589 537.285 L 309.069 537.285 L 350.059 537.005 L 350.249 537.005 L 633.329 535.135 L 633.619 535.135 L 633.789 535.125 L 634.259 535.125 L 639.049 535.095 L 640.509 535.095 L 714.999 534.595 L 719.399 534.575 L 720.379 534.565 L 863.079 533.615 Z"
     opacity="0.1" />
  <circle
     id="Ellipse_111"
     data-name="Ellipse 111"
     cx="487.249"
     cy="298.115"
     r="51.33"
     fill="#fbbebe" />
  <path
     id="Path_317"
     data-name="Path 317"
     d="M 538.589 377.125 C 538.589 377.125 439.089 389.125 448.589 377.125 C 452.029 372.785 452.979 359.925 452.789 345.275 C 452.729 340.825 452.569 336.215 452.339 331.625 C 451.239 309.625 448.589 288.125 448.589 288.125 C 448.589 288.125 535.589 247.125 525.589 279.625 C 521.589 292.755 522.899 311.195 525.939 328.505 C 526.829 333.555 527.859 338.505 528.939 343.205 C 531.575 354.669 534.796 365.99 538.589 377.125 Z"
     fill="#fbbebe" />
  <path
     id="Path_318"
     data-name="Path 318"
     d="M 506.119 373.055 C 517.629 370.925 529.819 367.055 540.649 371.515 C 543.499 372.685 546.119 374.395 549.039 375.375 C 551.959 376.355 555.159 376.595 558.199 377.285 C 568.879 379.705 577.539 387.835 583.099 397.285 C 588.659 406.735 591.539 417.425 594.359 428.005 L 601.259 453.835 C 607.259 476.285 613.259 498.925 614.649 522.135 C 531.116 526.917 447.391 527.394 363.809 523.565 C 369.249 513.225 374.809 502.255 374.349 490.565 C 373.889 478.875 367.159 467.345 369.589 455.825 C 371.139 448.485 376.159 442.435 379.229 435.605 C 387.979 416.085 381.169 389.815 396.549 374.955 C 403.469 368.275 413.549 365.745 423.179 366.065 C 435.459 366.475 448.029 370.305 460.179 372.175 C 475.739 374.535 490.439 375.935 506.119 373.055 Z"
     fill="#ff6584" />
  <path
     id="Path_319"
     data-name="Path 319"
     d="M 637.019 484.225 L 636.919 485.655 L 636.919 485.755 L 636.749 488.055 L 635.419 506.565 L 633.809 528.865 L 633.349 535.145 L 632.349 548.585 L 632.349 548.755 L 525.349 549.755 L 349.759 551.655 L 349.759 552.495 L 349.619 552.495 L 349.619 551.375 L 350.069 537.015 L 350.929 508.955 L 351.669 485.165 L 351.739 482.795 C 351.924 476.757 357.14 472.112 363.159 472.625 C 367.879 473.025 374.009 473.515 381.339 474.035 L 384.339 474.255 C 426.669 477.195 504.899 480.995 583.839 476.255 C 585.499 476.165 587.169 476.065 588.839 475.945 C 601.079 475.175 613.309 474.185 625.419 472.945 C 631.938 472.262 637.49 477.637 637.019 484.175 L 637.019 484.225 Z"
     opacity="0.1" />
  <path
     id="Path_320"
     data-name="Path 320"
     d="M 349.729 552.495 L 349.729 551.655 L 525.349 549.745 L 632.349 548.745 L 632.649 548.745 L 632.649 548.575 L 633.649 535.135 L 634.079 529.135 L 635.719 506.525 L 637.009 488.625 L 637.009 488.185 C 637.069 487.36 637.032 486.531 636.899 485.715 C 636.905 485.682 636.905 485.648 636.899 485.615 C 636.624 483.927 635.937 482.334 634.899 480.975 C 632.66 478.104 629.099 476.592 625.479 476.975 C 613.369 478.215 601.139 479.205 588.899 479.975 C 587.229 480.095 585.559 480.195 583.899 480.285 C 504.959 484.975 426.729 481.175 384.399 478.285 L 381.399 478.065 C 374.069 477.545 367.939 477.065 363.219 476.655 C 357.841 476.201 352.989 479.883 351.979 485.185 C 351.878 485.726 351.818 486.275 351.799 486.825 L 351.119 508.985 L 350.189 537.055 L 349.749 551.415 L 349.749 552.535 L 349.729 552.495 Z"
     fill="#3f3d56" />
  <path
     id="Path_321"
     data-name="Path 321"
     d="M 637.319 491.235 L 636.089 506.565 L 634.259 529.415 L 633.799 535.135 L 632.799 547.945 L 632.739 548.585 L 632.739 548.755 L 632.589 550.235 L 632.699 548.755 L 632.409 548.755 L 525.409 549.755 L 349.759 551.655 L 349.759 551.375 L 350.249 537.015 L 351.249 508.955 L 351.889 490.305 C 351.953 488.149 353.105 486.173 354.949 485.055 C 356.081 484.361 357.405 484.046 358.729 484.155 C 360.829 484.325 363.409 484.525 366.419 484.745 C 371.309 485.105 377.339 485.525 384.359 485.965 C 397.359 486.785 413.669 487.665 432.359 488.385 C 484.359 490.385 554.559 491.055 621.239 485.215 C 624.239 484.955 627.339 484.665 630.369 484.375 C 631.568 484.255 632.777 484.485 633.849 485.035 C 634.153 485.186 634.441 485.367 634.709 485.575 C 635.58 486.206 636.269 487.054 636.709 488.035 C 636.811 488.23 636.895 488.434 636.959 488.645 C 637.259 489.473 637.382 490.356 637.319 491.235 Z"
     opacity="0.1" />
  <path
     id="Path_322"
     data-name="Path 322"
     d="M 298.089 504.925 L 298.089 508.115 C 298.09 510.483 296.728 512.639 294.589 513.655 L 254.489 514.425 C 252.312 513.427 250.916 511.25 250.919 508.855 L 250.919 505.855 L 298.089 504.925 Z"
     opacity="0.1" />
  <path
     id="Path_323"
     data-name="Path 323"
     d="M 298.579 515.535 L 246.329 516.535 L 246.329 507.865 L 298.579 506.865 L 298.579 515.535 Z"
     fill="#3f3d56" />
  <path
     id="Path_324"
     data-name="Path 324"
     d="M 298.579 515.535 L 246.329 516.535 L 246.329 507.865 L 298.579 506.865 L 298.579 515.535 Z"
     opacity="0.1" />
  <path
     id="Path_325"
     data-name="Path 325"
     d="M 300.579 515.535 L 248.329 516.535 L 248.329 507.865 L 300.579 506.865 L 300.579 515.535 Z"
     fill="#3f3d56" />
  <path
     id="Path_326"
     data-name="Path 326"
     d="M 679.209 506.925 L 679.209 510.115 C 679.208 512.483 680.57 514.639 682.709 515.655 L 722.809 516.425 C 724.987 515.427 726.382 513.25 726.379 510.855 L 726.379 507.855 L 679.209 506.925 Z"
     opacity="0.1" />
  <path
     id="Path_327"
     data-name="Path 327"
     d="M 678.709 517.535 L 730.959 518.535 L 730.959 509.865 L 678.709 508.865 L 678.709 517.535 Z"
     opacity="0.1" />
  <path
     id="Path_328"
     data-name="Path 328"
     d="M 676.709 517.535 L 728.959 518.535 L 728.959 509.865 L 676.709 508.865 L 676.709 517.535 Z"
     fill="#3f3d56" />
  <path
     id="Path_329"
     data-name="Path 329"
     d="M 454.779 313.845 C 454.859 320.845 451.619 327.445 448.869 333.915 C 438.856 357.483 434.52 383.074 436.209 408.625 C 436.939 419.625 438.789 430.625 436.939 441.525 C 435.089 452.425 428.509 463.295 417.939 466.425 C 435.469 476.875 459.199 475.775 475.699 463.765 C 484.489 457.365 491.039 448.435 497.449 439.655 C 496.688 455.427 492.121 470.781 484.139 484.405 C 513.317 481.822 540.031 466.987 557.649 443.585 C 561.959 437.775 565.709 431.395 567.369 424.355 C 570.459 411.355 566.149 397.845 562.859 384.855 C 560.11 373.996 558.049 362.974 556.689 351.855 C 556.259 348.295 555.909 344.635 556.789 341.155 C 557.789 337.085 560.459 333.645 562.429 329.935 C 568.029 319.395 568.159 306.635 565.289 295.055 C 562.419 283.475 556.799 272.795 551.229 262.245 C 546.769 253.785 541.929 244.935 533.769 239.965 C 528.669 236.865 522.769 235.575 516.889 234.325 L 491.519 228.895 C 485.969 227.705 480.259 226.515 474.649 227.385 C 465.179 228.865 458.509 235.705 452.649 242.725 C 448.059 248.185 436.839 258.435 436.049 265.585 C 435.329 272.175 441.149 283.215 442.139 290.165 C 443.439 299.165 444.359 296.165 449.439 301.685 C 452.649 305.105 454.719 309.055 454.779 313.845 Z"
     fill="#3f3d56" />
  <path
     id="Path_330"
     data-name="Path 330"
     d="M 729.968 395.739 C 729.968 389.912 722.668 384.389 711.481 380.964 C 714.063 369.564 712.915 360.487 707.859 357.582 C 706.634 356.896 705.247 356.551 703.843 356.582 L 703.843 360.582 C 704.553 360.56 705.257 360.72 705.887 361.048 C 708.326 362.448 709.387 367.772 708.559 374.622 C 708.359 376.307 708.039 378.083 707.645 379.894 C 703.897 378.991 700.093 378.338 696.259 377.94 C 693.975 374.789 691.483 371.794 688.8 368.975 C 694.645 363.542 700.132 360.565 703.862 360.565 L 703.862 356.56 C 698.931 356.56 692.476 360.074 685.949 366.171 C 679.422 360.11 672.967 356.632 668.036 356.632 L 668.036 360.632 C 671.748 360.632 677.252 363.591 683.098 368.988 C 680.428 371.797 677.954 374.787 675.693 377.935 C 671.852 378.329 668.043 378.988 664.293 379.907 C 663.881 378.114 663.576 376.375 663.361 374.707 C 662.518 367.857 663.561 362.532 665.979 361.115 C 666.612 360.777 667.324 360.616 668.041 360.649 L 668.041 356.649 C 666.626 356.618 665.227 356.963 663.989 357.649 C 658.95 360.549 657.821 369.609 660.421 380.977 C 649.268 384.42 642.006 389.924 642.006 395.734 C 642.006 401.562 649.306 407.084 660.493 410.509 C 657.911 421.909 659.059 430.986 664.115 433.891 C 665.346 434.579 666.739 434.925 668.149 434.891 C 673.08 434.891 679.535 431.377 686.062 425.28 C 692.589 431.341 699.044 434.819 703.975 434.819 C 705.39 434.85 706.789 434.505 708.027 433.819 C 713.066 430.919 714.195 421.859 711.595 410.491 C 722.706 407.071 729.968 401.548 729.968 395.739 Z M 706.622 383.779 C 705.959 386.092 705.134 388.479 704.201 390.862 C 703.466 389.428 702.695 387.993 701.852 386.562 C 701.027 385.128 700.152 383.729 699.27 382.362 C 701.817 382.739 704.274 383.205 706.623 383.779 L 706.622 383.779 Z M 698.41 402.879 C 697.01 405.3 695.577 407.595 694.089 409.729 C 691.417 409.962 688.71 410.088 685.989 410.088 C 683.281 410.088 680.574 409.962 677.92 409.747 C 676.432 407.614 674.986 405.342 673.581 402.933 C 672.218 400.584 670.975 398.206 669.851 395.797 C 670.963 393.397 672.218 390.992 673.563 388.643 C 674.963 386.222 676.396 383.927 677.884 381.793 C 680.556 381.56 683.263 381.434 685.984 381.434 C 688.692 381.434 691.399 381.56 694.053 381.775 C 695.541 383.908 696.987 386.18 698.392 388.589 C 699.755 390.938 700.998 393.316 702.122 395.725 C 700.992 398.124 699.755 400.526 698.41 402.875 L 698.41 402.879 Z M 704.202 400.548 C 705.17 402.948 705.995 405.353 706.676 407.684 C 704.327 408.258 701.853 408.742 699.289 409.118 C 700.168 407.737 701.046 406.318 701.871 404.868 C 702.7 403.431 703.467 401.979 704.2 400.544 L 704.202 400.548 Z M 686.02 419.676 C 684.261 417.85 682.597 415.935 681.035 413.938 C 682.649 414.01 684.298 414.064 685.966 414.064 C 687.651 414.064 689.319 414.028 690.951 413.938 C 689.412 415.938 687.766 417.854 686.02 419.676 Z M 672.68 409.115 C 670.134 408.738 667.68 408.272 665.328 407.698 C 665.991 405.385 666.816 402.998 667.749 400.615 C 668.484 402.049 669.255 403.484 670.098 404.915 C 670.941 406.346 671.8 407.752 672.68 409.115 Z M 685.93 371.801 C 687.689 373.627 689.353 375.542 690.915 377.539 C 689.301 377.467 687.652 377.413 685.984 377.413 C 684.298 377.413 682.631 377.449 680.999 377.539 C 682.538 375.539 684.184 373.623 685.93 371.801 Z M 672.662 382.36 C 671.783 383.741 670.905 385.16 670.08 386.61 C 669.255 388.044 668.48 389.479 667.749 390.91 C 666.781 388.51 665.956 386.105 665.275 383.774 C 667.623 383.223 670.1 382.739 672.662 382.36 Z M 656.435 404.809 C 650.087 402.101 645.981 398.551 645.981 395.736 C 645.981 392.921 650.087 389.353 656.435 386.663 C 657.977 386 659.663 385.408 661.402 384.852 C 662.499 388.579 663.847 392.227 665.436 395.772 C 663.863 399.299 662.533 402.93 661.455 406.638 C 659.68 406.085 657.994 405.475 656.434 404.812 L 656.435 404.809 Z M 666.082 430.432 C 663.643 429.032 662.582 423.708 663.41 416.858 C 663.61 415.172 663.93 413.397 664.324 411.586 C 668.072 412.489 671.876 413.142 675.71 413.54 C 677.994 416.691 680.486 419.686 683.169 422.505 C 677.324 427.938 671.837 430.915 668.107 430.915 C 667.402 430.924 666.707 430.759 666.081 430.435 L 666.082 430.432 Z M 708.614 416.769 C 709.457 423.619 708.414 428.944 705.996 430.361 C 705.363 430.699 704.651 430.86 703.934 430.827 C 700.222 430.827 694.718 427.868 688.872 422.471 C 691.542 419.662 694.016 416.672 696.277 413.524 C 700.118 413.13 703.927 412.471 707.677 411.552 C 708.081 413.274 708.393 415.017 708.613 416.772 L 708.614 416.769 Z M 715.514 404.809 C 713.972 405.472 712.286 406.064 710.547 406.62 C 709.45 402.893 708.102 399.245 706.513 395.7 C 708.086 392.173 709.416 388.542 710.494 384.834 C 712.269 385.39 713.955 385.999 715.533 386.663 C 721.881 389.371 725.987 392.921 725.987 395.736 C 725.97 398.554 721.864 402.122 715.516 404.812 L 715.514 404.809 Z"
     fill="#61dafb" />
  <path
     id="Path_331"
     data-name="Path 331"
     fill="#61dafb" />
  <circle
     id="Ellipse_112"
     data-name="Ellipse 112"
     cx="685.966"
     cy="395.738"
     r="8.194"
     fill="#61dafb" />
  <path
     id="Path_332"
     data-name="Path 332"
     fill="#61dafb" />
  <path
     inkscape:connector-curvature="0"
     id="path826"
     d="m 282.32199,326.1198 c -1.2028,0.004 -2.35391,0.49016 -3.19501,1.34989 -1.86759,1.90893 -45.74277,47.1754 -45.74277,84.65441 0,26.99235 21.96052,48.95287 48.95287,48.95287 26.99234,0 48.95286,-21.96052 48.95286,-48.95287 0,-38.08882 -43.89512,-82.79177 -45.76407,-84.67572 -0.847,-0.85427 -1.98427,-1.34131 -3.20388,-1.32858 z"
     style="fill:#2775b6;fill-opacity:1;stroke-width:0.99999994" />
</svg>
