<?xml version="1.0" encoding="UTF-8"?>
<!-- Generator: Adobe Illustrator 19.1.1, SVG Export Plug-In . SVG Version: 6.00 Build 0)  -->
<svg version="1.1" id="Layer_1" xmlns="http://www.w3.org/2000/svg" xmlns:xlink="http://www.w3.org/1999/xlink" x="0px" y="0px" viewBox="-65 60.3 615.3 231.7" style="enable-background:new -65 60.3 615.3 231.7;" xml:space="preserve" ml-update="aware">
<style type="text/css">
	.st0{fill:none;stroke:#73C073;stroke-miterlimit:10;stroke-dasharray:2;}
	.st1{fill:#D5D6DB;}
	.st2{fill:#E0F4FF;}
	.st3{fill:#748A91;}
	.st4{fill:#BDDDF4;}
	.st5{fill:#0071BC;}
	.st6{fill:#FBB040;}
	.st7{fill:#EEEFEF;}
	.st8{fill:#B5B6BC;}
	.st9{fill:#076FA8;}
	.st10{fill:#90A2B1;}
	.st11{fill:#FFFFFF;}
	.st12{fill:none;stroke:#F6F6F8;stroke-width:2;stroke-miterlimit:10;}
	.st13{fill:none;stroke:#FFFFFF;stroke-miterlimit:10;}
	.st14{fill:#D37254;}
	.st15{fill:#73C073;}
	.st16{fill:#EFF0F4;stroke:#748A91;stroke-miterlimit:10;}
	.st17{fill:#EBF0F3;}
	.st18{fill:#FCD462;}
	.st19{fill:#44C4A1;}
	.st20{fill:#E8E8E8;}
	.st21{fill:none;stroke:#73C073;stroke-miterlimit:10;}
	.st22{fill:none;stroke:#73C073;stroke-miterlimit:10;stroke-dasharray:1.9806,1.9806;}
</style>
<line class="st0" x1="444.1" y1="224.9" x2="304.5" y2="224.9"/>
<g>
	<path class="st1" d="M340.6,260H152.7V139c0-2.6,2.1-4.7,4.7-4.7h178.5c2.6,0,4.7,2.1,4.7,4.7V260z"/>
	<rect x="161.3" y="147.3" class="st2" width="170.6" height="102.6"/>
	<path class="st3" d="M351.3,271.1H142c-3.4,0-6.2-2.8-6.2-6.2v-6.4h221.7v6.4C357.5,268.3,354.7,271.1,351.3,271.1z"/>
</g>
<path class="st0" d="M26.4,172h173c2.7,0,5,2.2,5,5v19.1"/>
<path class="st2" d="M105.3,174.8c-0.7,0-1.4,0.1-2.1,0.3c-1-3.2-3.9-5.5-7.4-5.5c-1.7,0-3.3,0.6-4.6,1.5c-1.3-2.5-3.9-4.2-6.9-4.2  c-4.3,0-7.8,3.5-7.8,7.8c-4.3,0-7.8,3.5-7.8,7.8s3.5,7.8,7.8,7.8h28.8c4.3,0,7.8-3.5,7.8-7.8S109.6,174.8,105.3,174.8z"/>
<g>
	<g>
		<path class="st3" d="M165.5,130.3h-29c-1.5,0-2.6-1.2-2.6-2.6V86c0-1.5,1.2-2.6,2.6-2.6h29c1.5,0,2.6,1.2,2.6,2.6v41.7    C168.1,129.1,167,130.3,165.5,130.3z"/>
		<rect x="135.5" y="87.8" class="st2" width="31" height="36.5"/>
		<path class="st1" d="M152.9,128.4H149c-0.4,0-0.8-0.3-0.9-0.8l0,0c-0.1-0.6,0.3-1.2,0.9-1.2h3.9c0.6,0,1.1,0.6,0.9,1.2l0,0    C153.8,128.1,153.4,128.4,152.9,128.4z"/>
	</g>
	<g>
		<circle class="st4" cx="151" cy="78.9" r="2.1"/>
		<g>
			<path class="st4" d="M154.6,75.8c-1-0.9-2.3-1.3-3.6-1.3c-1.3,0-2.6,0.5-3.6,1.3l-1.7-2c1.5-1.3,3.4-2,5.3-2c2,0,3.8,0.7,5.3,2     L154.6,75.8z"/>
		</g>
		<g>
			<path class="st4" d="M158.1,71.6c-2-1.7-4.5-2.6-7.1-2.6s-5.2,0.9-7.1,2.6l-1.7-2c2.5-2.1,5.6-3.3,8.9-3.3c3.3,0,6.4,1.2,8.9,3.3     L158.1,71.6z"/>
		</g>
	</g>
</g>
<g>
	<path class="st3" d="M511.1,138c-5.4,0-10.2-3.4-12-8.5c-0.4-1,0.8-2,2.2-3.1c0.8-0.6,2-1.6,2-2c0-1-0.8-1.9-1.5-2.8   c-1-1.1-2.1-2.4-1-3.8c2.4-3.4,6.3-5.4,10.4-5.4c7,0,12.8,5.7,12.8,12.8C523.9,132.3,518.2,138,511.1,138z M511.1,113.6   c-3.8,0-7.3,1.8-9.5,4.9c-0.5,0.7-0.1,1.2,1,2.4c0.8,1,1.8,2.1,1.8,3.5c0,1-1.1,1.8-2.4,2.9c-0.6,0.5-1.9,1.5-1.9,1.9   c1.7,4.6,6.1,7.7,11,7.7c6.4,0,11.7-5.2,11.7-11.7S517.6,113.6,511.1,113.6z"/>
	
		<rect x="484.1" y="114.1" transform="matrix(-0.4502 -0.8929 0.8929 -0.4502 589.9974 635.7)" class="st5" width="13.2" height="44.3"/>
	
		<rect x="469.8" y="106" transform="matrix(-0.8462 -0.5328 0.5328 -0.8462 847.0699 465.6956)" class="st5" width="41.9" height="9.3"/>
	<rect x="462.2" y="144.2" class="st5" width="22.7" height="19"/>
	<g>
		<circle class="st6" cx="511.2" cy="125" r="8.5"/>
		<circle class="st3" cx="511.2" cy="125" r="4.3"/>
		<circle class="st7" cx="511.2" cy="125" r="2.1"/>
	</g>
	<g>
		<circle class="st6" cx="467.4" cy="146.2" r="10.5"/>
		<circle class="st3" cx="467.4" cy="146.2" r="5.4"/>
		<circle class="st7" cx="467.4" cy="146.2" r="2.6"/>
	</g>
	<rect x="460" y="167.2" class="st3" width="26.2" height="2.7"/>
	<rect x="457.4" y="162.1" class="st6" width="32.4" height="5.1"/>
	<g>
		<polygon class="st3" points="464.6,93.5 450.1,100.4 450.4,102.3 465.4,98.3   "/>
		<polygon class="st3" points="467.4,109.5 451.4,107.9 451,106 466.5,104.7   "/>
	</g>
	<path class="st6" d="M468.5,114c-2.1-10.8-2.8-14.7-4.4-23.2c6.4-1.2,12.6,3,13.8,9.4C479,106.6,474.9,112.8,468.5,114z"/>
	<polygon class="st5" points="468.4,112.7 467,112.2 463.6,93.5 464.5,92.5  "/>
</g>
<g>
	<g>
		<circle class="st4" cx="-15" cy="136.4" r="2.6"/>
		<g>
			<path class="st4" d="M-10.5,132.5c-1.2-1.1-2.8-1.7-4.5-1.7c-1.6,0-3.2,0.6-4.5,1.7l-2.2-2.5c1.8-1.6,4.2-2.5,6.6-2.5     s4.8,0.9,6.6,2.5L-10.5,132.5z"/>
		</g>
		<g>
			<path class="st4" d="M-6.1,127.3c-2.5-2.1-5.6-3.3-8.9-3.3s-6.4,1.2-8.9,3.3l-2.2-2.5c3.1-2.6,7-4.1,11.1-4.1     c4.1,0,8,1.5,11.1,4.1L-6.1,127.3z"/>
		</g>
	</g>
	<g>
		<g>
			<g>
				<path class="st3" d="M-37.7,174.7h-6c-0.8,0-1.5,0.7-1.5,1.5v10.9c0,0.8,0.7,1.5,1.5,1.5h6c0.8,0,1.5-0.7,1.5-1.5v-10.9      C-36.2,175.4-36.9,174.7-37.7,174.7z"/>
				<path class="st3" d="M13.3,174.7h-6c-0.8,0-1.5,0.7-1.5,1.5v10.9c0,0.8,0.7,1.5,1.5,1.5h6c0.8,0,1.5-0.7,1.5-1.5v-10.9      C14.8,175.4,14.1,174.7,13.3,174.7z"/>
			</g>
			<path class="st5" d="M16.7,177.1v-7.5c0-6-4.4-9.5-7-11l0.9-1c0.4,0.4,1,0.6,1.9,0.6c2.1,0,3.8-1.1,3.8-2.4s-1.7-2.4-3.8-2.4     c-1.9,0-2.4,0.9-2.4,2c-0.2,1-0.8,1.9-1.4,2.5c-0.3-0.1-0.5-0.3-0.7-0.3c-3.1-7.2-8.2-11.8-8.2-11.8c-14.9-1.3-30.7,0-30.7,0     c-3.9,2.6-6.5,8.7-7.6,11.8c-0.2,0.1-0.4,0.2-0.6,0.3c-0.6-0.6-1.3-1.5-1.4-2.5c-0.1-1.1-0.6-2-2.4-2c-2.1,0-3.8,1.1-3.8,2.4     s1.7,2.4,3.8,2.4c1,0,1.6-0.2,1.9-0.6l0.9,1c-2.6,1.6-7,5.1-7,11v7.5c0,0-0.4,5,7,5H9.8C17.2,182.2,16.7,177.1,16.7,177.1z"/>
			<path class="st8" d="M-36.1,156.6c1.2-2.8,3.2-6.8,5.8-8.7c1.6-0.1,7.9-0.6,15.6-0.6c5,0,9.7,0.2,13.9,0.5c1,1,4,4.2,6.4,8.8     L-36.1,156.6L-36.1,156.6z"/>
			<path class="st1" d="M-24.5,147.5l9.1,9.1h9.9l-9.3-9.3C-18.6,147.3-21.9,147.4-24.5,147.5z"/>
			<g>
				<circle class="st6" cx="-39.9" cy="168.3" r="3.5"/>
				<circle class="st6" cx="9.5" cy="168.3" r="3.5"/>
			</g>
			<path class="st3" d="M-30.5,167.3H0.2c0,0,0.6,5.9-5.6,5.9h-19.5C-24.9,173.2-30.5,173-30.5,167.3z"/>
			<path class="st9" d="M16.7,177.1v-7.5c0-0.4,0-0.8-0.1-1.1c-1.9,2.6-6.2,7.2-13.6,7.2h-36.3c-7.6,0-12-4.9-13.7-7.5     c-0.1,0.4-0.1,0.9-0.1,1.4v7.5c0,0-0.4,5,7,5H9.8C17.2,182.2,16.7,177.1,16.7,177.1z"/>
		</g>
	</g>
</g>
<g>
	<g>
		<path class="st1" d="M508.7,253.7c0,0.5-0.4,0.8-0.8,0.8h-55.3c-0.5,0-0.8-0.4-0.8-0.8v-36.4c0-0.5,0.4-0.8,0.8-0.8h55.3    c0.5,0,0.8,0.4,0.8,0.8V253.7z"/>
		<path class="st3" d="M495.1,249.4c0,0.9-0.7,1.6-1.6,1.6h-37c-0.9,0-1.6-0.7-1.6-1.6v-27.7c0-0.9,0.7-1.6,1.6-1.6h37    c0.9,0,1.6,0.7,1.6,1.6V249.4z"/>
		<polygon class="st10" points="468.2,251 461.4,251 472.6,220 479.4,220   "/>
		<polyline class="st10" points="476.7,238.6 472.2,251 469.9,251 481.1,220 483.4,220 476.7,238.6   "/>
		<rect x="492.2" y="219.2" class="st5" width="3.1" height="32.5"/>
		<g>
			<circle class="st3" cx="501.4" cy="235.5" r="3.9"/>
			<path class="st1" d="M501.4,238.6c-1.7,0-3.1-1.4-3.1-3.1c0-1.7,1.4-3.1,3.1-3.1s3.1,1.4,3.1,3.1     C504.6,237.2,503.2,238.6,501.4,238.6z"/>
			<circle class="st6" cx="501.4" cy="235.5" r="2.9"/>
			<rect x="501.3" y="232.6" class="st1" width="0.3" height="0.8"/>
		</g>
		<g>
			<circle class="st3" cx="501.4" cy="244.8" r="3.9"/>
			<path class="st1" d="M501.4,248c-1.7,0-3.1-1.4-3.1-3.1c0-1.7,1.4-3.1,3.1-3.1s3.1,1.4,3.1,3.1C504.6,246.6,503.2,248,501.4,248z     "/>
			<circle class="st6" cx="501.4" cy="244.8" r="2.9"/>
			<rect x="501.3" y="242" class="st1" width="0.3" height="0.8"/>
		</g>
		<g>
			<path class="st3" d="M497.4,229.5c-0.1,0-0.3-0.1-0.3-0.3v-8c0-0.1,0.1-0.3,0.3-0.3h8c0.1,0,0.3,0.1,0.3,0.3v8     c0,0.1-0.1,0.3-0.3,0.3H497.4z"/>
			<path class="st10" d="M497.4,229.2v-8l0,0h8l0,0v8l0,0H497.4C497.4,229.3,497.4,229.3,497.4,229.2z"/>
		</g>
	</g>
	<g>
		<circle class="st4" cx="479.4" cy="210.1" r="2.2"/>
		<g>
			<path class="st4" d="M483.3,206.8c-1.1-0.9-2.4-1.4-3.8-1.4c-1.4,0-2.8,0.5-3.8,1.4l-1.9-2.2c1.6-1.4,3.6-2.1,5.7-2.1     c2.1,0,4.1,0.7,5.7,2.1L483.3,206.8z"/>
		</g>
		<g>
			<path class="st4" d="M487.1,202.4c-2.1-1.8-4.8-2.8-7.6-2.8s-5.5,1-7.6,2.8l-1.9-2.2c2.6-2.3,6-3.5,9.5-3.5s6.9,1.2,9.5,3.5     L487.1,202.4z"/>
		</g>
	</g>
</g>
<g>
	<g>
		<g>
			<g>
				
					<rect x="363.5" y="254.6" transform="matrix(-0.2032 -0.9791 0.9791 -0.2032 209.877 685.3679)" class="st1" width="40.6" height="5.4"/>
			</g>
			<g>
				
					<rect x="412.9" y="237.1" transform="matrix(-0.9792 -0.2031 0.2031 -0.9792 770.1727 593.8588)" class="st1" width="5.4" height="40.6"/>
			</g>
		</g>
		<rect x="368.8" y="272.8" class="st5" width="61.8" height="13.2"/>
		<g>
			<circle class="st6" cx="387.9" cy="279.4" r="2"/>
			<circle class="st6" cx="380.1" cy="279.4" r="2"/>
			<circle class="st6" cx="395.8" cy="279.4" r="2"/>
			<circle class="st6" cx="403.7" cy="279.4" r="2"/>
			<circle class="st6" cx="411.5" cy="279.4" r="2"/>
			<circle class="st6" cx="419.4" cy="279.4" r="2"/>
		</g>
	</g>
	<g>
		<circle class="st4" cx="399.7" cy="260.1" r="2.6"/>
		<g>
			<path class="st4" d="M404.2,256.2c-1.2-1.1-2.8-1.7-4.5-1.7c-1.6,0-3.2,0.6-4.5,1.7l-2.2-2.5c1.8-1.6,4.2-2.5,6.6-2.5     s4.8,0.9,6.6,2.5L404.2,256.2z"/>
		</g>
		<g>
			<path class="st4" d="M408.6,251.1c-2.5-2.1-5.6-3.3-8.9-3.3s-6.4,1.2-8.9,3.3l-2.2-2.5c3.1-2.6,7-4.1,11.1-4.1s8,1.5,11.1,4.1     L408.6,251.1z"/>
		</g>
	</g>
</g>
<g>
	<g>
		
			<rect x="422.9" y="166.2" transform="matrix(-0.7071 -0.7071 0.7071 -0.7071 609.6176 596.5239)" class="st3" width="11" height="11.6"/>
		<g>
			<polygon class="st1" points="375.4,166.1 376,162.7 391.2,165.8 400.9,156 403.3,158.4 392.3,169.4    "/>
		</g>
		<polygon class="st3" points="417.1,175.4 390.3,148.6 401.3,137.6 432.3,168.7   "/>
		<polygon class="st4" points="421.8,176.8 391.9,147 405.8,133.1 440.9,168.3   "/>
		<path class="st4" d="M375,175L375,175v-18.6l0,0c2.6,0,4.7,2.1,4.7,4.7v9.2C379.7,172.9,377.6,175,375,175z"/>
		<g>
			<circle class="st4" cx="391.7" cy="167.6" r="4.8"/>
		</g>
		<g>
			<circle class="st11" cx="391.7" cy="167.6" r="2.3"/>
		</g>
	</g>
	<g>
		<circle class="st4" cx="406.1" cy="126.4" r="2.3"/>
		<g>
			<path class="st4" d="M410.1,122.9c-1.1-1-2.5-1.5-4-1.5s-2.9,0.5-4,1.5l-1.9-2.3c1.7-1.4,3.8-2.2,6-2.2s4.3,0.8,6,2.2     L410.1,122.9z"/>
		</g>
		<g>
			<path class="st4" d="M414,118.3c-2.2-1.9-5.1-2.9-8-2.9s-5.8,1-8,2.9l-1.9-2.3c2.8-2.4,6.3-3.7,9.9-3.7s7.2,1.3,9.9,3.7     L414,118.3z"/>
		</g>
	</g>
</g>
<g>
	<circle class="st4" cx="511" cy="106.7" r="2.6"/>
	<g>
		<path class="st4" d="M515.5,102.8c-1.2-1.1-2.8-1.7-4.5-1.7c-1.6,0-3.2,0.6-4.5,1.7l-2.2-2.5c1.8-1.6,4.2-2.5,6.6-2.5    c2.4,0,4.8,0.9,6.6,2.5L515.5,102.8z"/>
	</g>
	<g>
		<path class="st4" d="M519.9,97.6c-2.5-2.1-5.6-3.3-8.9-3.3c-3.3,0-6.4,1.2-8.9,3.3l-2.2-2.5c3.1-2.6,7-4.1,11.1-4.1    s8,1.5,11.1,4.1L519.9,97.6z"/>
	</g>
</g>
<g>
	<g>
		
			<rect x="337.5" y="111" transform="matrix(-0.7071 -0.7071 0.7071 -0.7071 518.8997 440.4955)" class="st1" width="26.4" height="3.6"/>
		
			<rect x="337.4" y="108.9" transform="matrix(-0.7071 0.7071 -0.7071 -0.7071 673.2531 -57.3974)" class="st1" width="22.3" height="3.6"/>
		<path class="st6" d="M359.9,115.2l-6.8,6.8c-0.7,0.7-1.9,0.7-2.6,0l-13.2-13.2c-0.7-0.7-0.7-1.9,0-2.6l6.8-6.8    c0.7-0.7,1.9-0.7,2.6,0l13.2,13.2C360.6,113.3,360.6,114.5,359.9,115.2z"/>
		
			<rect x="351.8" y="83.7" transform="matrix(-0.7071 0.7071 -0.7071 -0.7071 692.6484 -103.9231)" class="st5" width="32.1" height="15.6"/>
		
			<rect x="313.3" y="122.2" transform="matrix(-0.7071 0.7071 -0.7071 -0.7071 654.0968 -10.9768)" class="st5" width="32.1" height="15.6"/>
		<path class="st3" d="M368.6,118.2c-3.4-0.9-7.2-0.1-9.8,2.6c-2.7,2.7-3.5,6.4-2.6,9.8L368.6,118.2z"/>
	</g>
	<g>
		<circle class="st4" cx="343.3" cy="92.4" r="2.6"/>
		<g>
			<path class="st4" d="M347.8,88.5c-1.2-1.1-2.8-1.7-4.5-1.7c-1.6,0-3.2,0.6-4.5,1.7l-2.2-2.5c1.8-1.6,4.2-2.5,6.6-2.5     s4.8,0.9,6.6,2.5L347.8,88.5z"/>
		</g>
		<g>
			<path class="st4" d="M352.2,83.3c-2.5-2.1-5.6-3.3-8.9-3.3s-6.4,1.2-8.9,3.3l-2.2-2.5c3.1-2.6,7-4.1,11.1-4.1s8,1.5,11.1,4.1     L352.2,83.3z"/>
		</g>
	</g>
</g>
<g>
	<g>
		<g>
			<path class="st6" d="M77.2,109.5c-2.9-5.2-8.4-8.2-15.2-8.2s-12.3,3-15.2,8.2c-2.8,5-2.6,11.2,0.6,16.2c1.9,3.1,3.5,5,4.7,6.4     c2.2,2.7,2.8,3.5,2.8,8.1h14.2c0-4.6,0.7-5.4,2.8-8.1c1.2-1.4,2.8-3.4,4.7-6.4C79.7,120.7,79.9,114.5,77.2,109.5z"/>
			<g>
				<g>
					<path class="st12" d="M62,142.9"/>
				</g>
			</g>
			<path class="st5" d="M67.3,117.8c-0.8-0.6-1.9-0.8-2.9-0.3c-0.9,0.4-1.9,1.4-2.5,3c-0.6-1.6-1.6-2.5-2.5-3     c-1-0.5-2.1-0.4-2.9,0.3c-1,0.9-1.3,2.5-0.8,4.5c0.7,2.5,2.8,3.8,5,4.1v16.5h2.2v-16.5c2.2-0.3,4.4-1.6,5-4.1     C68.7,120.3,68.4,118.7,67.3,117.8z M60.9,124.6c-1.4-0.3-2.8-1.1-3.3-2.8c-0.4-1.5-0.1-2.3,0.2-2.7c0.1-0.1,0.3-0.2,0.4-0.2     c0.2,0,0.4,0.1,0.5,0.1c1,0.5,2.1,2.1,2.1,5.3v0.3H60.9z M66.4,121.8c-0.4,1.7-1.9,2.5-3.3,2.8v-0.1c0-3.2,1.1-4.9,2.1-5.3     c0.1-0.1,0.3-0.1,0.5-0.1c0.1,0,0.3,0,0.4,0.2C66.5,119.5,66.8,120.3,66.4,121.8z"/>
			<g>
				<path class="st3" d="M68.7,145.3c1.4,0,2.5-1.1,2.5-2.5s-1.1-2.5-2.5-2.5H55.3c-1.4,0-2.5,1.1-2.5,2.5s1.1,2.5,2.5,2.5      c-1.4,0-2.5,1.1-2.5,2.5s1.1,2.5,2.5,2.5v2.2c0,2.2,1.8,4.1,4.1,4.1h5.3c2.2,0,4.1-1.8,4.1-4.1v-2.2c1.4,0,2.5-1.1,2.5-2.5      C71.2,146.4,70.1,145.3,68.7,145.3z"/>
			</g>
		</g>
		<line class="st13" x1="50.2" y1="145" x2="77.4" y2="145"/>
		<path class="st0" d="M74.7,150h2.7h132.5c3.2,0,5.8,2.6,5.8,5.8v26.4"/>
	</g>
	<g>
		<circle class="st4" cx="62" cy="94.9" r="2.6"/>
		<g>
			<path class="st4" d="M66.5,91c-1.2-1.1-2.8-1.7-4.5-1.7c-1.6,0-3.2,0.6-4.5,1.7l-2.2-2.5c1.8-1.6,4.2-2.5,6.6-2.5     c2.4,0,4.8,0.9,6.6,2.5L66.5,91z"/>
		</g>
		<g>
			<path class="st4" d="M70.9,85.9c-2.5-2.1-5.6-3.3-8.9-3.3c-3.3,0-6.4,1.2-8.9,3.3l-2.2-2.5c3.1-2.6,7-4.1,11.1-4.1     s8,1.5,11.1,4.1L70.9,85.9z"/>
		</g>
	</g>
</g>
<g>
	<g>
		<circle class="st14" cx="46.7" cy="219.1" r="7"/>
		<circle class="st15" cx="46.7" cy="246.1" r="7"/>
		<circle class="st6" cx="46.7" cy="232.6" r="7"/>
		<path class="st1" d="M27.9,240.7c-1,0-1.7,0.9-1.5,1.9c0.8,3.9,4.2,7.1,8.7,8.4v2.5c0,1.4,1.1,2.5,2.5,2.5h17.1    c1.4,0,2.5-1.1,2.5-2.5V251c4.5-1.3,7.8-4.5,8.6-8.4c0.2-1-0.5-1.9-1.5-1.9h-7.1v-3.2c4.5-1.3,7.8-4.5,8.6-8.4    c0.2-1-0.5-1.9-1.5-1.9h-7.1V224c4.5-1.3,7.8-4.5,8.6-8.4c0.2-1-0.5-1.9-1.5-1.9h-7.1v-2.8c0-1.4-1.1-2.5-2.5-2.5H37.6    c-1.4,0-2.5,1.1-2.5,2.5v2.7h-7.2c-1,0-1.7,0.9-1.5,1.9c0.8,3.9,4.2,7.1,8.7,8.4v3.2h-7.2c-1,0-1.7,0.9-1.5,1.9    c0.8,3.9,4.2,7.1,8.7,8.4v3.2L27.9,240.7L27.9,240.7z M46.2,214.4c2.6,0,4.8,2.1,4.8,4.8s-2.1,4.8-4.8,4.8c-2.6,0-4.8-2.1-4.8-4.8    S43.5,214.4,46.2,214.4z M46.2,227.9c2.6,0,4.8,2.1,4.8,4.8s-2.1,4.8-4.8,4.8c-2.6,0-4.8-2.1-4.8-4.8S43.5,227.9,46.2,227.9z     M46.2,241.4c2.6,0,4.8,2.1,4.8,4.8s-2.1,4.8-4.8,4.8c-2.6,0-4.8-2.1-4.8-4.8S43.5,241.4,46.2,241.4z"/>
		<path class="st3" d="M28,240.7c-1,0-1.7,0.9-1.5,1.9c0.8,3.9,4.2,7.1,8.7,8.4v2.5c0,1.4,1.1,2.5,2.5,2.5h17.1    c1.4,0,2.5-1.1,2.5-2.5V251c4.5-1.3,7.8-4.5,8.6-8.4c0.2-1-0.5-1.9-1.5-1.9h-7.1v-3.2c4.5-1.3,7.8-4.5,8.6-8.4    c0.2-1-0.5-1.9-1.5-1.9h-7.1V224c4.5-1.3,7.8-4.5,8.6-8.4c0.2-1-0.5-1.9-1.5-1.9h-7.1v-2.8c0-1.4-1.1-2.5-2.5-2.5H37.7    c-1.4,0-2.5,1.1-2.5,2.5v2.7H28c-1,0-1.7,0.9-1.5,1.9c0.8,3.9,4.2,7.1,8.7,8.4v3.2H28c-1,0-1.7,0.9-1.5,1.9    c0.8,3.9,4.2,7.1,8.7,8.4v3.2L28,240.7L28,240.7z M46.2,214.4c2.6,0,4.8,2.1,4.8,4.8s-2.1,4.8-4.8,4.8c-2.6,0-4.8-2.1-4.8-4.8    S43.5,214.4,46.2,214.4z M46.2,227.9c2.6,0,4.8,2.1,4.8,4.8s-2.1,4.8-4.8,4.8c-2.6,0-4.8-2.1-4.8-4.8S43.5,227.9,46.2,227.9z     M46.2,241.4c2.6,0,4.8,2.1,4.8,4.8s-2.1,4.8-4.8,4.8c-2.6,0-4.8-2.1-4.8-4.8S43.5,241.4,46.2,241.4z"/>
	</g>
	<g>
		<circle class="st4" cx="46.1" cy="201.2" r="2.6"/>
		<g>
			<path class="st4" d="M50.6,197.3c-1.2-1.1-2.8-1.7-4.5-1.7c-1.6,0-3.2,0.6-4.5,1.7l-2.2-2.5c1.8-1.6,4.2-2.5,6.6-2.5     c2.4,0,4.8,0.9,6.6,2.5L50.6,197.3z"/>
		</g>
		<g>
			<path class="st4" d="M55,192.1c-2.5-2.1-5.6-3.3-8.9-3.3c-3.3,0-6.4,1.2-8.9,3.3l-2.2-2.5c3.1-2.6,7-4.1,11.1-4.1s8,1.5,11.1,4.1     L55,192.1z"/>
		</g>
	</g>
</g>
<g>
	<g>
		<g>
			<path class="st1" d="M124.8,277.1H97.6c-1.1,0-2-0.9-2-2v-27.2c0-1.1,0.9-2,2-2h27.2c1.1,0,2,0.9,2,2v27.2     C126.9,276.2,126,277.1,124.8,277.1z"/>
			<rect x="99.5" y="249.7" class="st2" width="23.5" height="23.5"/>
			<path class="st5" d="M122.2,284.7h-21.9c-0.4,0-0.8-0.4-0.8-0.8v-6.7H123v6.7C123,284.3,122.6,284.7,122.2,284.7z"/>
			<path class="st5" d="M123,245.8H99.5v-6.7c0-0.4,0.4-0.8,0.8-0.8h21.9c0.4,0,0.8,0.4,0.8,0.8V245.8z"/>
		</g>
		<g>
			<circle class="st4" cx="111.2" cy="261.5" r="8.5"/>
			<polygon class="st6" points="116.6,261.5 108.5,256.8 108.5,266.2    "/>
		</g>
	</g>
	<g>
		<circle class="st4" cx="111.2" cy="233" r="2.6"/>
		<g>
			<path class="st4" d="M115.7,229.1c-1.2-1.1-2.8-1.7-4.5-1.7c-1.6,0-3.2,0.6-4.5,1.7l-2.2-2.5c1.8-1.6,4.2-2.5,6.6-2.5     c2.4,0,4.8,0.9,6.6,2.5L115.7,229.1z"/>
		</g>
		<g>
			<path class="st4" d="M120.1,223.9c-2.5-2.1-5.6-3.3-8.9-3.3c-3.3,0-6.4,1.2-8.9,3.3l-2.2-2.5c3.1-2.6,7-4.1,11.1-4.1     s8,1.5,11.1,4.1L120.1,223.9z"/>
		</g>
	</g>
</g>
<path class="st2" d="M252.1,78.5c-0.8,0-1.5,0.1-2.2,0.3c-1-3.3-4.1-5.7-7.8-5.7c-1.8,0-3.5,0.6-4.8,1.6c-1.4-2.6-4.1-4.3-7.2-4.3  c-4.5,0-8.1,3.6-8.1,8.1c-4.5,0-8.1,3.6-8.1,8.1s3.6,8.1,8.1,8.1h30.1c4.5,0,8.1-3.6,8.1-8.1S256.5,78.5,252.1,78.5z"/>
<path class="st2" d="M505.9,172.3c0.8,0,1.6,0.1,2.3,0.3c1.1-3.6,4.5-6.2,8.4-6.2c2,0,3.8,0.7,5.2,1.7c1.5-2.8,4.4-4.7,7.8-4.7  c4.9,0,8.8,3.9,8.8,8.8c4.9,0,8.8,3.9,8.8,8.8s-3.9,8.8-8.8,8.8h-32.6c-4.9,0-8.8-3.9-8.8-8.8S501.1,172.3,505.9,172.3z"/>
<g>
	<g>
		<path class="st16" d="M123.8,143.7h69.8c1,0,1.8,0.8,1.8,1.8v56.1c0,1-0.8,1.8-1.8,1.8h-69.8c-1,0-1.8-0.8-1.8-1.8v-56.1    C122,144.5,122.8,143.7,123.8,143.7L123.8,143.7z"/>
		<path class="st3" d="M123.8,143.7h69.8c1,0,1.8,0.8,1.8,1.8v10.4H122v-10.4C122,144.5,122.8,143.7,123.8,143.7L123.8,143.7z"/>
		<rect x="146.6" y="147.8" class="st17" width="45.9" height="4"/>
		<path class="st18" d="M142.8,149.8c0,1.1-0.9,2-2,2s-2-0.9-2-2s0.9-2,2-2S142.8,148.7,142.8,149.8L142.8,149.8z"/>
		<path class="st19" d="M135.6,149.8c0,1.1-0.9,2-2,2s-2-0.9-2-2s0.9-2,2-2C134.7,147.8,135.6,148.7,135.6,149.8L135.6,149.8z"/>
		<path class="st14" d="M128.5,149.8c0,1.1-0.9,2-2,2s-2-0.9-2-2s0.9-2,2-2S128.5,148.7,128.5,149.8L128.5,149.8z"/>
	</g>
	<g>
		<rect x="124.5" y="161.2" class="st3" width="7.1" height="2.1"/>
		<rect x="124.5" y="166.6" class="st3" width="7.1" height="2.1"/>
		<rect x="171.9" y="166.6" class="st3" width="7.1" height="2.1"/>
		<rect x="124.5" y="171.9" class="st3" width="7.1" height="2.1"/>
		<rect x="162.7" y="171.9" class="st5" width="7.1" height="2.1"/>
		<path class="st15" d="M179.1,173.5c0.2-0.1,0.5-0.2,0.7-0.3l0.3-1.3h-1V173.5z"/>
		<rect x="124.5" y="177.3" class="st3" width="7.1" height="2.1"/>
		<rect x="124.5" y="182.7" class="st3" width="7.1" height="2.1"/>
		<rect x="124.5" y="188.1" class="st3" width="7.1" height="2.1"/>
		<rect x="124.5" y="193.4" class="st3" width="7.1" height="2.1"/>
		<path class="st14" d="M162.7,195.6h3.6c-0.1-0.7-0.1-1.4-0.1-2.1h-3.5V195.6z"/>
		<rect x="135.5" y="161.2" class="st5" width="7.1" height="2.1"/>
		<rect x="150.2" y="161.2" class="st3" width="7.1" height="2.1"/>
		<rect x="164.8" y="161.2" class="st15" width="7.1" height="2.1"/>
		<rect x="142.7" y="166.6" class="st15" width="18.6" height="2.1"/>
		<rect x="135.5" y="171.9" class="st3" width="20.7" height="2.1"/>
		<rect x="142.3" y="177.3" class="st15" width="7.1" height="2.1"/>
		<rect x="135.5" y="182.7" class="st5" width="7.1" height="2.1"/>
		<rect x="150.2" y="182.7" class="st3" width="7.1" height="2.1"/>
		<rect x="135.5" y="188.1" class="st3" width="7.1" height="2.1"/>
		<path class="st4" d="M150.2,190.2h16.2c0-0.1,0-0.3,0.1-0.4l-1.4-1.2c-0.2-0.1-0.3-0.3-0.4-0.4h-14.4v2H150.2z"/>
		<rect x="135.5" y="193.4" class="st6" width="20.7" height="2.1"/>
		<path class="st15" d="M179.1,173.5v0.6h7.1V172H180l-0.3,1.3C179.5,173.3,179.3,173.4,179.1,173.5L179.1,173.5z"/>
		<path class="st14" d="M169.8,195.6v-2.1h-3.7c0,0.7,0.1,1.4,0.1,2.1H169.8z"/>
		<rect x="180.2" y="193.4" class="st5" width="7.1" height="2.1"/>
		<g>
			<path class="st6" d="M167.4,177.3h-11.2v2.1h9.8l0.9-1.5C167.1,177.7,167.3,177.5,167.4,177.3z"/>
			<path class="st6" d="M167.4,177.3c-0.2,0.2-0.3,0.4-0.5,0.6l-0.9,1.5h11.6v-2.1H167.4z"/>
		</g>
		<rect x="164.8" y="182.7" class="st15" width="21.4" height="2.1"/>
		<rect x="182.6" y="188.1" class="st14" width="7.1" height="2.1"/>
		<path class="st4" d="M166.4,189.8c0,0.1,0,0.3-0.1,0.4h7.5v-2.1h-9.3c0.1,0.2,0.3,0.3,0.4,0.4L166.4,189.8z"/>
	</g>
</g>
<path class="st0" d="M472.7,172v12.5c0,4.2-3.4,7.6-7.6,7.6H275.7"/>
<g>
	<path class="st5" d="M280.8,200.4c-1.8,0-3.5,0.3-5.1,0.7c-2.4-7.7-9.6-13.3-18.2-13.3c-4.2,0-8.1,1.4-11.3,3.8   c-3.2-6-9.5-10.1-16.8-10.1c-10.5,0-19,8.5-19,19c-10.5,0-19,8.5-19,19s8.5,19,19,19h70.4c10.5,0,19-8.5,19-19   S291.3,200.4,280.8,200.4z"/>
	<g>
		<path class="st20" d="M223.1,227.6v-24.9h2.9v24.9H223.1z"/>
		<path class="st20" d="M248.6,218.2c0,3-0.8,5.4-2.3,7.1s-3.7,2.6-6.4,2.6c-1.7,0-3.2-0.4-4.5-1.2s-2.3-1.9-3-3.4s-1.1-3.2-1.1-5.2    c0-3,0.8-5.4,2.3-7.1s3.6-2.6,6.3-2.6c2.6,0,4.7,0.9,6.2,2.6C247.8,212.9,248.6,215.3,248.6,218.2z M234.3,218.2    c0,2.4,0.5,4.2,1.4,5.5c1,1.3,2.4,1.9,4.2,1.9c1.9,0,3.3-0.6,4.2-1.9c1-1.2,1.4-3.1,1.4-5.5s-0.5-4.2-1.4-5.4    c-1-1.2-2.4-1.9-4.3-1.9s-3.3,0.6-4.2,1.8C234.8,214,234.3,215.8,234.3,218.2z"/>
		<path class="st20" d="M261.7,227.6h-2.9v-22.4h-7.9v-2.6h18.7v2.6h-7.9L261.7,227.6L261.7,227.6z"/>
	</g>
</g>
<g>
	<g>
		<path class="st16" d="M292.7,159.9h69.8c1,0,1.8,0.8,1.8,1.8v56.1c0,1-0.8,1.8-1.8,1.8h-69.8c-1,0-1.8-0.8-1.8-1.8v-56.1    C291,160.7,291.8,159.9,292.7,159.9L292.7,159.9z"/>
		<path class="st3" d="M292.7,159.9h69.8c1,0,1.8,0.8,1.8,1.8v10.4H291v-10.4C291,160.7,291.8,159.9,292.7,159.9L292.7,159.9z"/>
		<rect x="315.5" y="164" class="st17" width="45.9" height="4"/>
		<path class="st18" d="M311.8,166c0,1.1-0.9,2-2,2s-2-0.9-2-2s0.9-2,2-2S311.8,164.9,311.8,166L311.8,166z"/>
		<path class="st19" d="M304.6,166c0,1.1-0.9,2-2,2s-2-0.9-2-2s0.9-2,2-2S304.6,164.9,304.6,166L304.6,166z"/>
		<path class="st14" d="M297.5,166c0,1.1-0.9,2-2,2s-2-0.9-2-2s0.9-2,2-2C296.5,164,297.5,164.9,297.5,166L297.5,166z"/>
	</g>
</g>
<g>
	<rect x="319.6" y="186" class="st1" width="1.4" height="2.9"/>
	<path class="st1" d="M326.6,201.5h-13.5v3.1h1.4v-1.8h12.2v1.8h1.4v-1.8h12.2v1.8h1.4v-3.1H328v-4.1h-1.4V201.5z"/>
	<rect x="340.2" y="186" class="st1" width="1.4" height="2.9"/>
	<path class="st6" d="M345.1,186c0.4,0,0.8-0.4,0.8-0.8v-6.9c0-0.4-0.4-0.8-0.8-0.8h-35.5c-0.4,0-0.8,0.4-0.8,0.8v6.9   c0,0.4,0.4,0.8,0.8,0.8H345.1z"/>
	<path class="st3" d="M336.6,188.9c-0.4,0-0.8,0.4-0.8,0.8v6.9c0,0.4,0.4,0.8,0.8,0.8h8.4c0.4,0,0.8-0.4,0.8-0.8v-6.9   c0-0.4-0.4-0.8-0.8-0.8H336.6z"/>
	<path class="st15" d="M309.5,188.9c-0.4,0-0.8,0.4-0.8,0.8v6.9c0,0.4,0.4,0.8,0.8,0.8H332c0.4,0,0.8-0.4,0.8-0.8v-6.9   c0-0.4-0.4-0.8-0.8-0.8H309.5z"/>
	<path class="st6" d="M309.7,204.6c-0.5,0-0.9,0.4-0.9,0.9v8.2c0,0.5,0.4,0.9,0.9,0.9h8.2c0.5,0,0.9-0.4,0.9-0.9v-8.2   c0-0.5-0.4-0.9-0.9-0.9H309.7z"/>
	<path class="st5" d="M323.2,204.6c-0.5,0-0.9,0.4-0.9,0.9v8.2c0,0.5,0.4,0.9,0.9,0.9h8.2c0.5,0,0.9-0.4,0.9-0.9v-8.2   c0-0.5-0.4-0.9-0.9-0.9H323.2z"/>
	<path class="st14" d="M336.8,204.6c-0.5,0-0.9,0.4-0.9,0.9v8.2c0,0.5,0.4,0.9,0.9,0.9h8.2c0.5,0,0.9-0.4,0.9-0.9v-8.2   c0-0.5-0.4-0.9-0.9-0.9H336.8z"/>
</g>
<g>
	<g>
		<line class="st21" x1="131.6" y1="261.5" x2="132.6" y2="261.5"/>
		<path class="st22" d="M134.6,261.5h35c2.7,0,4.8-2.2,4.8-4.8v-31.3c0-2.4,2-4.4,4.4-4.4h5.4"/>
		<line class="st21" x1="185.2" y1="221" x2="186.2" y2="221"/>
	</g>
</g>
<line class="st0" x1="73.1" y1="214.4" x2="187.4" y2="214.4"/>
<path class="st0" d="M171.9,114h48c3.4,0,6.1,2.7,6.1,6.1v56.5"/>
<path class="st0" d="M329.3,106.7h-81.2c-3.7,0-6.8,3-6.8,6.8v66"/>
<path class="st0" d="M383.9,148.8H259.4c-3.7,0-6.7,3-6.7,6.7v26.6"/>
<path class="st0" d="M373.8,270v-30c0-3.6-2.9-6.6-6.6-6.6h-67.4"/>
</svg>