<?xml version="1.0" encoding="UTF-8"?>
<svg enable-background="new -65 60.3 615.3 231.7" version="1.1" viewBox="25.097 -82.872 475.15 382.34" xmlns="http://www.w3.org/2000/svg">
 <defs>
  <style type="text/css">.st0{fill:none;stroke:#73C073;stroke-miterlimit:10;stroke-dasharray:2;}
	.st1{fill:#D5D6DB;}
	.st2{fill:#E0F4FF;}
	.st3{fill:#748A91;}
	.st4{fill:#BDDDF4;}
	.st5{fill:#0071BC;}
	.st6{fill:#FBB040;}
	.st7{fill:#EEEFEF;}
	.st8{fill:#B5B6BC;}
	.st9{fill:#076FA8;}
	.st10{fill:#90A2B1;}
	.st11{fill:#FFFFFF;}
	.st12{fill:none;stroke:#F6F6F8;stroke-width:2;stroke-miterlimit:10;}
	.st13{fill:none;stroke:#FFFFFF;stroke-miterlimit:10;}
	.st14{fill:#D37254;}
	.st15{fill:#73C073;}
	.st16{fill:#EFF0F4;stroke:#748A91;stroke-miterlimit:10;}
	.st17{fill:#EBF0F3;}
	.st18{fill:#FCD462;}
	.st19{fill:#44C4A1;}
	.st20{fill:#E8E8E8;}
	.st21{fill:none;stroke:#73C073;stroke-miterlimit:10;}
	.st22{fill:none;stroke:#73C073;stroke-miterlimit:10;stroke-dasharray:1.9806,1.9806;}</style>
 </defs>
 <line class="st0" x1="444.1" x2="304.5" y1="224.9" y2="224.9"/>
 <path class="st1" d="M340.6,260H152.7V139c0-2.6,2.1-4.7,4.7-4.7h178.5c2.6,0,4.7,2.1,4.7,4.7V260z"/>
 <rect class="st2" x="161.3" y="147.3" width="170.6" height="102.6"/>
 <path class="st3" d="m351.3 271.1h-209.3c-3.4 0-6.2-2.8-6.2-6.2v-6.4h221.7v6.4c0 3.4-2.8 6.2-6.2 6.2z"/>
 <path class="st0" d="m68.645 40.655h170.73c2.664 0 4.934 2.2 4.934 5v19.1" style=""/>
 <path class="st2" d="m105.3 174.8c-0.7 0-1.4 0.1-2.1 0.3-1-3.2-3.9-5.5-7.4-5.5-1.7 0-3.3 0.6-4.6 1.5-1.3-2.5-3.9-4.2-6.9-4.2-4.3 0-7.8 3.5-7.8 7.8-4.3 0-7.8 3.5-7.8 7.8s3.5 7.8 7.8 7.8h28.8c4.3 0 7.8-3.5 7.8-7.8s-3.5-7.7-7.8-7.7z"/>
 <path class="st3" d="m165.5 130.3h-29c-1.5 0-2.6-1.2-2.6-2.6v-41.7c0-1.5 1.2-2.6 2.6-2.6h29c1.5 0 2.6 1.2 2.6 2.6v41.7c0 1.4-1.1 2.6-2.6 2.6z"/>
 <rect class="st2" x="135.5" y="87.8" width="31" height="36.5"/>
 <path class="st1" d="m152.9 128.4h-3.9c-0.4 0-0.8-0.3-0.9-0.8-0.1-0.6 0.3-1.2 0.9-1.2h3.9c0.6 0 1.1 0.6 0.9 1.2 0 0.5-0.4 0.8-0.9 0.8z"/>
 <circle class="st4" cx="151" cy="78.9" r="2.1"/>
 <path class="st4" d="m154.6 75.8c-1-0.9-2.3-1.3-3.6-1.3s-2.6 0.5-3.6 1.3l-1.7-2c1.5-1.3 3.4-2 5.3-2 2 0 3.8 0.7 5.3 2l-1.7 2z"/>
 <path class="st4" d="m158.1 71.6c-2-1.7-4.5-2.6-7.1-2.6s-5.2 0.9-7.1 2.6l-1.7-2c2.5-2.1 5.6-3.3 8.9-3.3s6.4 1.2 8.9 3.3l-1.9 2z"/>
 <g transform="translate(-77.887 -122.11)">
  <path class="st3" d="m511.1 138c-5.4 0-10.2-3.4-12-8.5-0.4-1 0.8-2 2.2-3.1 0.8-0.6 2-1.6 2-2 0-1-0.8-1.9-1.5-2.8-1-1.1-2.1-2.4-1-3.8 2.4-3.4 6.3-5.4 10.4-5.4 7 0 12.8 5.7 12.8 12.8-0.1 7.1-5.8 12.8-12.9 12.8zm0-24.4c-3.8 0-7.3 1.8-9.5 4.9-0.5 0.7-0.1 1.2 1 2.4 0.8 1 1.8 2.1 1.8 3.5 0 1-1.1 1.8-2.4 2.9-0.6 0.5-1.9 1.5-1.9 1.9 1.7 4.6 6.1 7.7 11 7.7 6.4 0 11.7-5.2 11.7-11.7s-5.2-11.6-11.7-11.6z"/>
  <rect class="st5" transform="matrix(-.4502 -.8929 .8929 -.4502 590 635.7)" x="484.1" y="114.1" width="13.2" height="44.3"/>
  <rect class="st5" transform="matrix(-.8462 -.5328 .5328 -.8462 847.07 465.7)" x="469.8" y="106" width="41.9" height="9.3"/>
  <rect class="st5" x="462.2" y="144.2" width="22.7" height="19"/>
  <circle class="st6" cx="511.2" cy="125" r="8.5"/>
  <circle class="st3" cx="511.2" cy="125" r="4.3"/>
  <circle class="st7" cx="511.2" cy="125" r="2.1"/>
  <circle class="st6" cx="467.4" cy="146.2" r="10.5"/>
  <circle class="st3" cx="467.4" cy="146.2" r="5.4"/>
  <circle class="st7" cx="467.4" cy="146.2" r="2.6"/>
  <rect class="st3" x="460" y="167.2" width="26.2" height="2.7"/>
  <rect class="st6" x="457.4" y="162.1" width="32.4" height="5.1"/>
  <polygon class="st3" points="464.6 93.5 450.1 100.4 450.4 102.3 465.4 98.3"/>
  <polygon class="st3" points="467.4 109.5 451.4 107.9 451 106 466.5 104.7"/>
  <path class="st6" d="m468.5 114c-2.1-10.8-2.8-14.7-4.4-23.2 6.4-1.2 12.6 3 13.8 9.4 1.1 6.4-3 12.6-9.4 13.8z"/>
  <polygon class="st5" points="468.4 112.7 467 112.2 463.6 93.5 464.5 92.5"/>
 </g>
 <g transform="translate(99.605 -150.04)">
  <circle class="st4" cx="-15" cy="136.4" r="2.6"/>
  <path class="st4" d="m-10.5 132.5c-1.2-1.1-2.8-1.7-4.5-1.7-1.6 0-3.2 0.6-4.5 1.7l-2.2-2.5c1.8-1.6 4.2-2.5 6.6-2.5s4.8 0.9 6.6 2.5l-2 2.5z"/>
  <path class="st4" d="m-6.1 127.3c-2.5-2.1-5.6-3.3-8.9-3.3s-6.4 1.2-8.9 3.3l-2.2-2.5c3.1-2.6 7-4.1 11.1-4.1s8 1.5 11.1 4.1l-2.2 2.5z"/>
  <path class="st3" d="m-37.7 174.7h-6c-0.8 0-1.5 0.7-1.5 1.5v10.9c0 0.8 0.7 1.5 1.5 1.5h6c0.8 0 1.5-0.7 1.5-1.5v-10.9c0-0.8-0.7-1.5-1.5-1.5z"/>
  <path class="st3" d="m13.3 174.7h-6c-0.8 0-1.5 0.7-1.5 1.5v10.9c0 0.8 0.7 1.5 1.5 1.5h6c0.8 0 1.5-0.7 1.5-1.5v-10.9c0-0.8-0.7-1.5-1.5-1.5z"/>
  <path class="st5" d="m16.7 177.1v-7.5c0-6-4.4-9.5-7-11l0.9-1c0.4 0.4 1 0.6 1.9 0.6 2.1 0 3.8-1.1 3.8-2.4s-1.7-2.4-3.8-2.4c-1.9 0-2.4 0.9-2.4 2-0.2 1-0.8 1.9-1.4 2.5-0.3-0.1-0.5-0.3-0.7-0.3-3.1-7.2-8.2-11.8-8.2-11.8-14.9-1.3-30.7 0-30.7 0-3.9 2.6-6.5 8.7-7.6 11.8l-0.6 0.3c-0.6-0.6-1.3-1.5-1.4-2.5-0.1-1.1-0.6-2-2.4-2-2.1 0-3.8 1.1-3.8 2.4s1.7 2.4 3.8 2.4c1 0 1.6-0.2 1.9-0.6l0.9 1c-2.6 1.6-7 5.1-7 11v7.5s-0.4 5 7 5h49.9c7.4 0.1 6.9-5 6.9-5z"/>
  <path class="st8" d="m-36.1 156.6c1.2-2.8 3.2-6.8 5.8-8.7 1.6-0.1 7.9-0.6 15.6-0.6 5 0 9.7 0.2 13.9 0.5 1 1 4 4.2 6.4 8.8h-41.7z"/>
  <path class="st1" d="m-24.5 147.5 9.1 9.1h9.9l-9.3-9.3c-3.8 0-7.1 0.1-9.7 0.2z"/>
  <circle class="st6" cx="-39.9" cy="168.3" r="3.5"/>
  <circle class="st6" cx="9.5" cy="168.3" r="3.5"/>
  <path class="st3" d="m-30.5 167.3h30.7s0.6 5.9-5.6 5.9h-19.5s-5.6-0.2-5.6-5.9z"/>
  <path class="st9" d="m16.7 177.1v-7.5c0-0.4 0-0.8-0.1-1.1-1.9 2.6-6.2 7.2-13.6 7.2h-36.3c-7.6 0-12-4.9-13.7-7.5-0.1 0.4-0.1 0.9-0.1 1.4v7.5s-0.4 5 7 5h49.9c7.4 0.1 6.9-5 6.9-5z"/>
 </g>
 <g transform="translate(-33.195 -159.45)">
  <path class="st1" d="m508.7 253.7c0 0.5-0.4 0.8-0.8 0.8h-55.3c-0.5 0-0.8-0.4-0.8-0.8v-36.4c0-0.5 0.4-0.8 0.8-0.8h55.3c0.5 0 0.8 0.4 0.8 0.8v36.4z"/>
  <path class="st3" d="m495.1 249.4c0 0.9-0.7 1.6-1.6 1.6h-37c-0.9 0-1.6-0.7-1.6-1.6v-27.7c0-0.9 0.7-1.6 1.6-1.6h37c0.9 0 1.6 0.7 1.6 1.6v27.7z"/>
  <polygon class="st10" points="468.2 251 461.4 251 472.6 220 479.4 220"/>
  <polyline class="st10" points="476.7 238.6 472.2 251 469.9 251 481.1 220 483.4 220 476.7 238.6"/>
  <rect class="st5" x="492.2" y="219.2" width="3.1" height="32.5"/>
  <circle class="st3" cx="501.4" cy="235.5" r="3.9"/>
  <path class="st1" d="m501.4 238.6c-1.7 0-3.1-1.4-3.1-3.1s1.4-3.1 3.1-3.1 3.1 1.4 3.1 3.1c0.1 1.7-1.3 3.1-3.1 3.1z"/>
  <circle class="st6" cx="501.4" cy="235.5" r="2.9"/>
  <rect class="st1" x="501.3" y="232.6" width=".3" height=".8"/>
  <circle class="st3" cx="501.4" cy="244.8" r="3.9"/>
  <path class="st1" d="m501.4 248c-1.7 0-3.1-1.4-3.1-3.1s1.4-3.1 3.1-3.1 3.1 1.4 3.1 3.1c0.1 1.7-1.3 3.1-3.1 3.1z"/>
  <circle class="st6" cx="501.4" cy="244.8" r="2.9"/>
  <rect class="st1" x="501.3" y="242" width=".3" height=".8"/>
  <path class="st3" d="m497.4 229.5c-0.1 0-0.3-0.1-0.3-0.3v-8c0-0.1 0.1-0.3 0.3-0.3h8c0.1 0 0.3 0.1 0.3 0.3v8c0 0.1-0.1 0.3-0.3 0.3h-8z"/>
  <path class="st10" d="m497.4 229.2v-8h8v8h-8v0z"/>
  <circle class="st4" cx="479.4" cy="210.1" r="2.2"/>
  <path class="st4" d="m483.3 206.8c-1.1-0.9-2.4-1.4-3.8-1.4s-2.8 0.5-3.8 1.4l-1.9-2.2c1.6-1.4 3.6-2.1 5.7-2.1s4.1 0.7 5.7 2.1l-1.9 2.2z"/>
  <path class="st4" d="m487.1 202.4c-2.1-1.8-4.8-2.8-7.6-2.8s-5.5 1-7.6 2.8l-1.9-2.2c2.6-2.3 6-3.5 9.5-3.5s6.9 1.2 9.5 3.5l-1.9 2.2z"/>
 </g>
 <rect class="st1" transform="matrix(-.2032 -.9791 .9791 -.2032 209.88 685.37)" x="363.5" y="254.6" width="40.6" height="5.4"/>
 <rect class="st1" transform="matrix(-.9792 -.2031 .2031 -.9792 770.17 593.86)" x="412.9" y="237.1" width="5.4" height="40.6"/>
 <rect class="st5" x="368.8" y="272.8" width="61.8" height="13.2"/>
 <circle class="st6" cx="387.9" cy="279.4" r="2"/>
 <circle class="st6" cx="380.1" cy="279.4" r="2"/>
 <circle class="st6" cx="395.8" cy="279.4" r="2"/>
 <circle class="st6" cx="403.7" cy="279.4" r="2"/>
 <circle class="st6" cx="411.5" cy="279.4" r="2"/>
 <circle class="st6" cx="419.4" cy="279.4" r="2"/>
 <circle class="st4" cx="399.7" cy="260.1" r="2.6"/>
 <path class="st4" d="m404.2 256.2c-1.2-1.1-2.8-1.7-4.5-1.7-1.6 0-3.2 0.6-4.5 1.7l-2.2-2.5c1.8-1.6 4.2-2.5 6.6-2.5s4.8 0.9 6.6 2.5l-2 2.5z"/>
 <path class="st4" d="m408.6 251.1c-2.5-2.1-5.6-3.3-8.9-3.3s-6.4 1.2-8.9 3.3l-2.2-2.5c3.1-2.6 7-4.1 11.1-4.1s8 1.5 11.1 4.1l-2.2 2.5z"/>
 <rect class="st3" transform="matrix(-.7071 -.7071 .7071 -.7071 609.62 596.52)" x="422.9" y="166.2" width="11" height="11.6"/>
 <polygon class="st1" points="375.4 166.1 376 162.7 391.2 165.8 400.9 156 403.3 158.4 392.3 169.4"/>
 <polygon class="st3" points="417.1 175.4 390.3 148.6 401.3 137.6 432.3 168.7"/>
 <polygon class="st4" points="421.8 176.8 391.9 147 405.8 133.1 440.9 168.3"/>
 <path class="st4" d="m375 175v-18.6c2.6 0 4.7 2.1 4.7 4.7v9.2c0 2.6-2.1 4.7-4.7 4.7z"/>
 <circle class="st4" cx="391.7" cy="167.6" r="4.8"/>
 <circle class="st11" cx="391.7" cy="167.6" r="2.3"/>
 <circle class="st4" cx="406.1" cy="126.4" r="2.3"/>
 <path class="st4" d="m410.1 122.9c-1.1-1-2.5-1.5-4-1.5s-2.9 0.5-4 1.5l-1.9-2.3c1.7-1.4 3.8-2.2 6-2.2s4.3 0.8 6 2.2l-2.1 2.3z"/>
 <path class="st4" d="m414 118.3c-2.2-1.9-5.1-2.9-8-2.9s-5.8 1-8 2.9l-1.9-2.3c2.8-2.4 6.3-3.7 9.9-3.7s7.2 1.3 9.9 3.7l-1.9 2.3z"/>
 <g transform="translate(-121.76 -142.18)">
  <circle class="st4" cx="511" cy="106.7" r="2.6"/>
  <path class="st4" d="m515.5 102.8c-1.2-1.1-2.8-1.7-4.5-1.7-1.6 0-3.2 0.6-4.5 1.7l-2.2-2.5c1.8-1.6 4.2-2.5 6.6-2.5s4.8 0.9 6.6 2.5l-2 2.5z"/>
  <path class="st4" d="m519.9 97.6c-2.5-2.1-5.6-3.3-8.9-3.3s-6.4 1.2-8.9 3.3l-2.2-2.5c3.1-2.6 7-4.1 11.1-4.1s8 1.5 11.1 4.1l-2.2 2.5z"/>
 </g>
 <g transform="translate(-42.743 -99.849)">
  <rect class="st1" transform="matrix(-.7071 -.7071 .7071 -.7071 518.9 440.5)" x="337.5" y="111" width="26.4" height="3.6"/>
  <rect class="st1" transform="matrix(-.7071 .7071 -.7071 -.7071 673.25 -57.397)" x="337.4" y="108.9" width="22.3" height="3.6"/>
  <path class="st6" d="m359.9 115.2-6.8 6.8c-0.7 0.7-1.9 0.7-2.6 0l-13.2-13.2c-0.7-0.7-0.7-1.9 0-2.6l6.8-6.8c0.7-0.7 1.9-0.7 2.6 0l13.2 13.2c0.7 0.7 0.7 1.9 0 2.6z"/>
  <rect class="st5" transform="matrix(-.7071 .7071 -.7071 -.7071 692.65 -103.92)" x="351.8" y="83.7" width="32.1" height="15.6"/>
  <rect class="st5" transform="matrix(-.7071 .7071 -.7071 -.7071 654.1 -10.977)" x="313.3" y="122.2" width="32.1" height="15.6"/>
  <path class="st3" d="m368.6 118.2c-3.4-0.9-7.2-0.1-9.8 2.6-2.7 2.7-3.5 6.4-2.6 9.8l12.4-12.4z"/>
  <circle class="st4" cx="343.3" cy="92.4" r="2.6"/>
  <path class="st4" d="m347.8 88.5c-1.2-1.1-2.8-1.7-4.5-1.7-1.6 0-3.2 0.6-4.5 1.7l-2.2-2.5c1.8-1.6 4.2-2.5 6.6-2.5s4.8 0.9 6.6 2.5l-2 2.5z"/>
  <path class="st4" d="m352.2 83.3c-2.5-2.1-5.6-3.3-8.9-3.3s-6.4 1.2-8.9 3.3l-2.2-2.5c3.1-2.6 7-4.1 11.1-4.1s8 1.5 11.1 4.1l-2.2 2.5z"/>
 </g>
 <path class="st6" d="m77.2 109.5c-2.9-5.2-8.4-8.2-15.2-8.2s-12.3 3-15.2 8.2c-2.8 5-2.6 11.2 0.6 16.2 1.9 3.1 3.5 5 4.7 6.4 2.2 2.7 2.8 3.5 2.8 8.1h14.2c0-4.6 0.7-5.4 2.8-8.1 1.2-1.4 2.8-3.4 4.7-6.4 3.1-5 3.3-11.2 0.6-16.2z"/>
 <path class="st12" d="m62 142.9"/>
 <path class="st5" d="m67.3 117.8c-0.8-0.6-1.9-0.8-2.9-0.3-0.9 0.4-1.9 1.4-2.5 3-0.6-1.6-1.6-2.5-2.5-3-1-0.5-2.1-0.4-2.9 0.3-1 0.9-1.3 2.5-0.8 4.5 0.7 2.5 2.8 3.8 5 4.1v16.5h2.2v-16.5c2.2-0.3 4.4-1.6 5-4.1 0.8-2 0.5-3.6-0.6-4.5zm-6.4 6.8c-1.4-0.3-2.8-1.1-3.3-2.8-0.4-1.5-0.1-2.3 0.2-2.7 0.1-0.1 0.3-0.2 0.4-0.2 0.2 0 0.4 0.1 0.5 0.1 1 0.5 2.1 2.1 2.1 5.3v0.3h0.1zm5.5-2.8c-0.4 1.7-1.9 2.5-3.3 2.8v-0.1c0-3.2 1.1-4.9 2.1-5.3 0.1-0.1 0.3-0.1 0.5-0.1 0.1 0 0.3 0 0.4 0.2 0.4 0.2 0.7 1 0.3 2.5z"/>
 <path class="st3" d="m68.7 145.3c1.4 0 2.5-1.1 2.5-2.5s-1.1-2.5-2.5-2.5h-13.4c-1.4 0-2.5 1.1-2.5 2.5s1.1 2.5 2.5 2.5c-1.4 0-2.5 1.1-2.5 2.5s1.1 2.5 2.5 2.5v2.2c0 2.2 1.8 4.1 4.1 4.1h5.3c2.2 0 4.1-1.8 4.1-4.1v-2.2c1.4 0 2.5-1.1 2.5-2.5-0.1-1.4-1.2-2.5-2.6-2.5z"/>
 <line class="st13" x1="50.2" x2="77.4" y1="145" y2="145"/>
 <path class="st0" d="m74.7 150h135.2c3.2 0 5.8 2.6 5.8 5.8v26.4"/>
 <circle class="st4" cx="62" cy="94.9" r="2.6"/>
 <path class="st4" d="m66.5 91c-1.2-1.1-2.8-1.7-4.5-1.7-1.6 0-3.2 0.6-4.5 1.7l-2.2-2.5c1.8-1.6 4.2-2.5 6.6-2.5s4.8 0.9 6.6 2.5l-2 2.5z"/>
 <path class="st4" d="m70.9 85.9c-2.5-2.1-5.6-3.3-8.9-3.3s-6.4 1.2-8.9 3.3l-2.2-2.5c3.1-2.6 7-4.1 11.1-4.1s8 1.5 11.1 4.1l-2.2 2.5z"/>
 <g transform="translate(149.68 -239.13)">
  <circle class="st14" cx="46.7" cy="219.1" r="7"/>
  <circle class="st15" cx="46.7" cy="246.1" r="7"/>
  <circle class="st6" cx="46.7" cy="232.6" r="7"/>
  <path class="st1" d="m27.9 240.7c-1 0-1.7 0.9-1.5 1.9 0.8 3.9 4.2 7.1 8.7 8.4v2.5c0 1.4 1.1 2.5 2.5 2.5h17.1c1.4 0 2.5-1.1 2.5-2.5v-2.5c4.5-1.3 7.8-4.5 8.6-8.4 0.2-1-0.5-1.9-1.5-1.9h-7.1v-3.2c4.5-1.3 7.8-4.5 8.6-8.4 0.2-1-0.5-1.9-1.5-1.9h-7.1v-3.2c4.5-1.3 7.8-4.5 8.6-8.4 0.2-1-0.5-1.9-1.5-1.9h-7.1v-2.8c0-1.4-1.1-2.5-2.5-2.5h-17.1c-1.4 0-2.5 1.1-2.5 2.5v2.7h-7.2c-1 0-1.7 0.9-1.5 1.9 0.8 3.9 4.2 7.1 8.7 8.4v3.2h-7.2c-1 0-1.7 0.9-1.5 1.9 0.8 3.9 4.2 7.1 8.7 8.4v3.2l-7.2 0.1zm18.3-26.3c2.6 0 4.8 2.1 4.8 4.8s-2.1 4.8-4.8 4.8c-2.6 0-4.8-2.1-4.8-4.8s2.1-4.8 4.8-4.8zm0 13.5c2.6 0 4.8 2.1 4.8 4.8s-2.1 4.8-4.8 4.8c-2.6 0-4.8-2.1-4.8-4.8s2.1-4.8 4.8-4.8zm0 13.5c2.6 0 4.8 2.1 4.8 4.8s-2.1 4.8-4.8 4.8c-2.6 0-4.8-2.1-4.8-4.8s2.1-4.8 4.8-4.8z"/>
  <path class="st3" d="m28 240.7c-1 0-1.7 0.9-1.5 1.9 0.8 3.9 4.2 7.1 8.7 8.4v2.5c0 1.4 1.1 2.5 2.5 2.5h17.1c1.4 0 2.5-1.1 2.5-2.5v-2.5c4.5-1.3 7.8-4.5 8.6-8.4 0.2-1-0.5-1.9-1.5-1.9h-7.1v-3.2c4.5-1.3 7.8-4.5 8.6-8.4 0.2-1-0.5-1.9-1.5-1.9h-7.1v-3.2c4.5-1.3 7.8-4.5 8.6-8.4 0.2-1-0.5-1.9-1.5-1.9h-7.1v-2.8c0-1.4-1.1-2.5-2.5-2.5h-17.1c-1.4 0-2.5 1.1-2.5 2.5v2.7h-7.2c-1 0-1.7 0.9-1.5 1.9 0.8 3.9 4.2 7.1 8.7 8.4v3.2h-7.2c-1 0-1.7 0.9-1.5 1.9 0.8 3.9 4.2 7.1 8.7 8.4v3.2l-7.2 0.1zm18.2-26.3c2.6 0 4.8 2.1 4.8 4.8s-2.1 4.8-4.8 4.8c-2.6 0-4.8-2.1-4.8-4.8s2.1-4.8 4.8-4.8zm0 13.5c2.6 0 4.8 2.1 4.8 4.8s-2.1 4.8-4.8 4.8c-2.6 0-4.8-2.1-4.8-4.8s2.1-4.8 4.8-4.8zm0 13.5c2.6 0 4.8 2.1 4.8 4.8s-2.1 4.8-4.8 4.8c-2.6 0-4.8-2.1-4.8-4.8s2.1-4.8 4.8-4.8z"/>
  <circle class="st4" cx="46.1" cy="201.2" r="2.6"/>
  <path class="st4" d="m50.6 197.3c-1.2-1.1-2.8-1.7-4.5-1.7-1.6 0-3.2 0.6-4.5 1.7l-2.2-2.5c1.8-1.6 4.2-2.5 6.6-2.5s4.8 0.9 6.6 2.5l-2 2.5z"/>
  <path class="st4" d="m55 192.1c-2.5-2.1-5.6-3.3-8.9-3.3s-6.4 1.2-8.9 3.3l-2.2-2.5c3.1-2.6 7-4.1 11.1-4.1s8 1.5 11.1 4.1l-2.2 2.5z"/>
 </g>
 <path class="st1" d="m124.8 277.1h-27.2c-1.1 0-2-0.9-2-2v-27.2c0-1.1 0.9-2 2-2h27.2c1.1 0 2 0.9 2 2v27.2c0.1 1.1-0.8 2-2 2z"/>
 <rect class="st2" x="99.5" y="249.7" width="23.5" height="23.5"/>
 <path class="st5" d="m122.2 284.7h-21.9c-0.4 0-0.8-0.4-0.8-0.8v-6.7h23.5v6.7c0 0.4-0.4 0.8-0.8 0.8z"/>
 <path class="st5" d="m123 245.8h-23.5v-6.7c0-0.4 0.4-0.8 0.8-0.8h21.9c0.4 0 0.8 0.4 0.8 0.8v6.7z"/>
 <circle class="st4" cx="111.2" cy="261.5" r="8.5"/>
 <polygon class="st6" points="116.6 261.5 108.5 256.8 108.5 266.2"/>
 <circle class="st4" cx="111.2" cy="233" r="2.6"/>
 <path class="st4" d="m115.7 229.1c-1.2-1.1-2.8-1.7-4.5-1.7-1.6 0-3.2 0.6-4.5 1.7l-2.2-2.5c1.8-1.6 4.2-2.5 6.6-2.5s4.8 0.9 6.6 2.5l-2 2.5z"/>
 <path class="st4" d="m120.1 223.9c-2.5-2.1-5.6-3.3-8.9-3.3s-6.4 1.2-8.9 3.3l-2.2-2.5c3.1-2.6 7-4.1 11.1-4.1s8 1.5 11.1 4.1l-2.2 2.5z"/>
 <path class="st2" d="m252.1 78.5c-0.8 0-1.5 0.1-2.2 0.3-1-3.3-4.1-5.7-7.8-5.7-1.8 0-3.5 0.6-4.8 1.6-1.4-2.6-4.1-4.3-7.2-4.3-4.5 0-8.1 3.6-8.1 8.1-4.5 0-8.1 3.6-8.1 8.1s3.6 8.1 8.1 8.1h30.1c4.5 0 8.1-3.6 8.1-8.1s-3.7-8.1-8.1-8.1z"/>
 <path class="st2" d="m309.07 56.671c0.8 0 1.6 0.1 2.3 0.3 1.1-3.6 4.5-6.2 8.4-6.2 2 0 3.8 0.7 5.2 1.7 1.5-2.8 4.4-4.7 7.8-4.7 4.9 0 8.8 3.9 8.8 8.8 4.9 0 8.8 3.9 8.8 8.8s-3.9 8.8-8.8 8.8h-32.6c-4.9 0-8.8-3.9-8.8-8.8s4.1-8.7 8.9-8.7z"/>
 <path class="st16" d="m123.8 143.7h69.8c1 0 1.8 0.8 1.8 1.8v56.1c0 1-0.8 1.8-1.8 1.8h-69.8c-1 0-1.8-0.8-1.8-1.8v-56.1c0-1 0.8-1.8 1.8-1.8z"/>
 <path class="st3" d="m123.8 143.7h69.8c1 0 1.8 0.8 1.8 1.8v10.4h-73.4v-10.4c0-1 0.8-1.8 1.8-1.8z"/>
 <rect class="st17" x="146.6" y="147.8" width="45.9" height="4"/>
 <path class="st18" d="m142.8 149.8c0 1.1-0.9 2-2 2s-2-0.9-2-2 0.9-2 2-2 2 0.9 2 2z"/>
 <path class="st19" d="m135.6 149.8c0 1.1-0.9 2-2 2s-2-0.9-2-2 0.9-2 2-2 2 0.9 2 2z"/>
 <path class="st14" d="m128.5 149.8c0 1.1-0.9 2-2 2s-2-0.9-2-2 0.9-2 2-2 2 0.9 2 2z"/>
 <rect class="st3" x="124.5" y="161.2" width="7.1" height="2.1"/>
 <rect class="st3" x="124.5" y="166.6" width="7.1" height="2.1"/>
 <rect class="st3" x="171.9" y="166.6" width="7.1" height="2.1"/>
 <rect class="st3" x="124.5" y="171.9" width="7.1" height="2.1"/>
 <rect class="st5" x="162.7" y="171.9" width="7.1" height="2.1"/>
 <path class="st15" d="m179.1 173.5c0.2-0.1 0.5-0.2 0.7-0.3l0.3-1.3h-1v1.6z"/>
 <rect class="st3" x="124.5" y="177.3" width="7.1" height="2.1"/>
 <rect class="st3" x="124.5" y="182.7" width="7.1" height="2.1"/>
 <rect class="st3" x="124.5" y="188.1" width="7.1" height="2.1"/>
 <rect class="st3" x="124.5" y="193.4" width="7.1" height="2.1"/>
 <path class="st14" d="m162.7 195.6h3.6c-0.1-0.7-0.1-1.4-0.1-2.1h-3.5v2.1z"/>
 <rect class="st5" x="135.5" y="161.2" width="7.1" height="2.1"/>
 <rect class="st3" x="150.2" y="161.2" width="7.1" height="2.1"/>
 <rect class="st15" x="164.8" y="161.2" width="7.1" height="2.1"/>
 <rect class="st15" x="142.7" y="166.6" width="18.6" height="2.1"/>
 <rect class="st3" x="135.5" y="171.9" width="20.7" height="2.1"/>
 <rect class="st15" x="142.3" y="177.3" width="7.1" height="2.1"/>
 <rect class="st5" x="135.5" y="182.7" width="7.1" height="2.1"/>
 <rect class="st3" x="150.2" y="182.7" width="7.1" height="2.1"/>
 <rect class="st3" x="135.5" y="188.1" width="7.1" height="2.1"/>
 <path class="st4" d="m150.2 190.2h16.2c0-0.1 0-0.3 0.1-0.4l-1.4-1.2c-0.2-0.1-0.3-0.3-0.4-0.4h-14.4v2h-0.1z"/>
 <rect class="st6" x="135.5" y="193.4" width="20.7" height="2.1"/>
 <path class="st15" d="m179.1 173.5v0.6h7.1v-2.1h-6.2l-0.3 1.3c-0.2 0-0.4 0.1-0.6 0.2z"/>
 <path class="st14" d="m169.8 195.6v-2.1h-3.7c0 0.7 0.1 1.4 0.1 2.1h3.6z"/>
 <rect class="st5" x="180.2" y="193.4" width="7.1" height="2.1"/>
 <path class="st6" d="m167.4 177.3h-11.2v2.1h9.8l0.9-1.5c0.2-0.2 0.4-0.4 0.5-0.6z"/>
 <path class="st6" d="m167.4 177.3c-0.2 0.2-0.3 0.4-0.5 0.6l-0.9 1.5h11.6v-2.1h-10.2z"/>
 <rect class="st15" x="164.8" y="182.7" width="21.4" height="2.1"/>
 <rect class="st14" x="182.6" y="188.1" width="7.1" height="2.1"/>
 <path class="st4" d="m166.4 189.8c0 0.1 0 0.3-0.1 0.4h7.5v-2.1h-9.3c0.1 0.2 0.3 0.3 0.4 0.4l1.5 1.3z"/>
 <path class="st0" d="m416.74 76.805v12.5c0 4.2-3.4 7.6-7.6 7.6l-147.64-1.072"/>
 <path class="st5" d="m280.8 200.4c-1.8 0-3.5 0.3-5.1 0.7-2.4-7.7-9.6-13.3-18.2-13.3-4.2 0-8.1 1.4-11.3 3.8-3.2-6-9.5-10.1-16.8-10.1-10.5 0-19 8.5-19 19-10.5 0-19 8.5-19 19s8.5 19 19 19h70.4c10.5 0 19-8.5 19-19s-8.5-19.1-19-19.1z"/>
 <path class="st20" d="m223.1 227.6v-24.9h2.9v24.9h-2.9z"/>
 <path class="st20" d="m248.6 218.2c0 3-0.8 5.4-2.3 7.1s-3.7 2.6-6.4 2.6c-1.7 0-3.2-0.4-4.5-1.2s-2.3-1.9-3-3.4-1.1-3.2-1.1-5.2c0-3 0.8-5.4 2.3-7.1s3.6-2.6 6.3-2.6c2.6 0 4.7 0.9 6.2 2.6 1.7 1.9 2.5 4.3 2.5 7.2zm-14.3 0c0 2.4 0.5 4.2 1.4 5.5 1 1.3 2.4 1.9 4.2 1.9 1.9 0 3.3-0.6 4.2-1.9 1-1.2 1.4-3.1 1.4-5.5s-0.5-4.2-1.4-5.4c-1-1.2-2.4-1.9-4.3-1.9s-3.3 0.6-4.2 1.8c-0.8 1.3-1.3 3.1-1.3 5.5z"/>
 <path class="st20" d="m261.7 227.6h-2.9v-22.4h-7.9v-2.6h18.7v2.6h-7.9v22.4z"/>
 <path class="st16" d="m292.7 159.9h69.8c1 0 1.8 0.8 1.8 1.8v56.1c0 1-0.8 1.8-1.8 1.8h-69.8c-1 0-1.8-0.8-1.8-1.8v-56.1c0.1-1 0.9-1.8 1.8-1.8z"/>
 <path class="st3" d="m292.7 159.9h69.8c1 0 1.8 0.8 1.8 1.8v10.4h-73.3v-10.4c0-1 0.8-1.8 1.7-1.8z"/>
 <rect class="st17" x="315.5" y="164" width="45.9" height="4"/>
 <path class="st18" d="m311.8 166c0 1.1-0.9 2-2 2s-2-0.9-2-2 0.9-2 2-2 2 0.9 2 2z"/>
 <path class="st19" d="m304.6 166c0 1.1-0.9 2-2 2s-2-0.9-2-2 0.9-2 2-2 2 0.9 2 2z"/>
 <path class="st14" d="m297.5 166c0 1.1-0.9 2-2 2s-2-0.9-2-2 0.9-2 2-2c1 0 2 0.9 2 2z"/>
 <rect class="st1" x="319.6" y="186" width="1.4" height="2.9"/>
 <path class="st1" d="m326.6 201.5h-13.5v3.1h1.4v-1.8h12.2v1.8h1.4v-1.8h12.2v1.8h1.4v-3.1h-13.7v-4.1h-1.4v4.1z"/>
 <rect class="st1" x="340.2" y="186" width="1.4" height="2.9"/>
 <path class="st6" d="m345.1 186c0.4 0 0.8-0.4 0.8-0.8v-6.9c0-0.4-0.4-0.8-0.8-0.8h-35.5c-0.4 0-0.8 0.4-0.8 0.8v6.9c0 0.4 0.4 0.8 0.8 0.8h35.5z"/>
 <path class="st3" d="m336.6 188.9c-0.4 0-0.8 0.4-0.8 0.8v6.9c0 0.4 0.4 0.8 0.8 0.8h8.4c0.4 0 0.8-0.4 0.8-0.8v-6.9c0-0.4-0.4-0.8-0.8-0.8h-8.4z"/>
 <path class="st15" d="m309.5 188.9c-0.4 0-0.8 0.4-0.8 0.8v6.9c0 0.4 0.4 0.8 0.8 0.8h22.5c0.4 0 0.8-0.4 0.8-0.8v-6.9c0-0.4-0.4-0.8-0.8-0.8h-22.5z"/>
 <path class="st6" d="m309.7 204.6c-0.5 0-0.9 0.4-0.9 0.9v8.2c0 0.5 0.4 0.9 0.9 0.9h8.2c0.5 0 0.9-0.4 0.9-0.9v-8.2c0-0.5-0.4-0.9-0.9-0.9h-8.2z"/>
 <path class="st5" d="m323.2 204.6c-0.5 0-0.9 0.4-0.9 0.9v8.2c0 0.5 0.4 0.9 0.9 0.9h8.2c0.5 0 0.9-0.4 0.9-0.9v-8.2c0-0.5-0.4-0.9-0.9-0.9h-8.2z"/>
 <path class="st14" d="m336.8 204.6c-0.5 0-0.9 0.4-0.9 0.9v8.2c0 0.5 0.4 0.9 0.9 0.9h8.2c0.5 0 0.9-0.4 0.9-0.9v-8.2c0-0.5-0.4-0.9-0.9-0.9h-8.2z"/>
 <line class="st21" x1="131.6" x2="132.6" y1="261.5" y2="261.5"/>
 <path class="st22" d="m134.6 261.5h35c2.7 0 4.8-2.2 4.8-4.8v-31.3c0-2.4 2-4.4 4.4-4.4h5.4"/>
 <line class="st21" x1="185.2" x2="186.2" y1="221" y2="221"/>
 <line class="st0" x1="73.1" x2="187.4" y1="214.4" y2="214.4"/>
 <path class="st0" d="m171.9 114h48c3.4 0 6.1 2.7 6.1 6.1v56.5"/>
 <path class="st0" d="m329.3 106.7h-81.2c-3.7 0-6.8 3-6.8 6.8v66"/>
 <path class="st0" d="M383.9,148.8H259.4c-3.7,0-6.7,3-6.7,6.7v26.6"/>
 <path class="st0" d="m373.8 270v-30c0-3.6-2.9-6.6-6.6-6.6h-67.4"/>
</svg>
