<?xml version="1.0" encoding="utf-8"?>
<svg viewBox="44.84 -53.63 430.665 339.63" width="430.665" height="339.63" xmlns="http://www.w3.org/2000/svg">
  <defs>
    <style type="text/css">.st0{fill:none;stroke:#73C073;stroke-miterlimit:10;stroke-dasharray:2;}
	.st1{fill:#D5D6DB;}
	.st2{fill:#E0F4FF;}
	.st3{fill:#748A91;}
	.st4{fill:#BDDDF4;}
	.st5{fill:#0071BC;}
	.st6{fill:#FBB040;}
	.st7{fill:#EEEFEF;}
	.st8{fill:#B5B6BC;}
	.st9{fill:#076FA8;}
	.st10{fill:#90A2B1;}
	.st11{fill:#FFFFFF;}
	.st12{fill:none;stroke:#F6F6F8;stroke-width:2;stroke-miterlimit:10;}
	.st13{fill:none;stroke:#FFFFFF;stroke-miterlimit:10;}
	.st14{fill:#D37254;}
	.st15{fill:#73C073;}
	.st16{fill:#EFF0F4;stroke:#748A91;stroke-miterlimit:10;}
	.st17{fill:#EBF0F3;}
	.st18{fill:#FCD462;}
	.st19{fill:#44C4A1;}
	.st20{fill:#E8E8E8;}
	.st21{fill:none;stroke:#73C073;stroke-miterlimit:10;}
	.st22{fill:none;stroke:#73C073;stroke-miterlimit:10;stroke-dasharray:1.9806,1.9806;}</style>
  </defs>
  <path class="st1" d="M340.6,260H152.7V139c0-2.6,2.1-4.7,4.7-4.7h178.5c2.6,0,4.7,2.1,4.7,4.7V260z"/>
  <rect class="st2" x="161.3" y="147.3" width="170.6" height="102.6" style="fill: rgb(224, 244, 253);"/>
  <path class="st3" d="m351.3 271.1h-209.3c-3.4 0-6.2-2.8-6.2-6.2v-6.4h221.7v6.4c0 3.4-2.8 6.2-6.2 6.2z"/>
  <path class="st2" d="m105.3 174.8c-0.7 0-1.4 0.1-2.1 0.3-1-3.2-3.9-5.5-7.4-5.5-1.7 0-3.3 0.6-4.6 1.5-1.3-2.5-3.9-4.2-6.9-4.2-4.3 0-7.8 3.5-7.8 7.8-4.3 0-7.8 3.5-7.8 7.8s3.5 7.8 7.8 7.8h28.8c4.3 0 7.8-3.5 7.8-7.8s-3.5-7.7-7.8-7.7z" style="fill: rgb(224, 244, 253);"/>
  <path class="st3" d="m165.5 130.3h-29c-1.5 0-2.6-1.2-2.6-2.6v-41.7c0-1.5 1.2-2.6 2.6-2.6h29c1.5 0 2.6 1.2 2.6 2.6v41.7c0 1.4-1.1 2.6-2.6 2.6z"/>
  <rect class="st2" x="135.5" y="87.8" width="31" height="36.5" style="fill: rgb(224, 244, 253);"/>
  <path class="st1" d="m152.9 128.4h-3.9c-0.4 0-0.8-0.3-0.9-0.8-0.1-0.6 0.3-1.2 0.9-1.2h3.9c0.6 0 1.1 0.6 0.9 1.2 0 0.5-0.4 0.8-0.9 0.8z"/>
  <circle class="st4" cx="151" cy="78.9" r="2.1" style="fill: rgb(189, 221, 245);"/>
  <path class="st4" d="m154.6 75.8c-1-0.9-2.3-1.3-3.6-1.3s-2.6 0.5-3.6 1.3l-1.7-2c1.5-1.3 3.4-2 5.3-2 2 0 3.8 0.7 5.3 2l-1.7 2z" style="fill: rgb(189, 221, 245);"/>
  <path class="st4" d="m158.1 71.6c-2-1.7-4.5-2.6-7.1-2.6s-5.2 0.9-7.1 2.6l-1.7-2c2.5-2.1 5.6-3.3 8.9-3.3s6.4 1.2 8.9 3.3l-1.9 2z" style="fill: rgb(189, 221, 245);"/>
  <path class="st3" d="M 433.213 15.89 C 427.813 15.89 423.013 12.49 421.213 7.39 C 420.813 6.39 422.013 5.39 423.413 4.29 C 424.213 3.69 425.413 2.69 425.413 2.29 C 425.413 1.29 424.613 0.39 423.913 -0.51 C 422.913 -1.61 421.813 -2.91 422.913 -4.31 C 425.313 -7.71 429.213 -9.71 433.313 -9.71 C 440.313 -9.71 446.113 -4.01 446.113 3.09 C 446.013 10.19 440.313 15.89 433.213 15.89 Z M 433.213 -8.51 C 429.413 -8.51 425.913 -6.71 423.713 -3.61 C 423.213 -2.91 423.613 -2.41 424.713 -1.21 C 425.513 -0.21 426.513 0.89 426.513 2.29 C 426.513 3.29 425.413 4.09 424.113 5.19 C 423.513 5.69 422.213 6.69 422.213 7.09 C 423.913 11.69 428.313 14.79 433.213 14.79 C 439.613 14.79 444.913 9.59 444.913 3.09 C 444.913 -3.41 439.713 -8.51 433.213 -8.51 L 433.213 -8.51 Z"/>
  <rect class="st5" transform="matrix(-0.450211, -0.892922, 0.892922, -0.450211, 512.112976, 513.590027)" x="484.088" y="114.097" width="13.2" height="44.299" style="fill: rgb(0, 113, 189);"/>
  <rect class="st5" transform="matrix(-0.84623, -0.532819, 0.532819, -0.84623, 769.182983, 343.590027)" x="469.784" y="105.996" width="41.899" height="9.3" style="fill: rgb(0, 113, 189);"/>
  <rect class="st5" x="384.313" y="22.09" width="22.7" height="19" style="fill: rgb(0, 113, 189);"/>
  <circle class="st6" cx="433.313" cy="2.89" r="8.5" style="fill: rgb(251, 176, 65);"/>
  <circle class="st3" cx="433.313" cy="2.89" r="4.3"/>
  <circle class="st7" cx="433.313" cy="2.89" r="2.1"/>
  <circle class="st6" cx="389.513" cy="24.09" r="10.5" style="fill: rgb(251, 176, 65);"/>
  <circle class="st3" cx="389.513" cy="24.09" r="5.4"/>
  <circle class="st7" cx="389.513" cy="24.09" r="2.6"/>
  <rect class="st3" x="382.113" y="45.09" width="26.2" height="2.7"/>
  <rect class="st6" x="379.513" y="39.99" width="32.4" height="5.1" style="fill: rgb(251, 176, 65);"/>
  <polygon class="st3" points="386.713 -28.61 372.213 -21.71 372.513 -19.81 387.513 -23.81"/>
  <polygon class="st3" points="389.513 -12.61 373.513 -14.21 373.113 -16.11 388.613 -17.41"/>
  <path class="st6" d="M 390.613 -8.11 C 388.513 -18.91 387.813 -22.81 386.213 -31.31 C 392.613 -32.51 398.813 -28.31 400.013 -21.91 C 401.113 -15.51 397.013 -9.31 390.613 -8.11 L 390.613 -8.11 Z" style="fill: rgb(251, 176, 65);"/>
  <polygon class="st5" points="390.513 -9.41 389.113 -9.91 385.713 -28.61 386.613 -29.61"/>
  <circle class="st4" cx="84.605" cy="-13.64" r="2.6" style="fill: rgb(189, 221, 245);"/>
  <path class="st4" d="M 89.105 -17.54 C 87.905 -18.64 86.305 -19.24 84.605 -19.24 C 83.005 -19.24 81.405 -18.64 80.105 -17.54 L 77.905 -20.04 C 79.705 -21.64 82.105 -22.54 84.505 -22.54 C 86.905 -22.54 89.305 -21.64 91.105 -20.04 L 89.105 -17.54 Z" style="fill: rgb(189, 221, 245);"/>
  <path class="st4" d="M 93.505 -22.74 C 91.005 -24.84 87.905 -26.04 84.605 -26.04 C 81.305 -26.04 78.205 -24.84 75.705 -22.74 L 73.505 -25.24 C 76.605 -27.84 80.505 -29.34 84.605 -29.34 C 88.705 -29.34 92.605 -27.84 95.705 -25.24 L 93.505 -22.74 L 93.505 -22.74 Z" style="fill: rgb(189, 221, 245);"/>
  <path class="st3" d="M 61.905 24.66 L 55.905 24.66 C 55.105 24.66 54.405 25.36 54.405 26.16 L 54.405 37.06 C 54.405 37.86 55.105 38.56 55.905 38.56 L 61.905 38.56 C 62.705 38.56 63.405 37.86 63.405 37.06 L 63.405 26.16 C 63.405 25.36 62.705 24.66 61.905 24.66 Z"/>
  <path class="st3" d="M 112.905 24.66 L 106.905 24.66 C 106.105 24.66 105.405 25.36 105.405 26.16 L 105.405 37.06 C 105.405 37.86 106.105 38.56 106.905 38.56 L 112.905 38.56 C 113.705 38.56 114.405 37.86 114.405 37.06 L 114.405 26.16 C 114.405 25.36 113.705 24.66 112.905 24.66 Z"/>
  <path class="st5" d="M 116.305 27.06 L 116.305 19.56 C 116.305 13.56 111.905 10.06 109.305 8.56 L 110.205 7.56 C 110.605 7.96 111.205 8.16 112.105 8.16 C 114.205 8.16 115.905 7.06 115.905 5.76 C 115.905 4.46 114.205 3.36 112.105 3.36 C 110.205 3.36 109.705 4.26 109.705 5.36 C 109.505 6.36 108.905 7.26 108.305 7.86 C 108.005 7.76 107.805 7.56 107.605 7.56 C 104.505 0.36 99.405 -4.24 99.405 -4.24 C 84.505 -5.54 68.705 -4.24 68.705 -4.24 C 64.805 -1.64 62.205 4.46 61.105 7.56 L 60.505 7.86 C 59.905 7.26 59.205 6.36 59.105 5.36 C 59.005 4.26 58.505 3.36 56.705 3.36 C 54.605 3.36 52.905 4.46 52.905 5.76 C 52.905 7.06 54.605 8.16 56.705 8.16 C 57.705 8.16 58.305 7.96 58.605 7.56 L 59.505 8.56 C 56.905 10.16 52.505 13.66 52.505 19.56 L 52.505 27.06 C 52.505 27.06 52.105 32.06 59.505 32.06 L 109.405 32.06 C 116.805 32.16 116.305 27.06 116.305 27.06 L 116.305 27.06 Z" style="fill: rgb(0, 113, 189);"/>
  <path class="st8" d="M 63.505 6.56 C 64.705 3.76 66.705 -0.24 69.305 -2.14 C 70.905 -2.24 77.205 -2.74 84.905 -2.74 C 89.905 -2.74 94.605 -2.54 98.805 -2.24 C 99.805 -1.24 102.805 1.96 105.205 6.56 L 63.505 6.56 L 63.505 6.56 Z"/>
  <path class="st1" d="M 75.105 -2.54 L 84.205 6.56 L 94.105 6.56 L 84.805 -2.74 C 81.005 -2.74 77.705 -2.64 75.105 -2.54 L 75.105 -2.54 Z"/>
  <circle class="st6" cx="59.705" cy="18.26" r="3.5" style="fill: rgb(251, 176, 65);"/>
  <circle class="st6" cx="109.105" cy="18.26" r="3.5" style="fill: rgb(251, 176, 65);"/>
  <path class="st3" d="M 69.105 17.26 L 99.805 17.26 C 99.805 17.26 100.405 23.16 94.205 23.16 L 74.705 23.16 C 74.705 23.16 69.105 22.96 69.105 17.26 Z"/>
  <path class="st9" d="M 116.305 27.06 L 116.305 19.56 C 116.305 19.16 116.305 18.76 116.205 18.46 C 114.305 21.06 110.005 25.66 102.605 25.66 L 66.305 25.66 C 58.705 25.66 54.305 20.76 52.605 18.16 C 52.505 18.56 52.505 19.06 52.505 19.56 L 52.505 27.06 C 52.505 27.06 52.105 32.06 59.505 32.06 L 109.405 32.06 C 116.805 32.16 116.305 27.06 116.305 27.06 L 116.305 27.06 Z"/>
  <path class="st1" d="M 475.505 94.25 C 475.505 94.75 475.105 95.05 474.705 95.05 L 419.405 95.05 C 418.905 95.05 418.605 94.65 418.605 94.25 L 418.605 57.85 C 418.605 57.35 419.005 57.05 419.405 57.05 L 474.705 57.05 C 475.205 57.05 475.505 57.45 475.505 57.85 L 475.505 94.25 Z"/>
  <path class="st3" d="M 461.905 89.95 C 461.905 90.85 461.205 91.55 460.305 91.55 L 423.305 91.55 C 422.405 91.55 421.705 90.85 421.705 89.95 L 421.705 62.25 C 421.705 61.35 422.405 60.65 423.305 60.65 L 460.305 60.65 C 461.205 60.65 461.905 61.35 461.905 62.25 L 461.905 89.95 Z"/>
  <polygon class="st10" points="435.005 91.55 428.205 91.55 439.405 60.55 446.205 60.55"/>
  <polyline class="st10" points="443.505 79.15 439.005 91.55 436.705 91.55 447.905 60.55 450.205 60.55 443.505 79.15"/>
  <rect class="st5" x="459.005" y="59.75" width="3.1" height="32.5"/>
  <circle class="st3" cx="468.205" cy="76.05" r="3.9"/>
  <path class="st1" d="M 468.205 79.15 C 466.505 79.15 465.105 77.75 465.105 76.05 C 465.105 74.35 466.505 72.95 468.205 72.95 C 469.905 72.95 471.305 74.35 471.305 76.05 C 471.405 77.75 470.005 79.15 468.205 79.15 Z"/>
  <circle class="st6" cx="468.205" cy="76.05" r="2.9"/>
  <rect class="st1" x="468.105" y="73.15" width="0.3" height="0.8"/>
  <circle class="st3" cx="468.205" cy="85.35" r="3.9"/>
  <path class="st1" d="M 468.205 88.55 C 466.505 88.55 465.105 87.15 465.105 85.45 C 465.105 83.75 466.505 82.35 468.205 82.35 C 469.905 82.35 471.305 83.75 471.305 85.45 C 471.405 87.15 470.005 88.55 468.205 88.55 Z"/>
  <circle class="st6" cx="468.205" cy="85.35" r="2.9"/>
  <rect class="st1" x="468.105" y="82.55" width="0.3" height="0.8"/>
  <path class="st3" d="M 464.205 70.05 C 464.105 70.05 463.905 69.95 463.905 69.75 L 463.905 61.75 C 463.905 61.65 464.005 61.45 464.205 61.45 L 472.205 61.45 C 472.305 61.45 472.505 61.55 472.505 61.75 L 472.505 69.75 C 472.505 69.85 472.405 70.05 472.205 70.05 L 464.205 70.05 Z"/>
  <path class="st10" d="M 464.205 69.75 L 464.205 61.75 L 472.205 61.75 L 472.205 69.75 L 464.205 69.75 Z"/>
  <circle class="st4" cx="446.205" cy="50.65" r="2.2" style="fill: rgb(189, 221, 245);"/>
  <path class="st4" d="M 450.105 47.35 C 449.005 46.45 447.705 45.95 446.305 45.95 C 444.905 45.95 443.505 46.45 442.505 47.35 L 440.605 45.15 C 442.205 43.75 444.205 43.05 446.305 43.05 C 448.405 43.05 450.405 43.75 452.005 45.15 L 450.105 47.35 Z" style="fill: rgb(189, 221, 245);"/>
  <path class="st4" d="M 453.905 42.95 C 451.805 41.15 449.105 40.15 446.305 40.15 C 443.505 40.15 440.805 41.15 438.705 42.95 L 436.805 40.75 C 439.405 38.45 442.805 37.25 446.305 37.25 C 449.805 37.25 453.205 38.45 455.805 40.75 L 453.905 42.95 Z" style="fill: rgb(189, 221, 245);"/>
  <rect class="st1" transform="matrix(-0.2032, -0.9791, 0.9791, -0.2032, 209.880005, 685.369995)" x="363.5" y="254.6" width="40.6" height="5.4"/>
  <rect class="st1" transform="matrix(-0.9792, -0.2031, 0.2031, -0.9792, 770.169983, 593.859985)" x="412.9" y="237.1" width="5.4" height="40.6"/>
  <rect class="st5" x="368.8" y="272.8" width="61.8" height="13.2" style="fill: rgb(0, 113, 189);"/>
  <circle class="st6" cx="387.9" cy="279.4" r="2" style="fill: rgb(251, 176, 65);"/>
  <circle class="st6" cx="380.1" cy="279.4" r="2" style="fill: rgb(251, 176, 65);"/>
  <circle class="st6" cx="395.8" cy="279.4" r="2" style="fill: rgb(251, 176, 65);"/>
  <circle class="st6" cx="403.7" cy="279.4" r="2" style="fill: rgb(251, 176, 65);"/>
  <circle class="st6" cx="411.5" cy="279.4" r="2" style="fill: rgb(251, 176, 65);"/>
  <circle class="st6" cx="419.4" cy="279.4" r="2" style="fill: rgb(251, 176, 65);"/>
  <circle class="st4" cx="399.7" cy="260.1" r="2.6" style="fill: rgb(189, 221, 245);"/>
  <path class="st4" d="m404.2 256.2c-1.2-1.1-2.8-1.7-4.5-1.7-1.6 0-3.2 0.6-4.5 1.7l-2.2-2.5c1.8-1.6 4.2-2.5 6.6-2.5s4.8 0.9 6.6 2.5l-2 2.5z" style="fill: rgb(189, 221, 245);"/>
  <path class="st4" d="m408.6 251.1c-2.5-2.1-5.6-3.3-8.9-3.3s-6.4 1.2-8.9 3.3l-2.2-2.5c3.1-2.6 7-4.1 11.1-4.1s8 1.5 11.1 4.1l-2.2 2.5z" style="fill: rgb(189, 221, 245);"/>
  <rect class="st3" transform="matrix(-0.7071, -0.7071, 0.7071, -0.7071, 609.619995, 596.52002)" x="422.9" y="166.2" width="11" height="11.6"/>
  <polygon class="st1" points="375.4 166.1 376 162.7 391.2 165.8 400.9 156 403.3 158.4 392.3 169.4"/>
  <polygon class="st3" points="417.1 175.4 390.3 148.6 401.3 137.6 432.3 168.7"/>
  <polygon class="st4" points="421.8 176.8 391.9 147 405.8 133.1 440.9 168.3" style="fill: rgb(0, 113, 189);"/>
  <path class="st4" d="m375 175v-18.6c2.6 0 4.7 2.1 4.7 4.7v9.2c0 2.6-2.1 4.7-4.7 4.7z"/>
  <circle class="st4" cx="391.7" cy="167.6" r="4.8"/>
  <circle class="st11" cx="391.7" cy="167.6" r="2.3"/>
  <circle class="st4" cx="406.1" cy="126.4" r="2.3" style="fill: rgb(189, 221, 245);"/>
  <path class="st4" d="m410.1 122.9c-1.1-1-2.5-1.5-4-1.5s-2.9 0.5-4 1.5l-1.9-2.3c1.7-1.4 3.8-2.2 6-2.2s4.3 0.8 6 2.2l-2.1 2.3z" style="fill: rgb(189, 221, 245);"/>
  <path class="st4" d="m414 118.3c-2.2-1.9-5.1-2.9-8-2.9s-5.8 1-8 2.9l-1.9-2.3c2.8-2.4 6.3-3.7 9.9-3.7s7.2 1.3 9.9 3.7l-1.9 2.3z" style="fill: rgb(189, 221, 245);"/>
  <g transform="matrix(1, 0, 0, 1, -121.760002, -142.179993)">
    <circle class="st4" cx="511" cy="106.7" r="2.6" style="fill: rgb(189, 221, 245);"/>
    <path class="st4" d="m515.5 102.8c-1.2-1.1-2.8-1.7-4.5-1.7-1.6 0-3.2 0.6-4.5 1.7l-2.2-2.5c1.8-1.6 4.2-2.5 6.6-2.5s4.8 0.9 6.6 2.5l-2 2.5z" style="fill: rgb(189, 221, 245);"/>
    <path class="st4" d="m519.9 97.6c-2.5-2.1-5.6-3.3-8.9-3.3s-6.4 1.2-8.9 3.3l-2.2-2.5c3.1-2.6 7-4.1 11.1-4.1s8 1.5 11.1 4.1l-2.2 2.5z" style="fill: rgb(189, 221, 245);"/>
  </g>
  <rect class="st1" transform="matrix(-0.707107, -0.707107, 0.707107, -0.707107, 476.157013, 340.651001)" x="337.497" y="110.999" width="26.4" height="3.6"/>
  <rect class="st1" transform="matrix(-0.707107, 0.707107, -0.707107, -0.707107, 630.507019, -157.246002)" x="337.397" y="108.899" width="22.3" height="3.6"/>
  <path class="st6" d="M 317.157 15.351 L 310.357 22.151 C 309.657 22.851 308.457 22.851 307.757 22.151 L 294.557 8.951 C 293.857 8.251 293.857 7.051 294.557 6.351 L 301.357 -0.449 C 302.057 -1.149 303.257 -1.149 303.957 -0.449 L 317.157 12.751 C 317.857 13.451 317.857 14.651 317.157 15.351 Z" style="fill: rgb(251, 176, 65);"/>
  <rect class="st5" transform="matrix(-0.707107, 0.707107, -0.707107, -0.707107, 649.907043, -203.768997)" x="351.797" y="83.699" width="32.1" height="15.6" style="fill: rgb(0, 113, 189);"/>
  <rect class="st5" transform="matrix(-0.707107, 0.707107, -0.707107, -0.707107, 611.356995, -110.825996)" x="313.297" y="122.199" width="32.1" height="15.6" style="fill: rgb(0, 113, 189);"/>
  <path class="st3" d="M 325.857 18.351 C 322.457 17.451 318.657 18.251 316.057 20.951 C 313.357 23.651 312.557 27.351 313.457 30.751 L 325.857 18.351 L 325.857 18.351 Z"/>
  <circle class="st4" cx="300.557" cy="-7.449" r="2.6" style="fill: rgb(189, 221, 245);"/>
  <path class="st4" d="M 305.057 -11.349 C 303.857 -12.449 302.257 -13.049 300.557 -13.049 C 298.957 -13.049 297.357 -12.449 296.057 -11.349 L 293.857 -13.849 C 295.657 -15.449 298.057 -16.349 300.457 -16.349 C 302.857 -16.349 305.257 -15.449 307.057 -13.849 L 305.057 -11.349 L 305.057 -11.349 Z" style="fill: rgb(189, 221, 245);"/>
  <path class="st4" d="M 309.457 -16.549 C 306.957 -18.649 303.857 -19.849 300.557 -19.849 C 297.257 -19.849 294.157 -18.649 291.657 -16.549 L 289.457 -19.049 C 292.557 -21.649 296.457 -23.149 300.557 -23.149 C 304.657 -23.149 308.557 -21.649 311.657 -19.049 L 309.457 -16.549 L 309.457 -16.549 Z" style="fill: rgb(189, 221, 245);"/>
  <path class="st6" d="m77.2 109.5c-2.9-5.2-8.4-8.2-15.2-8.2s-12.3 3-15.2 8.2c-2.8 5-2.6 11.2 0.6 16.2 1.9 3.1 3.5 5 4.7 6.4 2.2 2.7 2.8 3.5 2.8 8.1h14.2c0-4.6 0.7-5.4 2.8-8.1 1.2-1.4 2.8-3.4 4.7-6.4 3.1-5 3.3-11.2 0.6-16.2z" style="fill: rgb(251, 176, 65);"/>
  <path class="st5" d="m67.3 117.8c-0.8-0.6-1.9-0.8-2.9-0.3-0.9 0.4-1.9 1.4-2.5 3-0.6-1.6-1.6-2.5-2.5-3-1-0.5-2.1-0.4-2.9 0.3-1 0.9-1.3 2.5-0.8 4.5 0.7 2.5 2.8 3.8 5 4.1v16.5h2.2v-16.5c2.2-0.3 4.4-1.6 5-4.1 0.8-2 0.5-3.6-0.6-4.5zm-6.4 6.8c-1.4-0.3-2.8-1.1-3.3-2.8-0.4-1.5-0.1-2.3 0.2-2.7 0.1-0.1 0.3-0.2 0.4-0.2 0.2 0 0.4 0.1 0.5 0.1 1 0.5 2.1 2.1 2.1 5.3v0.3h0.1zm5.5-2.8c-0.4 1.7-1.9 2.5-3.3 2.8v-0.1c0-3.2 1.1-4.9 2.1-5.3 0.1-0.1 0.3-0.1 0.5-0.1 0.1 0 0.3 0 0.4 0.2 0.4 0.2 0.7 1 0.3 2.5z"/>
  <path class="st3" d="m68.7 145.3c1.4 0 2.5-1.1 2.5-2.5s-1.1-2.5-2.5-2.5h-13.4c-1.4 0-2.5 1.1-2.5 2.5s1.1 2.5 2.5 2.5c-1.4 0-2.5 1.1-2.5 2.5s1.1 2.5 2.5 2.5v2.2c0 2.2 1.8 4.1 4.1 4.1h5.3c2.2 0 4.1-1.8 4.1-4.1v-2.2c1.4 0 2.5-1.1 2.5-2.5-0.1-1.4-1.2-2.5-2.6-2.5z"/>
  <line class="st13" x1="50.2" x2="77.4" y1="145" y2="145"/>
  <circle class="st4" cx="62" cy="94.9" r="2.6" style="fill: rgb(189, 221, 245);"/>
  <path class="st4" d="m66.5 91c-1.2-1.1-2.8-1.7-4.5-1.7-1.6 0-3.2 0.6-4.5 1.7l-2.2-2.5c1.8-1.6 4.2-2.5 6.6-2.5s4.8 0.9 6.6 2.5l-2 2.5z" style="fill: rgb(189, 221, 245);"/>
  <path class="st4" d="m70.9 85.9c-2.5-2.1-5.6-3.3-8.9-3.3s-6.4 1.2-8.9 3.3l-2.2-2.5c3.1-2.6 7-4.1 11.1-4.1s8 1.5 11.1 4.1l-2.2 2.5z" style="fill: rgb(189, 221, 245);"/>
  <circle class="st14" cx="196.38" cy="-20.03" r="7"/>
  <circle class="st15" cx="196.38" cy="6.97" r="7"/>
  <circle class="st6" cx="196.38" cy="-6.53" r="7"/>
  <path class="st1" d="M 177.58 1.57 C 176.58 1.57 175.88 2.47 176.08 3.47 C 176.88 7.37 180.28 10.57 184.78 11.87 L 184.78 14.37 C 184.78 15.77 185.88 16.87 187.28 16.87 L 204.38 16.87 C 205.78 16.87 206.88 15.77 206.88 14.37 L 206.88 11.87 C 211.38 10.57 214.68 7.37 215.48 3.47 C 215.68 2.47 214.98 1.57 213.98 1.57 L 206.88 1.57 L 206.88 -1.63 C 211.38 -2.93 214.68 -6.13 215.48 -10.03 C 215.68 -11.03 214.98 -11.93 213.98 -11.93 L 206.88 -11.93 L 206.88 -15.13 C 211.38 -16.43 214.68 -19.63 215.48 -23.53 C 215.68 -24.53 214.98 -25.43 213.98 -25.43 L 206.88 -25.43 L 206.88 -28.23 C 206.88 -29.63 205.78 -30.73 204.38 -30.73 L 187.28 -30.73 C 185.88 -30.73 184.78 -29.63 184.78 -28.23 L 184.78 -25.53 L 177.58 -25.53 C 176.58 -25.53 175.88 -24.63 176.08 -23.63 C 176.88 -19.73 180.28 -16.53 184.78 -15.23 L 184.78 -12.03 L 177.58 -12.03 C 176.58 -12.03 175.88 -11.13 176.08 -10.13 C 176.88 -6.23 180.28 -3.03 184.78 -1.73 L 184.78 1.47 L 177.58 1.57 L 177.58 1.57 Z M 195.88 -24.73 C 198.48 -24.73 200.68 -22.63 200.68 -19.93 C 200.68 -17.23 198.58 -15.13 195.88 -15.13 C 193.28 -15.13 191.08 -17.23 191.08 -19.93 C 191.08 -22.63 193.18 -24.73 195.88 -24.73 Z M 195.88 -11.23 C 198.48 -11.23 200.68 -9.13 200.68 -6.43 C 200.68 -3.73 198.58 -1.63 195.88 -1.63 C 193.28 -1.63 191.08 -3.73 191.08 -6.43 C 191.08 -9.13 193.18 -11.23 195.88 -11.23 Z M 195.88 2.27 C 198.48 2.27 200.68 4.37 200.68 7.07 C 200.68 9.77 198.58 11.87 195.88 11.87 C 193.28 11.87 191.08 9.77 191.08 7.07 C 191.08 4.37 193.18 2.27 195.88 2.27 Z"/>
  <path class="st3" d="M 177.68 1.57 C 176.68 1.57 175.98 2.47 176.18 3.47 C 176.98 7.37 180.38 10.57 184.88 11.87 L 184.88 14.37 C 184.88 15.77 185.98 16.87 187.38 16.87 L 204.48 16.87 C 205.88 16.87 206.98 15.77 206.98 14.37 L 206.98 11.87 C 211.48 10.57 214.78 7.37 215.58 3.47 C 215.78 2.47 215.08 1.57 214.08 1.57 L 206.98 1.57 L 206.98 -1.63 C 211.48 -2.93 214.78 -6.13 215.58 -10.03 C 215.78 -11.03 215.08 -11.93 214.08 -11.93 L 206.98 -11.93 L 206.98 -15.13 C 211.48 -16.43 214.78 -19.63 215.58 -23.53 C 215.78 -24.53 215.08 -25.43 214.08 -25.43 L 206.98 -25.43 L 206.98 -28.23 C 206.98 -29.63 205.88 -30.73 204.48 -30.73 L 187.38 -30.73 C 185.98 -30.73 184.88 -29.63 184.88 -28.23 L 184.88 -25.53 L 177.68 -25.53 C 176.68 -25.53 175.98 -24.63 176.18 -23.63 C 176.98 -19.73 180.38 -16.53 184.88 -15.23 L 184.88 -12.03 L 177.68 -12.03 C 176.68 -12.03 175.98 -11.13 176.18 -10.13 C 176.98 -6.23 180.38 -3.03 184.88 -1.73 L 184.88 1.47 L 177.68 1.57 L 177.68 1.57 Z M 195.88 -24.73 C 198.48 -24.73 200.68 -22.63 200.68 -19.93 C 200.68 -17.23 198.58 -15.13 195.88 -15.13 C 193.28 -15.13 191.08 -17.23 191.08 -19.93 C 191.08 -22.63 193.18 -24.73 195.88 -24.73 Z M 195.88 -11.23 C 198.48 -11.23 200.68 -9.13 200.68 -6.43 C 200.68 -3.73 198.58 -1.63 195.88 -1.63 C 193.28 -1.63 191.08 -3.73 191.08 -6.43 C 191.08 -9.13 193.18 -11.23 195.88 -11.23 Z M 195.88 2.27 C 198.48 2.27 200.68 4.37 200.68 7.07 C 200.68 9.77 198.58 11.87 195.88 11.87 C 193.28 11.87 191.08 9.77 191.08 7.07 C 191.08 4.37 193.18 2.27 195.88 2.27 Z"/>
  <circle class="st4" cx="195.78" cy="-37.93" r="2.6" style="fill: rgb(189, 221, 245);"/>
  <path class="st4" d="M 200.28 -41.83 C 199.08 -42.93 197.48 -43.53 195.78 -43.53 C 194.18 -43.53 192.58 -42.93 191.28 -41.83 L 189.08 -44.33 C 190.88 -45.93 193.28 -46.83 195.68 -46.83 C 198.08 -46.83 200.48 -45.93 202.28 -44.33 L 200.28 -41.83 Z" style="fill: rgb(189, 221, 245);"/>
  <path class="st4" d="M 204.68 -47.03 C 202.18 -49.13 199.08 -50.33 195.78 -50.33 C 192.48 -50.33 189.38 -49.13 186.88 -47.03 L 184.68 -49.53 C 187.78 -52.13 191.68 -53.63 195.78 -53.63 C 199.88 -53.63 203.78 -52.13 206.88 -49.53 L 204.68 -47.03 Z" style="fill: rgb(189, 221, 245);"/>
  <path class="st1" d="m124.8 277.1h-27.2c-1.1 0-2-0.9-2-2v-27.2c0-1.1 0.9-2 2-2h27.2c1.1 0 2 0.9 2 2v27.2c0.1 1.1-0.8 2-2 2z"/>
  <rect class="st2" x="99.5" y="249.7" width="23.5" height="23.5"/>
  <path class="st5" d="m122.2 284.7h-21.9c-0.4 0-0.8-0.4-0.8-0.8v-6.7h23.5v6.7c0 0.4-0.4 0.8-0.8 0.8z"/>
  <path class="st5" d="m123 245.8h-23.5v-6.7c0-0.4 0.4-0.8 0.8-0.8h21.9c0.4 0 0.8 0.4 0.8 0.8v6.7z"/>
  <circle class="st4" cx="111.2" cy="261.5" r="8.5"/>
  <polygon class="st6" points="116.6 261.5 108.5 256.8 108.5 266.2"/>
  <circle class="st4" cx="111.2" cy="233" r="2.6" style="fill: rgb(189, 221, 245);"/>
  <path class="st4" d="m115.7 229.1c-1.2-1.1-2.8-1.7-4.5-1.7-1.6 0-3.2 0.6-4.5 1.7l-2.2-2.5c1.8-1.6 4.2-2.5 6.6-2.5s4.8 0.9 6.6 2.5l-2 2.5z" style="fill: rgb(189, 221, 245);"/>
  <path class="st4" d="m120.1 223.9c-2.5-2.1-5.6-3.3-8.9-3.3s-6.4 1.2-8.9 3.3l-2.2-2.5c3.1-2.6 7-4.1 11.1-4.1s8 1.5 11.1 4.1l-2.2 2.5z" style="fill: rgb(189, 221, 245);"/>
  <path class="st2" d="m252.1 78.5c-0.8 0-1.5 0.1-2.2 0.3-1-3.3-4.1-5.7-7.8-5.7-1.8 0-3.5 0.6-4.8 1.6-1.4-2.6-4.1-4.3-7.2-4.3-4.5 0-8.1 3.6-8.1 8.1-4.5 0-8.1 3.6-8.1 8.1s3.6 8.1 8.1 8.1h30.1c4.5 0 8.1-3.6 8.1-8.1s-3.7-8.1-8.1-8.1z" style="fill: rgb(224, 244, 253);"/>
  <path class="st2" d="m309.07 56.671c0.8 0 1.6 0.1 2.3 0.3 1.1-3.6 4.5-6.2 8.4-6.2 2 0 3.8 0.7 5.2 1.7 1.5-2.8 4.4-4.7 7.8-4.7 4.9 0 8.8 3.9 8.8 8.8 4.9 0 8.8 3.9 8.8 8.8s-3.9 8.8-8.8 8.8h-32.6c-4.9 0-8.8-3.9-8.8-8.8s4.1-8.7 8.9-8.7z" style="fill: rgb(224, 244, 253);"/>
  <path class="st16" d="m123.8 143.7h69.8c1 0 1.8 0.8 1.8 1.8v56.1c0 1-0.8 1.8-1.8 1.8h-69.8c-1 0-1.8-0.8-1.8-1.8v-56.1c0-1 0.8-1.8 1.8-1.8z"/>
  <path class="st3" d="m123.8 143.7h69.8c1 0 1.8 0.8 1.8 1.8v10.4h-73.4v-10.4c0-1 0.8-1.8 1.8-1.8z"/>
  <rect class="st17" x="146.6" y="147.8" width="45.9" height="4"/>
  <path class="st18" d="m142.8 149.8c0 1.1-0.9 2-2 2s-2-0.9-2-2 0.9-2 2-2 2 0.9 2 2z"/>
  <path class="st19" d="m135.6 149.8c0 1.1-0.9 2-2 2s-2-0.9-2-2 0.9-2 2-2 2 0.9 2 2z"/>
  <path class="st14" d="m128.5 149.8c0 1.1-0.9 2-2 2s-2-0.9-2-2 0.9-2 2-2 2 0.9 2 2z"/>
  <rect class="st3" x="124.5" y="161.2" width="7.1" height="2.1"/>
  <rect class="st3" x="124.5" y="166.6" width="7.1" height="2.1"/>
  <rect class="st3" x="171.9" y="166.6" width="7.1" height="2.1"/>
  <rect class="st3" x="124.5" y="171.9" width="7.1" height="2.1"/>
  <rect class="st5" x="162.7" y="171.9" width="7.1" height="2.1"/>
  <path class="st15" d="m179.1 173.5c0.2-0.1 0.5-0.2 0.7-0.3l0.3-1.3h-1v1.6z"/>
  <rect class="st3" x="124.5" y="177.3" width="7.1" height="2.1"/>
  <rect class="st3" x="124.5" y="182.7" width="7.1" height="2.1"/>
  <rect class="st3" x="124.5" y="188.1" width="7.1" height="2.1"/>
  <rect class="st3" x="124.5" y="193.4" width="7.1" height="2.1"/>
  <path class="st14" d="m162.7 195.6h3.6c-0.1-0.7-0.1-1.4-0.1-2.1h-3.5v2.1z"/>
  <rect class="st5" x="135.5" y="161.2" width="7.1" height="2.1"/>
  <rect class="st3" x="150.2" y="161.2" width="7.1" height="2.1"/>
  <rect class="st15" x="164.8" y="161.2" width="7.1" height="2.1"/>
  <rect class="st15" x="142.7" y="166.6" width="18.6" height="2.1"/>
  <rect class="st3" x="135.5" y="171.9" width="20.7" height="2.1"/>
  <rect class="st15" x="142.3" y="177.3" width="7.1" height="2.1"/>
  <rect class="st5" x="135.5" y="182.7" width="7.1" height="2.1"/>
  <rect class="st3" x="150.2" y="182.7" width="7.1" height="2.1"/>
  <rect class="st3" x="135.5" y="188.1" width="7.1" height="2.1"/>
  <path class="st4" d="m150.2 190.2h16.2c0-0.1 0-0.3 0.1-0.4l-1.4-1.2c-0.2-0.1-0.3-0.3-0.4-0.4h-14.4v2h-0.1z"/>
  <rect class="st6" x="135.5" y="193.4" width="20.7" height="2.1"/>
  <path class="st15" d="m179.1 173.5v0.6h7.1v-2.1h-6.2l-0.3 1.3c-0.2 0-0.4 0.1-0.6 0.2z"/>
  <path class="st14" d="m169.8 195.6v-2.1h-3.7c0 0.7 0.1 1.4 0.1 2.1h3.6z"/>
  <rect class="st5" x="180.2" y="193.4" width="7.1" height="2.1"/>
  <path class="st6" d="m167.4 177.3h-11.2v2.1h9.8l0.9-1.5c0.2-0.2 0.4-0.4 0.5-0.6z"/>
  <path class="st6" d="m167.4 177.3c-0.2 0.2-0.3 0.4-0.5 0.6l-0.9 1.5h11.6v-2.1h-10.2z"/>
  <rect class="st15" x="164.8" y="182.7" width="21.4" height="2.1"/>
  <rect class="st14" x="182.6" y="188.1" width="7.1" height="2.1"/>
  <path class="st4" d="m166.4 189.8c0 0.1 0 0.3-0.1 0.4h7.5v-2.1h-9.3c0.1 0.2 0.3 0.3 0.4 0.4l1.5 1.3z"/>
  <path class="st5" d="m280.8 200.4c-1.8 0-3.5 0.3-5.1 0.7-2.4-7.7-9.6-13.3-18.2-13.3-4.2 0-8.1 1.4-11.3 3.8-3.2-6-9.5-10.1-16.8-10.1-10.5 0-19 8.5-19 19-10.5 0-19 8.5-19 19s8.5 19 19 19h70.4c10.5 0 19-8.5 19-19s-8.5-19.1-19-19.1z" style="fill: rgb(0, 113, 189);"/>
  <path class="st20" d="m223.1 227.6v-24.9h2.9v24.9h-2.9z"/>
  <path class="st20" d="m248.6 218.2c0 3-0.8 5.4-2.3 7.1s-3.7 2.6-6.4 2.6c-1.7 0-3.2-0.4-4.5-1.2s-2.3-1.9-3-3.4-1.1-3.2-1.1-5.2c0-3 0.8-5.4 2.3-7.1s3.6-2.6 6.3-2.6c2.6 0 4.7 0.9 6.2 2.6 1.7 1.9 2.5 4.3 2.5 7.2zm-14.3 0c0 2.4 0.5 4.2 1.4 5.5 1 1.3 2.4 1.9 4.2 1.9 1.9 0 3.3-0.6 4.2-1.9 1-1.2 1.4-3.1 1.4-5.5s-0.5-4.2-1.4-5.4c-1-1.2-2.4-1.9-4.3-1.9s-3.3 0.6-4.2 1.8c-0.8 1.3-1.3 3.1-1.3 5.5z"/>
  <path class="st20" d="m261.7 227.6h-2.9v-22.4h-7.9v-2.6h18.7v2.6h-7.9v22.4z"/>
  <path class="st16" d="m292.7 159.9h69.8c1 0 1.8 0.8 1.8 1.8v56.1c0 1-0.8 1.8-1.8 1.8h-69.8c-1 0-1.8-0.8-1.8-1.8v-56.1c0.1-1 0.9-1.8 1.8-1.8z"/>
  <path class="st3" d="m292.7 159.9h69.8c1 0 1.8 0.8 1.8 1.8v10.4h-73.3v-10.4c0-1 0.8-1.8 1.7-1.8z"/>
  <rect class="st17" x="315.5" y="164" width="45.9" height="4"/>
  <path class="st18" d="m311.8 166c0 1.1-0.9 2-2 2s-2-0.9-2-2 0.9-2 2-2 2 0.9 2 2z"/>
  <path class="st19" d="m304.6 166c0 1.1-0.9 2-2 2s-2-0.9-2-2 0.9-2 2-2 2 0.9 2 2z"/>
  <path class="st14" d="m297.5 166c0 1.1-0.9 2-2 2s-2-0.9-2-2 0.9-2 2-2c1 0 2 0.9 2 2z"/>
  <rect class="st1" x="319.6" y="186" width="1.4" height="2.9"/>
  <path class="st1" d="m326.6 201.5h-13.5v3.1h1.4v-1.8h12.2v1.8h1.4v-1.8h12.2v1.8h1.4v-3.1h-13.7v-4.1h-1.4v4.1z"/>
  <rect class="st1" x="340.2" y="186" width="1.4" height="2.9"/>
  <path class="st6" d="m345.1 186c0.4 0 0.8-0.4 0.8-0.8v-6.9c0-0.4-0.4-0.8-0.8-0.8h-35.5c-0.4 0-0.8 0.4-0.8 0.8v6.9c0 0.4 0.4 0.8 0.8 0.8h35.5z"/>
  <path class="st3" d="m336.6 188.9c-0.4 0-0.8 0.4-0.8 0.8v6.9c0 0.4 0.4 0.8 0.8 0.8h8.4c0.4 0 0.8-0.4 0.8-0.8v-6.9c0-0.4-0.4-0.8-0.8-0.8h-8.4z"/>
  <path class="st15" d="m309.5 188.9c-0.4 0-0.8 0.4-0.8 0.8v6.9c0 0.4 0.4 0.8 0.8 0.8h22.5c0.4 0 0.8-0.4 0.8-0.8v-6.9c0-0.4-0.4-0.8-0.8-0.8h-22.5z"/>
  <path class="st6" d="m309.7 204.6c-0.5 0-0.9 0.4-0.9 0.9v8.2c0 0.5 0.4 0.9 0.9 0.9h8.2c0.5 0 0.9-0.4 0.9-0.9v-8.2c0-0.5-0.4-0.9-0.9-0.9h-8.2z"/>
  <path class="st5" d="m323.2 204.6c-0.5 0-0.9 0.4-0.9 0.9v8.2c0 0.5 0.4 0.9 0.9 0.9h8.2c0.5 0 0.9-0.4 0.9-0.9v-8.2c0-0.5-0.4-0.9-0.9-0.9h-8.2z"/>
  <path class="st14" d="m336.8 204.6c-0.5 0-0.9 0.4-0.9 0.9v8.2c0 0.5 0.4 0.9 0.9 0.9h8.2c0.5 0 0.9-0.4 0.9-0.9v-8.2c0-0.5-0.4-0.9-0.9-0.9h-8.2z"/>
  <line class="st21" x1="131.6" x2="132.6" y1="261.5" y2="261.5"/>
  <line class="st21" x1="185.2" x2="186.2" y1="221" y2="221"/>
  <path style="fill: none; stroke: rgb(115, 192, 115); stroke-dasharray: 2px;" d="M 207.135 75.95 L 207.175 43.116 L 90.585 43.251"/>
  <path style="fill: none; stroke: rgb(115, 192, 115); stroke-dasharray: 2px;" d="M 309.076 123.206 L 309.428 87.582 L 402.481 86.677"/>
  <path style="fill: none; stroke: rgb(115, 192, 115); stroke-dasharray: 2px;" d="M 139.943 215.331 L 58.242 214.816 L 58.656 176.485"/>
  <path style="fill: none; stroke-dasharray: 2px; stroke: rgb(115, 192, 115);" d="M 345.065 228.871 L 425.419 229.151 L 425.723 187.438"/>
</svg>