<?xml version="1.0" encoding="utf-8"?>
<svg width="368.88672pt" height="261.33984pt" viewBox="0 0 368.88672 261.33985" version="1.1" id="svg1223" xmlns="http://www.w3.org/2000/svg">
  <defs id="defs830">
    <clipPath id="clip2">
      <path d="m 397,276 h 9 v 7 h -9 z m 0,0" id="path824"/>
    </clipPath>
    <clipPath id="clip3">
      <path d="m 405.10547,282.32031 h -4.61328 c 0.96875,-0.52734 1.625,-1.55469 1.625,-2.73047 0,-1.71484 -1.39063,-3.10937 -3.10547,-3.10937 -0.48828,0 -0.94922,0.11328 -1.35938,0.3125 l 0.0859,-0.72656 h 8.08594 l -0.71875,6.2539 m -7.57422,0 h -0.51172 L 397.05469,282 c 0.14843,0.12109 0.30859,0.23047 0.47656,0.32031" id="path827"/>
    </clipPath>
  </defs>
  <path style="fill:#576178;fill-opacity:1;fill-rule:nonzero;stroke:none" d="M 287.61699,250.26171 H 116.65606 c -2.66797,0 -4.85157,-2.18359 -4.85157,-4.84765 V 133.92578 c 0,-2.66797 2.1836,-4.85157 4.85157,-4.85157 h 170.96093 c 2.66797,0 4.84766,2.1836 4.84766,4.85157 v 111.48828 c 0,2.66406 -2.17969,4.84765 -4.84766,4.84765" id="path832"/>
  <path style="fill:#425463;fill-opacity:1;fill-rule:nonzero;stroke:none" d="m 116.65606,130.07421 c -2.125,0 -3.85157,1.72657 -3.85157,3.85157 v 111.48828 c 0,2.12109 1.72657,3.84765 3.85157,3.84765 h 170.96093 c 2.1211,0 3.84766,-1.72656 3.84766,-3.84765 V 133.92578 c 0,-2.125 -1.72656,-3.85157 -3.84766,-3.85157 H 116.65606 m 170.96093,121.1875 H 116.65606 c -3.22657,0 -5.85157,-2.62109 -5.85157,-5.84765 V 133.92578 c 0,-3.22657 2.625,-5.85157 5.85157,-5.85157 h 170.96093 c 3.22266,0 5.84766,2.625 5.84766,5.85157 v 111.48828 c 0,3.22656 -2.625,5.84765 -5.84766,5.84765" id="path834"/>
  <path style="fill:#6e788f;fill-opacity:1;fill-rule:nonzero;stroke:none" d="M 287.61699,129.07421 H 116.65606 c -2.66797,0 -4.85157,2.1836 -4.85157,4.85157 v 2.0664 c 0,-2.62109 2.1836,-4.76562 4.85157,-4.76562 h 170.96093 c 2.66797,0 4.84766,2.14453 4.84766,4.76562 v -2.0664 c 0,-2.66797 -2.17969,-4.85157 -4.84766,-4.85157" id="path836"/>
  <path style="fill-rule: nonzero; stroke: none; fill: rgb(72, 150, 216);" d="M 282.5584,241.03906 H 121.71465 c -2.66797,0 -4.85156,-2.01563 -4.85156,-4.48438 v -96.90234 c 0,-2.46875 2.18359,-4.48828 4.85156,-4.48828 H 282.5584 c 2.66406,0 4.84766,2.01953 4.84766,4.48828 v 96.90234 c 0,2.46875 -2.1836,4.48438 -4.84766,4.48438" id="path838"/>
  <path style="fill:#f3bdc2;fill-opacity:1;fill-rule:nonzero;stroke:none" d="m 174.65996,170.26171 h 54.94922 v -15.43359 h -54.94922 z m 0,0" id="path840"/>
  <path style="fill:#f3bdc2;fill-opacity:1;fill-rule:nonzero;stroke:none" d="m 156.8709,197.38281 h -32.16797 v -15.42969 h 32.16797 v 15.42969" id="path842"/>
  <path style="fill:#f3bdc2;fill-opacity:1;fill-rule:nonzero;stroke:none" d="m 186.05059,197.38281 h 32.16797 v -15.42969 h -32.16797 z m 0,0" id="path844"/>
  <path style="fill:#f3bdc2;fill-opacity:1;fill-rule:nonzero;stroke:none" d="m 278.71856,196.94531 h -32.16797 v -15.4336 h 32.16797 v 15.4336" id="path846"/>
  <path style="fill:#f3bdc2;fill-opacity:1;fill-rule:nonzero;stroke:none" d="m 203.17559,180.34375 h -0.6836 v -7.75782 h 0.6836 v 7.75782" id="path848"/>
  <path style="fill:#f3bdc2;fill-opacity:1;fill-rule:nonzero;stroke:none" d="m 202.83574,177.00781 h 2.26954 l -1.13672,1.96875 -1.13282,1.96484 -1.13671,-1.96484 -1.13672,-1.96875 h 2.27343" id="path850"/>
  <path style="fill:#f3bdc2;fill-opacity:1;fill-rule:nonzero;stroke:none" d="m 202.49199,207.16406 h 0.6836 v -7.75781 h -0.6836 z m 0,0" id="path852"/>
  <path style="fill:#f3bdc2;fill-opacity:1;fill-rule:nonzero;stroke:none" d="m 202.83574,203.82812 h 2.26954 l -1.13672,1.96484 -1.13282,1.96875 -1.13671,-1.96875 -1.13672,-1.96484 h 2.27343" id="path854"/>
  <path style="fill:#f3bdc2;fill-opacity:1;fill-rule:nonzero;stroke:none" d="m 135.87871,207.16406 h -0.6875 v -7.75781 h 0.6875 v 7.75781" id="path856"/>
  <path style="fill:#f3bdc2;fill-opacity:1;fill-rule:nonzero;stroke:none" d="m 135.53496,203.82812 h 2.26953 l -1.13281,1.96484 -1.13672,1.96875 -1.13672,-1.96875 -1.13281,-1.96484 h 2.26953" id="path858"/>
  <path style="fill:#f3bdc2;fill-opacity:1;fill-rule:nonzero;stroke:none" d="m 160.45293,205.87109 -0.48437,0.48437 -5.48828,-5.48437 0.48437,-0.48438 5.48828,5.48438" id="path860"/>
  <path style="fill:#f3bdc2;fill-opacity:1;fill-rule:nonzero;stroke:none" d="m 157.85137,203.7539 1.60547,-1.60547 0.58984,2.19532 0.58594,2.1914 -2.19531,-0.58594 -2.19141,-0.58984 1.60547,-1.60547" id="path862"/>
  <path style="fill:#f3bdc2;fill-opacity:1;fill-rule:nonzero;stroke:none" d="m 268.08965,207.16406 h 0.68359 v -7.75781 h -0.68359 v 7.75781" id="path864"/>
  <path style="fill:#f3bdc2;fill-opacity:1;fill-rule:nonzero;stroke:none" d="m 268.4334,203.82812 h -2.27344 l 1.13672,1.96484 1.13672,1.96875 1.13281,-1.96875 1.13672,-1.96484 h -2.26953" id="path866"/>
  <path style="fill:#f3bdc2;fill-opacity:1;fill-rule:nonzero;stroke:none" d="m 243.51543,205.87109 0.48438,0.48437 5.48437,-5.48437 -0.48437,-0.48438 -5.48438,5.48438" id="path868"/>
  <path style="fill:#f3bdc2;fill-opacity:1;fill-rule:nonzero;stroke:none" d="m 246.11699,203.7539 -1.60937,-1.60547 -0.58594,2.19532 -0.58594,2.1914 2.19141,-0.58594 2.19141,-0.58984 -1.60157,-1.60547" id="path870"/>
  <path style="fill:#f3bdc2;fill-opacity:1;fill-rule:nonzero;stroke:none" d="m 175.64043,190.01171 h -7.75781 v -0.68359 h 7.75781 v 0.68359" id="path872"/>
  <path style="fill:#f3bdc2;fill-opacity:1;fill-rule:nonzero;stroke:none" d="m 171.21465,189.66796 v 2.27344 l -3.92969,-2.27344 1.96485,-1.13281 1.96484,-1.13672 v 2.26953" id="path874"/>
  <path style="fill:#f3bdc2;fill-opacity:1;fill-rule:nonzero;stroke:none" d="m 228.89434,190.01171 h 7.75781 v -0.68359 h -7.75781 z m 0,0" id="path876"/>
  <path style="fill:#f3bdc2;fill-opacity:1;fill-rule:nonzero;stroke:none" d="m 233.31621,189.66796 v 2.27344 l 1.96875,-1.13672 1.96485,-1.13672 -1.96485,-1.13281 -1.96875,-1.13672 v 2.26953" id="path878"/>
  <path style="fill:#f3bdc2;fill-opacity:1;fill-rule:nonzero;stroke:none" d="m 145.92559,220.39062 c 0,5.85938 -4.75,10.60938 -10.61328,10.60938 -5.85938,0 -10.60938,-4.75 -10.60938,-10.60938 0,-5.85937 4.75,-10.60937 10.60938,-10.60937 5.86328,0 10.61328,4.75 10.61328,10.60937" id="path880"/>
  <path style="fill:#f3bdc2;fill-opacity:1;fill-rule:nonzero;stroke:none" d="m 179.02715,219.95312 c 0,5.85938 -4.75,10.60938 -10.60937,10.60938 -5.86329,0 -10.61329,-4.75 -10.61329,-10.60938 0,-5.86328 4.75,-10.61328 10.61329,-10.61328 5.85937,0 10.60937,4.75 10.60937,10.61328" id="path882"/>
  <path style="fill:#f3bdc2;fill-opacity:1;fill-rule:nonzero;stroke:none" d="m 212.57012,219.95312 c 0,5.85938 -4.75,10.60938 -10.60938,10.60938 -5.86328,0 -10.61328,-4.75 -10.61328,-10.60938 0,-5.86328 4.75,-10.61328 10.61328,-10.61328 5.85938,0 10.60938,4.75 10.60938,10.61328" id="path884"/>
  <path style="fill:#f3bdc2;fill-opacity:1;fill-rule:nonzero;stroke:none" d="m 246.11309,219.95312 c 0,5.85938 -4.75,10.60938 -10.60938,10.60938 -5.85937,0 -10.61328,-4.75 -10.61328,-10.60938 0,-5.86328 4.75391,-10.61328 10.61328,-10.61328 5.85938,0 10.60938,4.75 10.60938,10.61328" id="path886"/>
  <path style="fill:#f3bdc2;fill-opacity:1;fill-rule:nonzero;stroke:none" d="m 278.28887,219.95312 c 0,5.85938 -4.75,10.60938 -10.61328,10.60938 -5.85938,0 -10.60938,-4.75 -10.60938,-10.60938 0,-5.86328 4.75,-10.61328 10.60938,-10.61328 5.86328,0 10.61328,4.75 10.61328,10.61328" id="path888"/>
  <path style="fill:#ffffff;fill-opacity:1;fill-rule:nonzero;stroke:none" d="M 294.59356,259.74609 H 109.67949 c -4.15625,0 -7.52734,-3.36719 -7.52734,-7.52344 0,-0.94531 0.76563,-1.71094 1.71094,-1.71094 h 196.54297 c 0.94531,0 1.71093,0.76563 1.71093,1.71094 0,4.15625 -3.36718,7.52344 -7.52343,7.52344" id="path890"/>
  <path style="fill:#425463;fill-opacity:1;fill-rule:nonzero;stroke:none" d="m 103.86309,251.51171 c -0.39063,0 -0.71094,0.31641 -0.71094,0.71094 0,3.59766 2.92969,6.52344 6.52734,6.52344 h 184.91407 c 3.59765,0 6.52343,-2.92578 6.52343,-6.52344 0,-0.39453 -0.32031,-0.71094 -0.71093,-0.71094 H 103.86309 m 190.73047,9.23438 H 109.67949 c -4.70312,0 -8.52734,-3.82422 -8.52734,-8.52344 0,-1.49609 1.21875,-2.71094 2.71094,-2.71094 h 196.54297 c 1.49609,0 2.71093,1.21485 2.71093,2.71094 0,4.69922 -3.82421,8.52344 -8.52343,8.52344" id="path892"/>
  <path style="fill:#576178;fill-opacity:1;fill-rule:nonzero;stroke:none" d="M 255.53106,250.51171 H 148.74199 v -3.27343 c 0,-1.66016 1.33985,-3 3,-3 h 100.78907 c 1.65625,0 3,1.33984 3,3 v 3.27343" id="path894"/>
  <path style="fill:#425463;fill-opacity:1;fill-rule:nonzero;stroke:none" d="m 149.74199,249.51171 h 104.78907 v -2.27343 c 0,-1.10547 -0.89844,-2 -2,-2 H 151.74199 c -1.10546,0 -2,0.89453 -2,2 v 2.27343 m 106.78907,2 H 147.74199 v -4.27343 c 0,-2.20703 1.79297,-4 4,-4 h 100.78907 c 2.20703,0 4,1.79297 4,4 v 4.27343" id="path896"/>
  <path style="fill:#8a94a6;fill-opacity:1;fill-rule:nonzero;stroke:none" d="m 238.01153,131.22656 h -15.51954 l 0.52344,-1.53906 h 15.51563 l -0.51953,1.53906" id="path900"/>
  <path style="fill:#f5cacf;fill-opacity:1;fill-rule:nonzero;stroke:none" d="m 203.17559,203.82812 h -0.6836 v -4.42187 h 0.6836 v 4.42187" id="path908"/>
  <path style="fill:#f5cacf;fill-opacity:1;fill-rule:nonzero;stroke:none" d="m 202.83574,207.76171 -1.13671,-1.96875 -1.13672,-1.96484 h 4.54297 l -1.13672,1.96484 -1.13282,1.96875" id="path910"/>
  <path style="fill:#f5cacf;fill-opacity:1;fill-rule:nonzero;stroke:none" d="m 201.96074,230.5625 c -5.0039,0 -9.19921,-3.46485 -10.32031,-8.125 l 3.62891,-10.72266 c 1.82422,-1.48438 4.15234,-2.375 6.6914,-2.375 3.34766,0 6.33594,1.55469 8.28125,3.98047 l -5.72656,16.93359 c -0.8164,0.19922 -1.67578,0.3086 -2.55469,0.3086" id="path912"/>
  <path style="fill:#7a8294;fill-opacity:1;fill-rule:nonzero;stroke:none" d="m 198.00371,249.51171 h -15.51953 l 1.44531,-4.27343 h 15.51954 l -1.44532,4.27343" id="path914"/>
  <path style="fill:#8a94a6;fill-opacity:1;fill-rule:nonzero;stroke:none" d="m 250.68731,131.22656 h -7.75782 l 0.52344,-1.53906 h 7.75781 l -0.52343,1.53906" id="path920"/>
  <path style="fill:#f5cacf;fill-opacity:1;fill-rule:nonzero;stroke:none" d="m 230.80449,190.01171 h -1.91015 v -0.68359 h 2.14453 l -0.23438,0.68359" id="path924"/>
  <path style="fill:#f5cacf;fill-opacity:1;fill-rule:nonzero;stroke:none" d="m 211.08965,225.35937 1.40625,-4.16016 c -0.17578,1.50391 -0.66797,2.91407 -1.40625,4.16016" id="path926"/>
  <path style="fill:#7a8294;fill-opacity:1;fill-rule:nonzero;stroke:none" d="m 210.67949,249.51171 h -7.75781 l 1.44531,-4.27343 h 7.75782 l -1.44532,4.27343" id="path928"/>
  <path style="fill:#425463;fill-opacity:1;fill-rule:nonzero;stroke:none" d="m 116.65606,130.07421 c -2.125,0 -3.85157,1.72657 -3.85157,3.85157 v 111.48828 c 0,2.12109 1.72657,3.84765 3.85157,3.84765 h 170.96093 c 2.1211,0 3.84766,-1.72656 3.84766,-3.84765 V 133.92578 c 0,-2.125 -1.72656,-3.85157 -3.84766,-3.85157 z m 170.96093,121.1875 H 116.65606 c -3.22657,0 -5.85157,-2.62109 -5.85157,-5.84765 V 133.92578 c 0,-3.22657 2.625,-5.85157 5.85157,-5.85157 h 170.96093 c 3.22266,0 5.84766,2.625 5.84766,5.85157 v 111.48828 c 0,3.22656 -2.625,5.84765 -5.84766,5.84765" id="path932"/>
  <path style="fill:#576178;fill-opacity:1;fill-rule:nonzero;stroke:none" d="M 123.26934,260.33984 H 20.253712 c -2.312496,0 -4.199215,-1.89063 -4.199215,-4.20313 v -63.24218 c 0,-2.3125 1.886719,-4.19922 4.199215,-4.19922 H 123.26934 c 2.30859,0 4.19922,1.88672 4.19922,4.19922 v 63.24218 c 0,2.3125 -1.89063,4.20313 -4.19922,4.20313" id="path934"/>
  <path style="fill:#425463;fill-opacity:1;fill-rule:nonzero;stroke:none" d="m 20.253712,189.69531 c -1.765621,0 -3.199215,1.43359 -3.199215,3.19922 v 63.24218 c 0,1.76563 1.433594,3.20313 3.199215,3.20313 H 123.26934 c 1.76562,0 3.19922,-1.4375 3.19922,-3.20313 v -63.24218 c 0,-1.76563 -1.4336,-3.19922 -3.19922,-3.19922 H 20.253712 M 123.26934,261.33984 H 20.253712 c -2.867184,0 -5.199215,-2.33594 -5.199215,-5.20313 v -63.24218 c 0,-2.86719 2.332031,-5.19922 5.199215,-5.19922 H 123.26934 c 2.86719,0 5.19922,2.33203 5.19922,5.19922 v 63.24218 c 0,2.86719 -2.33203,5.20313 -5.19922,5.20313" id="path936"/>
  <path style="fill:#f5c54a;fill-opacity:1;fill-rule:nonzero;stroke:none" d="M 112.29278,255.70312 H 24.531062 c -1.30469,0 -2.3711,-1.06641 -2.3711,-2.37109 v -56.75 c 0,-1.30469 1.06641,-2.375 2.3711,-2.375 h 87.761718 c 1.30468,0 2.37109,1.07031 2.37109,2.375 v 56.75 c 0,1.30468 -1.06641,2.37109 -2.37109,2.37109" id="path938"/>
  <path style="fill:#ffe3a8;fill-opacity:1;fill-rule:nonzero;stroke:none" d="m 53.093562,225.27734 h -27.80078 v -27.80078 h 27.80078 v 27.80078" id="path940"/>
  <path style="fill:#ffe3a8;fill-opacity:1;fill-rule:nonzero;stroke:none" d="m 53.093562,227.95703 h -27.80078 v 2.68359 h 27.80078 v -2.68359" id="path942"/>
  <path style="fill:#ffe3a8;fill-opacity:1;fill-rule:nonzero;stroke:none" d="m 56.074032,200.03906 h 54.566398 v -2.5625 H 56.074032 Z m 0,0" id="path944"/>
  <path style="fill:#ffe3a8;fill-opacity:1;fill-rule:nonzero;stroke:none" d="m 56.074032,205.09765 h 54.566398 v -2.5625 H 56.074032 Z m 0,0" id="path946"/>
  <path style="fill:#ffe3a8;fill-opacity:1;fill-rule:nonzero;stroke:none" d="m 56.074032,210.28125 h 54.566398 v -2.56641 H 56.074032 Z m 0,0" id="path948"/>
  <path style="fill:#ffe3a8;fill-opacity:1;fill-rule:nonzero;stroke:none" d="m 56.074032,215.39062 h 54.566398 v -2.56641 H 56.074032 Z m 0,0" id="path950"/>
  <path style="fill:#ffe3a8;fill-opacity:1;fill-rule:nonzero;stroke:none" d="m 56.074032,220.49609 h 54.566398 v -2.5625 H 56.074032 Z m 0,0" id="path952"/>
  <path style="fill:#ffe3a8;fill-opacity:1;fill-rule:nonzero;stroke:none" d="m 56.074032,225.55468 h 54.566398 v -2.5625 H 56.074032 Z m 0,0" id="path954"/>
  <path style="fill:#ffe3a8;fill-opacity:1;fill-rule:nonzero;stroke:none" d="m 56.074032,230.73828 h 54.566398 v -2.56641 H 56.074032 Z m 0,0" id="path956"/>
  <path style="fill:#ffe3a8;fill-opacity:1;fill-rule:nonzero;stroke:none" d="m 56.074032,235.84765 h 54.566398 v -2.5664 H 56.074032 Z m 0,0" id="path958"/>
  <path style="fill:#ffe3a8;fill-opacity:1;fill-rule:nonzero;stroke:none" d="m 56.074032,240.95312 h 54.566398 v -2.5625 H 56.074032 Z m 0,0" id="path960"/>
  <path style="fill:#ffe3a8;fill-opacity:1;fill-rule:nonzero;stroke:none" d="m 56.074032,246.01171 h 54.566398 v -2.5625 H 56.074032 Z m 0,0" id="path962"/>
  <path style="fill:#ffe3a8;fill-opacity:1;fill-rule:nonzero;stroke:none" d="M 56.074032,251.19531 H 110.64043 V 248.6289 H 56.074032 Z m 0,0" id="path964"/>
  <path style="fill:#ffe3a8;fill-opacity:1;fill-rule:nonzero;stroke:none" d="m 25.292782,236 h 27.80078 v -2.67969 h -27.80078 z m 0,0" id="path966"/>
  <path style="fill:#ffe3a8;fill-opacity:1;fill-rule:nonzero;stroke:none" d="m 25.292782,241.36328 h 27.80078 v -2.67969 h -27.80078 z m 0,0" id="path968"/>
  <path style="fill:#ffe3a8;fill-opacity:1;fill-rule:nonzero;stroke:none" d="m 25.292782,245.83203 h 27.80078 v -2.67969 h -27.80078 z m 0,0" id="path970"/>
  <path style="fill:#ffe3a8;fill-opacity:1;fill-rule:nonzero;stroke:none" d="m 25.292782,251.19531 h 27.80078 v -2.6836 h -27.80078 z m 0,0" id="path972"/>
  <path style="fill:#576178;fill-opacity:1;fill-rule:nonzero;stroke:none" d="m 124.26153,226.97656 c 0,1.67969 -1.36329,3.04297 -3.04297,3.04297 -1.6836,0 -3.04688,-1.36328 -3.04688,-3.04297 0,-1.6836 1.36328,-3.04297 3.04688,-3.04297 1.67968,0 3.04297,1.35937 3.04297,3.04297" id="path974"/>
  <path style="fill:#425463;fill-opacity:1;fill-rule:nonzero;stroke:none" d="m 121.21856,224.93359 c -1.12891,0 -2.04688,0.91406 -2.04688,2.04297 0,1.1289 0.91797,2.04297 2.04688,2.04297 1.125,0 2.04297,-0.91407 2.04297,-2.04297 0,-1.12891 -0.91797,-2.04297 -2.04297,-2.04297 z m 0,6.08594 c -2.23047,0 -4.04688,-1.8125 -4.04688,-4.04297 0,-2.23047 1.81641,-4.04297 4.04688,-4.04297 2.23047,0 4.04297,1.8125 4.04297,4.04297 0,2.23047 -1.8125,4.04297 -4.04297,4.04297" id="path976"/>
  <path style="fill:#7a8294;fill-opacity:1;fill-rule:nonzero;stroke:none" d="m 56.077932,259.33984 h -11.91797 l 1.44532,-3.63672 h 11.91796 l -1.44531,3.63672 m 25.89844,-65.13281 h -11.91797 l 1.79688,-4.51172 h 11.91406 l -1.79297,4.51172" id="path978"/>
  <path style="fill:#687885;fill-opacity:1;fill-rule:nonzero;stroke:none" d="m 55.679492,260.33984 h -11.91796 l 0.39843,-1 h 11.91797 l -0.39844,1 m 28.08985,-70.64453 h -11.91406 l 0.39843,-1 h 11.91407 l -0.39844,1" id="path980"/>
  <path style="fill:#f5d170;fill-opacity:1;fill-rule:nonzero;stroke:none" d="m 57.523242,255.70312 h -11.91796 l 1.79297,-4.50781 h 5.69531 v -2.6836 h -4.62891 l 1.06641,-2.67968 h 3.5625 v -2.67969 h -2.4961 l 0.71094,-1.78906 h 1.78516 v -2.67969 h -0.71875 l 3.69922,-9.30469 v 1.35938 h 11.375 l -1.01172,2.54297 h -10.36328 v 2.5664 h 9.34375 l -1.01172,2.54297 h -8.33203 v 2.5625 h 7.3125 l -0.99219,2.49609 h -6.32031 v 2.5625 h 5.30078 l -1.03907,2.61719 h -4.26171 v 2.56641 h 3.24218 l -1.79297,4.50781 m 10.94532,-27.53125 h -11.91407 l 1.03907,-2.61719 h 11.91797 l -1.04297,2.61719 m 2.0625,-5.17969 h -11.91797 l 0.99219,-2.49609 h 11.91406 l -0.98828,2.49609 m 2.01172,-5.05859 h -11.91797 l 1.01172,-2.54297 h 11.91796 l -1.01171,2.54297 m 2.03125,-5.10938 h -11.91797 l 1.01172,-2.54296 h 11.91796 l -1.01171,2.54296 m 2.03125,-5.10937 h -11.91797 l 1.04297,-2.61719 h 11.91406 l -1.03906,2.61719 m 2.05859,-5.17969 h -11.91406 l 0.99218,-2.49609 h 11.91407 l -0.99219,2.49609 m 2.01172,-5.05859 h -11.91797 l 1.30078,-3.26953 h 11.91797 l -1.30078,3.26953" id="path982"/>
  <path style="fill:#ffe8ba;fill-opacity:1;fill-rule:nonzero;stroke:none" d="m 79.656062,200.03906 h -11.91407 l 1.01563,-2.5625 h 11.91797 l -1.01953,2.5625" id="path984"/>
  <path style="fill:#ffe8ba;fill-opacity:1;fill-rule:nonzero;stroke:none" d="m 77.644342,205.09765 h -11.91406 l 1.01953,-2.5625 h 11.91406 l -1.01953,2.5625" id="path986"/>
  <path style="fill:#ffe8ba;fill-opacity:1;fill-rule:nonzero;stroke:none" d="m 75.585742,210.28125 h -11.91796 l 1.01953,-2.56641 h 11.91797 l -1.01954,2.56641" id="path988"/>
  <path style="fill:#ffe8ba;fill-opacity:1;fill-rule:nonzero;stroke:none" d="m 73.554492,215.39062 h -11.91796 l 1.01953,-2.56641 h 11.91797 l -1.01954,2.56641" id="path990"/>
  <path style="fill:#ffe8ba;fill-opacity:1;fill-rule:nonzero;stroke:none" d="m 71.519342,220.49609 h -11.91406 l 1.01953,-2.5625 h 11.91797 l -1.02344,2.5625" id="path992"/>
  <path style="fill:#ffe8ba;fill-opacity:1;fill-rule:nonzero;stroke:none" d="m 69.511532,225.55468 h -11.91797 l 1.01953,-2.5625 h 11.91797 l -1.01953,2.5625" id="path994"/>
  <path style="fill:#ffe8ba;fill-opacity:1;fill-rule:nonzero;stroke:none" d="m 67.449032,230.73828 h -11.375 v -1.35938 l 0.48046,-1.20703 h 11.91407 l -1.01953,2.56641" id="path996"/>
  <path style="fill:#ffe8ba;fill-opacity:1;fill-rule:nonzero;stroke:none" d="m 65.417782,235.84765 h -9.34375 v -2.5664 h 10.36328 l -1.01953,2.5664" id="path998"/>
  <path style="fill:#ffe8ba;fill-opacity:1;fill-rule:nonzero;stroke:none" d="m 63.386532,240.95312 h -7.3125 v -2.5625 h 8.33203 l -1.01953,2.5625" id="path1000"/>
  <path style="fill:#ffe8ba;fill-opacity:1;fill-rule:nonzero;stroke:none" d="m 61.374812,246.01171 h -5.30078 v -2.5625 h 6.32031 l -1.01953,2.5625" id="path1002"/>
  <path style="fill:#ffe8ba;fill-opacity:1;fill-rule:nonzero;stroke:none" d="m 59.316212,251.19531 h -3.24218 v -2.56641 h 4.26171 l -1.01953,2.56641" id="path1004"/>
  <path style="fill:#ffe8ba;fill-opacity:1;fill-rule:nonzero;stroke:none" d="m 53.093562,241.36328 h -1.78516 l 1.06641,-2.67969 h 0.71875 v 2.67969" id="path1006"/>
  <path style="fill:#ffe8ba;fill-opacity:1;fill-rule:nonzero;stroke:none" d="m 53.093562,245.83203 h -3.5625 l 1.0664,-2.67969 h 2.4961 v 2.67969" id="path1008"/>
  <path style="fill:#ffe8ba;fill-opacity:1;fill-rule:nonzero;stroke:none" d="m 53.093562,251.19531 h -5.69531 l 1.0664,-2.6836 h 4.62891 v 2.6836" id="path1010"/>
  <path style="fill:#7a8294;fill-opacity:1;fill-rule:nonzero;stroke:none" d="m 69.406062,259.33984 h -5.96094 l 1.44531,-3.63672 h 5.96094 l -1.44531,3.63672 m 25.89453,-65.13281 h -5.95703 l 1.79687,-4.51172 h 5.95703 l -1.79687,4.51172" id="path1012"/>
  <path style="fill:#687885;fill-opacity:1;fill-rule:nonzero;stroke:none" d="m 69.007622,260.33984 h -5.95703 l 0.39453,-1 h 5.96094 l -0.39844,1 m 28.08984,-70.64453 h -5.95703 l 0.30078,-0.76172 0.25391,0.0234 c 0.54687,0 1.02344,-0.10157 1.45312,-0.26172 h 4.34766 l -0.39844,1" id="path1014"/>
  <path style="fill:#f5d170;fill-opacity:1;fill-rule:nonzero;stroke:none" d="m 70.851372,255.70312 h -5.96094 l 1.79297,-4.50781 h 5.95703 l -1.78906,4.50781 m 2.8125,-7.07422 h -5.96094 l 1.04297,-2.61719 h 5.95703 l -1.03906,2.61719 m 2.05859,-5.17969 h -5.95703 l 0.99219,-2.49609 h 5.95703 l -0.99219,2.49609 m 2.01172,-5.05859 h -5.95703 l 1.01172,-2.54297 h 5.95703 l -1.01172,2.54297 m 2.03125,-5.10937 h -5.95703 l 1.01172,-2.54297 h 5.95703 l -1.01172,2.54297 m 2.03125,-5.10938 h -5.95703 l 1.04297,-2.61719 h 5.95703 l -1.04297,2.61719 m 2.0625,-5.17969 h -5.96094 l 0.99219,-2.49609 h 5.95703 l -0.98828,2.49609 m 2.00781,-5.05859 h -5.95703 l 1.01172,-2.54297 h 5.95703 l -1.01172,2.54297 m 2.03125,-5.10938 h -5.95703 l 1.01172,-2.54296 h 5.96094 l -1.01563,2.54296 m 2.03125,-5.10937 h -5.95703 l 1.04297,-2.61719 h 5.95703 l -1.04297,2.61719 m 2.0625,-5.17969 h -5.95703 l 0.99219,-2.49609 h 5.95703 l -0.99219,2.49609 m 2.01172,-5.05859 h -5.95703 l 1.29688,-3.26953 h 5.95703 l -1.29688,3.26953" id="path1016"/>
  <path style="fill:#ffe8ba;fill-opacity:1;fill-rule:nonzero;stroke:none" d="m 92.984182,200.03906 h -5.95703 l 1.01953,-2.5625 h 5.95703 l -1.01953,2.5625" id="path1018"/>
  <path style="fill:#ffe8ba;fill-opacity:1;fill-rule:nonzero;stroke:none" d="m 90.972462,205.09765 h -5.95703 l 1.01953,-2.5625 h 5.95703 l -1.01953,2.5625" id="path1020"/>
  <path style="fill:#ffe8ba;fill-opacity:1;fill-rule:nonzero;stroke:none" d="m 88.913872,210.28125 h -5.96094 l 1.01953,-2.56641 h 5.95703 l -1.01562,2.56641" id="path1022"/>
  <path style="fill:#ffe8ba;fill-opacity:1;fill-rule:nonzero;stroke:none" d="m 86.878712,215.39062 h -5.95703 l 1.01953,-2.56641 h 5.95703 l -1.01953,2.56641" id="path1024"/>
  <path style="fill:#ffe8ba;fill-opacity:1;fill-rule:nonzero;stroke:none" d="m 84.847462,220.49609 h -5.95703 l 1.01953,-2.5625 h 5.95703 l -1.01953,2.5625" id="path1026"/>
  <path style="fill:#ffe8ba;fill-opacity:1;fill-rule:nonzero;stroke:none" d="m 82.839652,225.55468 h -5.95703 l 1.01562,-2.5625 h 5.96094 l -1.01953,2.5625" id="path1028"/>
  <path style="fill:#ffe8ba;fill-opacity:1;fill-rule:nonzero;stroke:none" d="m 80.777152,230.73828 h -5.95703 l 1.01953,-2.56641 h 5.95703 l -1.01953,2.56641" id="path1030"/>
  <path style="fill:#ffe8ba;fill-opacity:1;fill-rule:nonzero;stroke:none" d="m 78.745902,235.84765 h -5.95703 l 1.01953,-2.5664 h 5.95703 l -1.01953,2.5664" id="path1032"/>
  <path style="fill:#ffe8ba;fill-opacity:1;fill-rule:nonzero;stroke:none" d="m 76.714652,240.95312 h -5.95703 l 1.01953,-2.5625 h 5.95703 l -1.01953,2.5625" id="path1034"/>
  <path style="fill:#ffe8ba;fill-opacity:1;fill-rule:nonzero;stroke:none" d="m 74.702932,246.01171 h -5.95703 l 1.01953,-2.5625 h 5.95703 l -1.01953,2.5625" id="path1036"/>
  <path style="fill:#ffe8ba;fill-opacity:1;fill-rule:nonzero;stroke:none" d="m 72.640432,251.19531 h -5.95703 l 1.01953,-2.56641 h 5.96094 l -1.02344,2.56641" id="path1038"/>
  <path style="fill:#425463;fill-opacity:1;fill-rule:nonzero;stroke:none" d="m 20.253712,189.69531 c -1.765621,0 -3.199215,1.43359 -3.199215,3.19922 v 63.24218 c 0,1.76563 1.433594,3.20313 3.199215,3.20313 H 123.26934 c 1.76562,0 3.19922,-1.4375 3.19922,-3.20313 v -63.24218 c 0,-1.76563 -1.4336,-3.19922 -3.19922,-3.19922 z M 123.26934,261.33984 H 20.253712 c -2.867184,0 -5.199215,-2.33594 -5.199215,-5.20313 v -63.24218 c 0,-2.86719 2.332031,-5.19922 5.199215,-5.19922 H 123.26934 c 2.86719,0 5.19922,2.33203 5.19922,5.19922 v 63.24218 c 0,2.86719 -2.33203,5.20313 -5.19922,5.20313" id="path1040"/>
  <path style="fill:#576178;fill-opacity:1;fill-rule:nonzero;stroke:none" d="m 333.34746,232.3164 h -29.21484 c -2.65625,0 -4.83203,-2.17578 -4.83203,-4.83203 v -58.51953 c 0,-2.66016 2.17578,-4.83203 4.83203,-4.83203 h 29.21484 c 2.66016,0 4.83594,2.17187 4.83594,4.83203 v 58.51953 c 0,2.65625 -2.17578,4.83203 -4.83594,4.83203" id="path1042"/>
  <path style="fill:#425463;fill-opacity:1;fill-rule:nonzero;stroke:none" d="m 304.13262,165.13281 c -2.11328,0 -3.83203,1.71875 -3.83203,3.83203 v 58.51953 c 0,2.11328 1.71875,3.83203 3.83203,3.83203 h 29.21484 c 2.11719,0 3.83594,-1.71875 3.83594,-3.83203 v -58.51953 c 0,-2.11328 -1.71875,-3.83203 -3.83594,-3.83203 h -29.21484 m 29.21484,68.18359 h -29.21484 c -3.21484,0 -5.83203,-2.61719 -5.83203,-5.83203 v -58.51953 c 0,-3.21875 2.61719,-5.83203 5.83203,-5.83203 h 29.21484 c 3.21875,0 5.83594,2.61328 5.83594,5.83203 v 58.51953 c 0,3.21484 -2.61719,5.83203 -5.83594,5.83203" id="path1044"/>
  <path style="fill:#a8d961;fill-opacity:1;fill-rule:nonzero;stroke:none" d="M 332.55059,225.0625 H 304.9334 c -1.58594,0 -2.87891,-1.29688 -2.87891,-2.87891 v -50.34375 c 0,-1.58594 1.29297,-2.88281 2.87891,-2.88281 h 27.61719 c 1.58203,0 2.8789,1.29687 2.8789,2.88281 v 50.34375 c 0,1.58203 -1.29687,2.87891 -2.8789,2.87891" id="path1046"/>
  <path style="fill:#e6f8ca;fill-opacity:1;fill-rule:nonzero;stroke:none" d="m 312.28106,182.26171 h -4.94532 c -1.28515,0 -2.33203,-1.05078 -2.33203,-2.33203 v -4.94531 c 0,-1.28516 1.04688,-2.33594 2.33203,-2.33594 h 4.94532 c 1.28125,0 2.33203,1.05078 2.33203,2.33594 v 4.94531 c 0,1.28125 -1.05078,2.33203 -2.33203,2.33203" id="path1048"/>
  <path style="fill:#e6f8ca;fill-opacity:1;fill-rule:nonzero;stroke:none" d="m 312.28106,197.74609 h -4.94532 c -1.28515,0 -2.33203,-1.05078 -2.33203,-2.33594 v -4.9414 c 0,-1.28516 1.04688,-2.33594 2.33203,-2.33594 h 4.94532 c 1.28125,0 2.33203,1.05078 2.33203,2.33594 v 4.9414 c 0,1.28516 -1.05078,2.33594 -2.33203,2.33594" id="path1050"/>
  <path style="fill:#e6f8ca;fill-opacity:1;fill-rule:nonzero;stroke:none" d="m 312.28106,213.23046 h -4.94532 c -1.28515,0 -2.33203,-1.05078 -2.33203,-2.33593 v -4.94532 c 0,-1.28125 1.04688,-2.33203 2.33203,-2.33203 h 4.94532 c 1.28125,0 2.33203,1.05078 2.33203,2.33203 v 4.94532 c 0,1.28515 -1.05078,2.33593 -2.33203,2.33593" id="path1052"/>
  <path style="fill:#e6f8ca;fill-opacity:1;fill-rule:nonzero;stroke:none" d="m 316.84746,174.38671 h 16.17578 v -1.34375 h -16.17578 z m 0,0" id="path1054"/>
  <path style="fill:#e6f8ca;fill-opacity:1;fill-rule:nonzero;stroke:none" d="m 316.84746,177.48046 h 16.17578 v -1.33984 h -16.17578 z m 0,0" id="path1056"/>
  <path style="fill:#e6f8ca;fill-opacity:1;fill-rule:nonzero;stroke:none" d="m 316.84746,180.57812 h 16.17578 v -1.33984 h -16.17578 z m 0,0" id="path1058"/>
  <path style="fill:#e6f8ca;fill-opacity:1;fill-rule:nonzero;stroke:none" d="m 316.84746,189.86718 h 16.17578 v -1.33984 h -16.17578 z m 0,0" id="path1060"/>
  <path style="fill:#e6f8ca;fill-opacity:1;fill-rule:nonzero;stroke:none" d="m 316.84746,192.96484 h 16.17578 v -1.34375 h -16.17578 z m 0,0" id="path1062"/>
  <path style="fill:#e6f8ca;fill-opacity:1;fill-rule:nonzero;stroke:none" d="m 316.84746,196.0625 h 16.17578 v -1.34375 h -16.17578 z m 0,0" id="path1064"/>
  <path style="fill:#e6f8ca;fill-opacity:1;fill-rule:nonzero;stroke:none" d="m 316.84746,205.35156 h 16.17578 v -1.33985 h -16.17578 z m 0,0" id="path1066"/>
  <path style="fill:#e6f8ca;fill-opacity:1;fill-rule:nonzero;stroke:none" d="m 316.84746,208.44921 h 16.17578 v -1.34375 h -16.17578 z m 0,0" id="path1068"/>
  <path style="fill:#e6f8ca;fill-opacity:1;fill-rule:nonzero;stroke:none" d="m 316.84746,211.54687 h 16.17578 v -1.34375 h -16.17578 z m 0,0" id="path1070"/>
  <path style="fill:#425463;fill-opacity:1;fill-rule:nonzero;stroke:none" d="m 323.73028,167.02734 h -11.01172 c -0.28125,0 -0.51563,-0.23047 -0.51563,-0.51563 0,-0.28515 0.23438,-0.51562 0.51563,-0.51562 h 11.01172 c 0.28515,0 0.51562,0.23047 0.51562,0.51562 0,0.28516 -0.23047,0.51563 -0.51562,0.51563" id="path1072"/>
  <path style="fill:#576178;fill-opacity:1;fill-rule:nonzero;stroke:none" d="m 321.06231,228.58593 c 0,1.16407 -0.94141,2.10547 -2.10547,2.10547 -1.16406,0 -2.10938,-0.9414 -2.10938,-2.10547 0,-1.16406 0.94532,-2.10937 2.10938,-2.10937 1.16406,0 2.10547,0.94531 2.10547,2.10937" id="path1074"/>
  <path style="fill:#425463;fill-opacity:1;fill-rule:nonzero;stroke:none" d="m 318.95684,227.47656 c -0.60938,0 -1.10938,0.5 -1.10938,1.10937 0,0.60938 0.5,1.10547 1.10938,1.10547 0.60937,0 1.10547,-0.49609 1.10547,-1.10547 0,-0.60937 -0.4961,-1.10937 -1.10547,-1.10937 m 0,4.21484 c -1.71485,0 -3.10938,-1.39062 -3.10938,-3.10547 0,-1.71484 1.39453,-3.10937 3.10938,-3.10937 1.71484,0 3.10547,1.39453 3.10547,3.10937 0,1.71485 -1.39063,3.10547 -3.10547,3.10547" id="path1076"/>
  <path style="fill:#7fb528;fill-opacity:1;fill-rule:nonzero;stroke:none" d="m 327.30059,222.05468 h -16.69141 c -1.03906,0 -1.89062,-0.85156 -1.89062,-1.89062 v -1.48438 c 0,-1.03906 0.85156,-1.89062 1.89062,-1.89062 h 16.69141 c 1.04297,0 1.89062,0.85156 1.89062,1.89062 v 1.48438 c 0,1.03906 -0.84765,1.89062 -1.89062,1.89062" id="path1078"/>
  <g clip-path="url(#clip2)" clip-rule="nonzero" id="g1084" transform="translate(-80.054878,-51.003906)">
    <g clip-path="url(#clip3)" clip-rule="nonzero" id="g1082">
      <path style="fill:#737a8f;fill-opacity:1;fill-rule:nonzero;stroke:none" d="m 397.01953,282.32031 h 8.80469 v -6.2539 h -8.80469 z m 0,0" id="path1080"/>
    </g>
  </g>
  <path style="fill:#61707d;fill-opacity:1;fill-rule:nonzero;stroke:none" d="m 324.9334,232.3164 h -8.08594 l 0.11719,-1 h 0.51172 c 0.44141,0.24219 0.94531,0.375 1.48047,0.375 0.53515,0 1.03906,-0.13281 1.48047,-0.375 h 4.61328 l -0.11719,1" id="path1086"/>
  <path style="fill:#b5e17d;fill-opacity:1;fill-rule:nonzero;stroke:none" d="m 325.76934,225.0625 h -8.08594 l 0.34375,-3.00782 h 8.08594 l -0.34375,3.00782" id="path1088"/>
  <path style="fill:#737a8f;fill-opacity:1;fill-rule:nonzero;stroke:none" d="m 318.95684,229.6914 c -0.60938,0 -1.10938,-0.49609 -1.10938,-1.10547 0,-0.60937 0.5,-1.10937 1.10938,-1.10937 0.60937,0 1.10547,0.5 1.10547,1.10937 0,0.60938 -0.4961,1.10547 -1.10547,1.10547" id="path1090"/>
  <path style="fill:#61707d;fill-opacity:1;fill-rule:nonzero;stroke:none" d="m 318.95684,231.6914 c -0.53516,0 -1.03906,-0.13281 -1.48047,-0.375 -0.16797,-0.0898 -0.32813,-0.19922 -0.47656,-0.32031 l 0.59765,-5.20703 c 0.41016,-0.19922 0.8711,-0.3125 1.35938,-0.3125 1.71484,0 3.10547,1.39453 3.10547,3.10937 0,1.17578 -0.65625,2.20313 -1.625,2.73047 -0.44141,0.24219 -0.94532,0.375 -1.48047,0.375 m 0,-4.21484 c -0.60938,0 -1.10938,0.5 -1.10938,1.10937 0,0.60938 0.5,1.10547 1.10938,1.10547 0.60937,0 1.10547,-0.49609 1.10547,-1.10547 0,-0.60937 -0.4961,-1.10937 -1.10547,-1.10937" id="path1092"/>
  <path style="fill:#b5e17d;fill-opacity:1;fill-rule:nonzero;stroke:none" d="m 326.71856,216.78906 h -8.08594 l 0.60156,-5.24219 h 8.08594 l -0.60156,5.24219 m 0.7539,-6.58594 h -8.08593 l 0.20312,-1.75391 h 8.08594 l -0.20313,1.75391 m 0.35547,-3.09766 h -8.08594 l 0.20313,-1.7539 h 8.08594 l -0.20313,1.7539 m 0.35547,-3.09375 h -8.08594 l 0.91407,-7.94921 h 8.08593 l -0.91406,7.94921 m 1.06641,-9.29296 h -8.08594 l 0.20312,-1.75391 h 8.08594 l -0.20312,1.75391 m 0.35547,-3.09766 h -8.08594 l 0.20312,-1.75391 h 8.08594 l -0.20312,1.75391" id="path1094"/>
  <path style="fill:#737a8f;fill-opacity:1;fill-rule:nonzero;stroke:none" d="m 332.20684,168.95703 h -8.08594 l 0.44141,-3.82422 h 8.08593 l -0.4414,3.82422" id="path1096"/>
  <path style="fill:#61707d;fill-opacity:1;fill-rule:nonzero;stroke:none" d="m 332.64824,165.13281 h -8.08593 l 0.11328,-1 h 8.08594 l -0.11329,1" id="path1098"/>
  <path style="fill:#b5e17d;fill-opacity:1;fill-rule:nonzero;stroke:none" d="m 329.96074,188.52734 h -8.08593 l 0.91406,-7.94922 h 8.08594 l -0.91407,7.94922 m 1.06641,-9.28906 h -8.08594 l 0.20313,-1.75782 h 8.08594 l -0.20313,1.75782 m 0.35547,-3.09766 h -8.08594 l 0.20313,-1.75391 h 8.08593 l -0.20312,1.75391 m 0.35547,-3.09766 h -8.08594 l 0.46875,-4.08593 h 8.08594 l -0.46875,4.08593" id="path1100"/>
  <path style="fill:#ebfad1;fill-opacity:1;fill-rule:nonzero;stroke:none" d="m 331.58574,174.38671 h -8.08593 l 0.15234,-1.34375 h 8.08594 l -0.15235,1.34375" id="path1102"/>
  <path style="fill:#ebfad1;fill-opacity:1;fill-rule:nonzero;stroke:none" d="m 331.23028,177.48046 h -8.08594 l 0.15234,-1.33984 h 8.08594 l -0.15234,1.33984" id="path1104"/>
  <path style="fill:#ebfad1;fill-opacity:1;fill-rule:nonzero;stroke:none" d="m 330.87481,180.57812 h -8.08594 l 0.15234,-1.33984 h 8.08594 l -0.15234,1.33984" id="path1106"/>
  <path style="fill:#ebfad1;fill-opacity:1;fill-rule:nonzero;stroke:none" d="m 329.8084,189.86718 h -8.08594 l 0.15235,-1.33984 h 8.08593 l -0.15234,1.33984" id="path1108"/>
  <path style="fill:#ebfad1;fill-opacity:1;fill-rule:nonzero;stroke:none" d="m 329.45293,192.96484 h -8.08594 l 0.15235,-1.34375 h 8.08594 l -0.15235,1.34375" id="path1110"/>
  <path style="fill:#ebfad1;fill-opacity:1;fill-rule:nonzero;stroke:none" d="m 329.09746,196.0625 h -8.08593 l 0.15234,-1.34375 h 8.08594 l -0.15235,1.34375" id="path1112"/>
  <path style="fill:#ebfad1;fill-opacity:1;fill-rule:nonzero;stroke:none" d="m 328.03106,205.35156 h -8.08594 l 0.15234,-1.33985 h 8.08594 l -0.15234,1.33985" id="path1114"/>
  <path style="fill:#ebfad1;fill-opacity:1;fill-rule:nonzero;stroke:none" d="m 327.67559,208.44921 h -8.08594 l 0.15234,-1.34375 h 8.08594 l -0.15234,1.34375" id="path1116"/>
  <path style="fill:#ebfad1;fill-opacity:1;fill-rule:nonzero;stroke:none" d="m 327.32012,211.54687 h -8.08594 l 0.15235,-1.34375 h 8.08593 l -0.15234,1.34375" id="path1118"/>
  <path style="fill:#94c24c;fill-opacity:1;fill-rule:nonzero;stroke:none" d="m 326.11309,222.05468 h -8.08594 l 0.60547,-5.26562 h 8.08594 l -0.60547,5.26562" id="path1120"/>
  <path style="fill:#737a8f;fill-opacity:1;fill-rule:nonzero;stroke:none" d="m 314.72637,231.3164 h -3.91406 l 0.71875,-6.2539 h 3.91406 l -0.71875,6.2539 m 7.16016,-62.35937 h -3.91407 l 0.22266,-1.92969 h 3.91406 l -0.22265,1.92969 m 0.33984,-2.96094 h -3.91406 l 0.0976,-0.86328 h 3.91407 l -0.0976,0.86328" id="path1122"/>
  <path style="fill:#61707d;fill-opacity:1;fill-rule:nonzero;stroke:none" d="m 314.61309,232.3164 h -3.91406 l 0.11328,-1 h 3.91406 l -0.11328,1 m 7.71094,-67.18359 h -3.91407 l 0.11719,-1 h 3.91406 l -0.11718,1" id="path1124"/>
  <path style="fill:#b5e17d;fill-opacity:1;fill-rule:nonzero;stroke:none" d="m 315.44512,225.0625 h -3.91406 l 0.34765,-3.00782 h 3.91016 l -0.34375,3.00782 m 0.94922,-8.27344 h -3.91406 l 0.41796,-3.64453 c 0.98438,-0.27344 1.71485,-1.17969 1.71485,-2.25 v -4.94532 c 0,-0.64453 -0.26953,-1.23437 -0.69531,-1.65625 l 3.07421,-26.8125 h 3.91407 l -0.19922,1.75782 h -3.85938 v 1.33984 h 3.70313 l -0.91016,7.94922 h -2.79297 v 1.33984 h 2.63672 l -0.19922,1.75391 h -2.4375 v 1.34375 h 2.28125 l -0.19922,1.75391 h -2.08203 v 1.34375 h 1.92578 l -0.91015,7.94921 h -1.01563 v 1.33985 h 0.85938 l -0.19922,1.7539 h -0.66016 v 1.34375 h 0.50391 l -0.19922,1.75391 h -0.30469 v 1.34375 h 0.14844 l -0.60156,5.24219 m 4.66797,-40.64844 h -3.91407 l 0.19922,-1.75391 h 3.91407 l -0.19922,1.75391 m 0.35547,-3.09766 h -3.91407 l 0.46875,-4.08593 h 3.91407 l -0.46875,4.08593" id="path1126"/>
  <path style="fill:#ebfad1;fill-opacity:1;fill-rule:nonzero;stroke:none" d="m 312.89824,213.14453 1.01954,-8.85157 c 0.42578,0.42188 0.69531,1.01172 0.69531,1.65625 v 4.94532 c 0,1.07031 -0.73047,1.97656 -1.71485,2.25" id="path1128"/>
  <path style="fill:#ebfad1;fill-opacity:1;fill-rule:nonzero;stroke:none" d="m 321.26153,174.38671 h -3.91407 l 0.15625,-1.34375 h 3.91407 l -0.15625,1.34375" id="path1130"/>
  <path style="fill:#ebfad1;fill-opacity:1;fill-rule:nonzero;stroke:none" d="m 320.90606,177.48046 h -3.91407 l 0.15625,-1.33984 h 3.91407 l -0.15625,1.33984" id="path1132"/>
  <path style="fill:#ebfad1;fill-opacity:1;fill-rule:nonzero;stroke:none" d="m 320.55059,180.57812 h -3.70313 v -1.33984 h 3.85938 l -0.15625,1.33984" id="path1134"/>
  <path style="fill:#ebfad1;fill-opacity:1;fill-rule:nonzero;stroke:none" d="m 319.48418,189.86718 h -2.63672 v -1.33984 h 2.79297 l -0.15625,1.33984" id="path1136"/>
  <path style="fill:#ebfad1;fill-opacity:1;fill-rule:nonzero;stroke:none" d="m 319.12871,192.96484 h -2.28125 v -1.34375 h 2.4375 l -0.15625,1.34375" id="path1138"/>
  <path style="fill:#ebfad1;fill-opacity:1;fill-rule:nonzero;stroke:none" d="m 318.77324,196.0625 h -1.92578 v -1.34375 h 2.08203 l -0.15625,1.34375" id="path1140"/>
  <path style="fill:#ebfad1;fill-opacity:1;fill-rule:nonzero;stroke:none" d="m 317.70684,205.35156 h -0.85938 v -1.33985 h 1.01563 l -0.15625,1.33985" id="path1142"/>
  <path style="fill:#ebfad1;fill-opacity:1;fill-rule:nonzero;stroke:none" d="m 317.35137,208.44921 h -0.50391 v -1.34375 h 0.66016 l -0.15625,1.34375" id="path1144"/>
  <path style="fill:#ebfad1;fill-opacity:1;fill-rule:nonzero;stroke:none" d="m 316.9959,211.54687 h -0.14844 v -1.34375 h 0.30469 l -0.15625,1.34375" id="path1146"/>
  <path style="fill:#61707d;fill-opacity:1;fill-rule:nonzero;stroke:none" d="m 322.10918,167.02734 h -3.91406 l 0.11719,-1.03125 h 3.91406 l -0.11719,1.03125" id="path1148"/>
  <path style="fill:#94c24c;fill-opacity:1;fill-rule:nonzero;stroke:none" d="m 315.78887,222.05468 h -3.91016 l 0.60157,-5.26562 h 3.91406 l -0.60547,5.26562" id="path1150"/>
  <path style="fill:#425463;fill-opacity:1;fill-rule:nonzero;stroke:none" d="m 304.13262,165.13281 c -2.11328,0 -3.83203,1.71875 -3.83203,3.83203 v 58.51953 c 0,2.11328 1.71875,3.83203 3.83203,3.83203 h 29.21484 c 2.11719,0 3.83594,-1.71875 3.83594,-3.83203 v -58.51953 c 0,-2.11328 -1.71875,-3.83203 -3.83594,-3.83203 z m 29.21484,68.18359 h -29.21484 c -3.21484,0 -5.83203,-2.61719 -5.83203,-5.83203 v -58.51953 c 0,-3.21484 2.61719,-5.83203 5.83203,-5.83203 h 29.21484 c 3.21875,0 5.83594,2.61719 5.83594,5.83203 v 58.51953 c 0,3.21484 -2.61719,5.83203 -5.83594,5.83203" id="path1152"/>
  <path style="fill:#ffffff;fill-opacity:1;fill-rule:nonzero;stroke:none" d="m 74.015432,145.99218 c 7.02344,0 12.91797,-5.50781 13.14063,-12.52734 0.008,-0.18359 0.0117,-0.37109 0.0117,-0.55859 0,-9.52735 -7.72266,-17.2461 -17.25,-17.2461 -0.16797,0 -0.33594,0.008 -0.5,0.0117 v -0.0117 c 0,-4.25 -3.44532,-7.6914 -7.69141,-7.6914 -1.70313,0 -3.27344,0.55468 -4.54688,1.48828 -2.57421,-7.9961 -10.07421,-13.785156 -18.92578,-13.785156 -10.49609,0 -19.085934,8.132806 -19.828121,18.437496 -7.46875,1.40234 -13.121094,7.95313 -13.121094,15.82813 0,7.1914 4.710938,13.27734 11.210938,15.35156 1.5625,0.49609 3.203125,0.70312 4.843747,0.70312 h 52.65625" id="path1154"/>
  <path style="fill:#ffffff;fill-opacity:1;fill-rule:nonzero;stroke:none" d="m 163.65996,104.65234 c 7.01953,0 12.91797,-5.511716 13.14063,-12.527336 0.004,-0.1875 0.008,-0.3711 0.008,-0.5586 0,-9.52734 -7.72266,-17.25 -17.25,-17.25 -0.16797,0 -0.33203,0.008 -0.5,0.0117 v -0.0117 c 0,-4.24609 -3.44141,-7.6914 -7.6875,-7.6914 -1.70312,0 -3.27344,0.55468 -4.54687,1.49218 -2.57813,-8 -10.07422,-13.78515 -18.92969,-13.78515 -10.49219,0 -19.08203,8.13281 -19.82422,18.4375 -7.47266,1.39844 -13.124998,7.95312 -13.124998,15.82812 0,7.19141 4.71094,13.277346 11.214838,15.347656 1.5625,0.5 3.19922,0.70703 4.83985,0.70703 h 52.66015" id="path1156"/>
  <path style="fill:#ffffff;fill-opacity:1;fill-rule:nonzero;stroke:none" d="m 266.31231,121.71093 c 7.02343,0 12.91797,-5.51172 13.14062,-12.52734 0.008,-0.1875 0.0117,-0.375 0.0117,-0.55859 0,-9.527346 -7.72266,-17.249996 -17.25,-17.249996 -0.16797,0 -0.33594,0.008 -0.5,0.0117 v -0.0117 c 0,-4.2461 -3.44531,-7.69141 -7.69141,-7.69141 -1.69921,0 -3.27343,0.55469 -4.54687,1.49219 -2.57422,-8 -10.07422,-13.78516 -18.92578,-13.78516 -10.4961,0 -19.08594,8.12891 -19.82813,18.43359 -7.46875,1.40235 -13.125,7.95704 -13.125,15.832036 0,7.1914 4.71094,13.27734 11.21485,15.34765 1.5625,0.5 3.20312,0.70703 4.84375,0.70703 h 52.65625" id="path1158"/>
  <path style="fill:#2775b6;fill-opacity:1;fill-rule:nonzero;stroke:none" d="m 45.347462,110.83593 c -8.27343,0 -15.0039,6.73047 -15.0039,15.00391 0,8.26953 6.73047,15 15.0039,15 8.26953,0 15,-6.73047 15,-15 0,-8.27344 -6.73047,-15.00391 -15,-15.00391 z m 0,32.00391 c -9.375,0 -17.0039,-7.625 -17.0039,-17 0,-9.375 7.6289,-17.00391 17.0039,-17.00391 9.375,0 17,7.62891 17,17.00391 0,9.375 -7.625,17 -17,17" id="path1160"/>
  <path style="fill:#2775b6;fill-opacity:1;fill-rule:nonzero;stroke:none" d="m 45.761532,142.75 -0.82813,-1.82032 c 5.90625,-2.67968 9.72266,-8.60547 9.72266,-15.08984 0,-6.48828 -3.81641,-12.41016 -9.72266,-15.09375 l 0.82813,-1.82031 c 6.61718,3.0039 10.89453,9.64453 10.89453,16.91406 0,7.26953 -4.27735,13.90625 -10.89453,16.91016" id="path1162"/>
  <path style="fill:#2775b6;fill-opacity:1;fill-rule:nonzero;stroke:none" d="m 44.128712,111.47265 c -5.08593,2.9336 -8.30859,8.42969 -8.30859,14.36719 0,5.98437 3.16406,11.41016 8.30859,14.36719 z m 0.51954,31.08594 c -0.22657,0 -0.45704,-0.0547 -0.66797,-0.16406 -6.26563,-3.17969 -10.16016,-9.52735 -10.16016,-16.55469 0,-7.16797 4.19141,-13.76563 10.67969,-16.8125 0.35937,-0.16797 0.76953,-0.14063 1.10156,0.0703 0.33203,0.21094 0.52734,0.57031 0.52734,0.96485 v 31.00781 c 0,0.51953 -0.26562,0.99609 -0.71093,1.26953 -0.23828,0.14453 -0.50391,0.21875 -0.76953,0.21875" id="path1164"/>
  <path style="fill:#2775b6;fill-opacity:1;fill-rule:nonzero;stroke:none" d="m 31.558402,118.76171 -0.32422,-1.97265 c 4.75782,-0.78125 9.60547,-1.16016 14.42578,-1.13281 4.46485,0.0312 8.96485,0.41015 13.36719,1.13281 l -0.32422,1.97265 c -4.30078,-0.70703 -8.69531,-1.07812 -13.05468,-1.10546 -4.69141,-0.0234 -9.44532,0.34375 -14.08985,1.10546" id="path1166"/>
  <path style="fill:#2775b6;fill-opacity:1;fill-rule:nonzero;stroke:none" d="m 45.120902,136.03515 c -0.17578,0 -0.34765,-0.004 -0.52344,-0.004 -4.46093,-0.0273 -8.95703,-0.40625 -13.36328,-1.12891 l 0.32422,-1.97656 c 4.30078,0.70703 8.69531,1.07812 13.05469,1.10547 4.70703,0.0156 9.44922,-0.34375 14.08984,-1.10157 l 0.32422,1.97266 c -4.58203,0.75 -9.25781,1.13281 -13.90625,1.13281" id="path1168"/>
  <path style="fill:#2775b6;fill-opacity:1;fill-rule:nonzero;stroke:none" d="m 60.956842,126.83984 h -31.61328 v -2 h 31.61328 v 2" id="path1170"/>
  <path style="fill:#2775b6;fill-opacity:1;fill-rule:nonzero;stroke:none" d="m 108.72637,86.597654 c -0.74609,0.72656 -1.89844,1.77735 -3.45703,3.14844 0.65625,0.64062 1.67969,1.56641 3.0625,2.77344 0.4375,0.35156 0.65625,0.74609 0.65625,1.1875 0,0.41797 -0.16797,0.78906 -0.50781,1.10937 -0.33594,0.32031 -0.73438,0.48047 -1.19922,0.48047 -0.49219,0 -1.10547,-0.3125 -1.83985,-0.93359 l -1.52343,-1.46875 c -0.81641,-0.78125 -1.59375,-1.30078 -2.33594,-1.56641 -0.88672,-0.30469 -1.32813,-0.79297 -1.32813,-1.45703 0,-0.60547 0.39453,-1.07813 1.17969,-1.42578 0.78906,-0.34375 1.66406,-0.98047 2.62891,-1.91016 1.3125,-1.27734 2.10547,-2.01953 2.3789,-2.21875 0.35938,-0.27344 0.73438,-0.41015 1.12891,-0.41015 0.46484,0 0.86328,0.16015 1.19922,0.47656 0.33984,0.3125 0.50781,0.67969 0.50781,1.09765 0,0.41407 -0.18359,0.78516 -0.55078,1.11719" id="path1172"/>
  <path style="fill:#2775b6;fill-opacity:1;fill-rule:nonzero;stroke:none" d="m 117.91387,95.550784 c -1.49609,0 -2.74609,-0.42578 -3.75781,-1.27344 -1.06641,-0.89453 -1.60157,-2.07813 -1.60157,-3.54297 0,-1.35156 0.48047,-2.74609 1.4375,-4.18359 1.08594,-1.64453 2.34766,-2.46485 3.78907,-2.46485 0.70312,0 1.52734,0.1875 2.47265,0.57032 1.14844,0.46875 1.72266,1.00781 1.72266,1.61718 0,0.33203 -0.11719,0.62891 -0.34766,0.88672 -0.24609,0.27735 -0.55859,0.41797 -0.94531,0.41797 -0.29297,0 -0.64453,-0.15625 -1.05469,-0.47266 -0.41015,-0.3164 -1.02734,-0.47656 -1.84765,-0.47656 -0.52344,0 -1.08985,0.51563 -1.70313,1.53906 -0.58203,0.99219 -0.875,1.84766 -0.875,2.56641 0,0.71094 0.25781,1.27344 0.77344,1.67969 0.48828,0.38672 1.13281,0.58203 1.9375,0.58203 0.45312,0 1.01172,-0.17578 1.66797,-0.51953 0.66015,-0.34766 1.07812,-0.51953 1.2539,-0.51953 0.36719,0 0.67969,0.13281 0.94141,0.39843 0.26172,0.26172 0.39063,0.56641 0.39063,0.90625 0,0.52735 -0.57813,1.05469 -1.73047,1.58594 -1.03125,0.46875 -1.875,0.70313 -2.52344,0.70313" id="path1174"/>
  <path style="fill:#2775b6;fill-opacity:1;fill-rule:nonzero;stroke:none" d="m 128.7459,87.039064 c -0.83594,-0.008 -1.49219,0.37109 -1.97656,1.14062 -0.40625,0.64453 -0.60938,1.39844 -0.60938,2.25782 0,0.8164 0.23047,1.4414 0.69141,1.875 0.36719,0.34765 0.79687,0.51953 1.28516,0.51953 0.58984,0 1.10156,-0.19922 1.53515,-0.60157 0.4961,-0.46875 0.76172,-1.10156 0.79688,-1.90234 0.0859,-2.1875 -0.48828,-3.28516 -1.72266,-3.28906 z m -0.60937,8.47265 c -1.25782,0 -2.33594,-0.43359 -3.23829,-1.29296 -0.99218,-0.94532 -1.51171,-2.20313 -1.55859,-3.78125 -0.0469,-1.5 0.36328,-2.83594 1.23047,-4.01172 1.03125,-1.38282 2.46875,-2.07422 4.30859,-2.07422 1.35938,0 2.4375,0.54297 3.23828,1.6289 0.71875,0.97657 1.07813,2.1875 1.07813,3.63282 0,1.57422 -0.41797,2.91797 -1.26172,4.03125 -0.94141,1.24609 -2.21094,1.86718 -3.79687,1.86718" id="path1176"/>
  <path style="fill:#2775b6;fill-opacity:1;fill-rule:nonzero;stroke:none" d="m 142.15606,87.882814 c -0.22266,-0.42578 -0.51563,-0.7461 -0.875,-0.95703 -0.35938,-0.21094 -0.78516,-0.31641 -1.28125,-0.31641 -1.00391,0 -1.75782,0.28906 -2.26172,0.87109 -0.50391,0.58204 -0.75391,1.45313 -0.75391,2.61329 0,0.73046 0.27344,1.35937 0.81641,1.88281 0.54297,0.52344 1.17187,0.78515 1.89062,0.78515 0.52344,0 0.92188,-0.0625 1.19141,-0.18359 0.18359,-0.082 0.49609,-0.30078 0.9375,-0.65234 0.11719,-0.0937 0.23047,-0.19922 0.33594,-0.31641 -0.0117,-0.32422 -0.0117,-1.56641 0,-3.72656 z m 0.20312,-3.20703 c 0.0898,-2.31641 0.19531,-3.91407 0.31641,-4.79688 0.11719,-0.80078 0.55859,-1.19922 1.32422,-1.19922 0.40234,0 0.72265,0.12891 0.96875,0.38672 0.24218,0.26172 0.36718,0.58203 0.36718,0.95703 0,0.9961 -0.0781,2.47657 -0.23046,4.44532 -0.15235,1.96484 -0.23047,3.44921 -0.23047,4.4414 0,2.42578 0.0781,4.05078 0.23437,4.875 0.0234,0.10938 0.0312,0.20703 0.0312,0.29688 0,0.3789 -0.13672,0.6875 -0.40625,0.92968 -0.27344,0.2461 -0.58984,0.36719 -0.94922,0.36719 -0.5,0 -0.875,-0.22656 -1.11718,-0.67187 -0.46094,0.27734 -0.94141,0.46093 -1.4375,0.54297 -0.4961,0.0859 -1.00782,0.1289 -1.53907,0.1289 -1.51953,0 -2.78125,-0.48828 -3.78515,-1.45703 -1.02735,-0.99219 -1.53907,-2.25391 -1.53907,-3.78906 0,-1.82422 0.51563,-3.30078 1.54688,-4.42188 1.03516,-1.125 2.38281,-1.6875 4.04297,-1.6875 0.51172,0 0.96484,0.0547 1.36719,0.16407 0.39843,0.10937 0.74609,0.26953 1.03515,0.48828" id="path1178"/>
  <path style="fill:#2775b6;fill-opacity:1;fill-rule:nonzero;stroke:none" d="m 152.01543,86.730464 c -0.63281,0 -1.17187,0.21094 -1.62109,0.63282 -0.44531,0.42187 -0.8086,1.05468 -1.07813,1.89453 0.76563,-0.33203 1.53125,-0.66016 2.28907,-0.98828 0.91796,-0.41407 1.64843,-0.79688 2.1914,-1.15235 -0.45703,-0.25781 -1.05078,-0.38672 -1.78125,-0.38672 z m 0.27344,8.64844 c -1.62109,0 -2.94922,-0.38672 -3.98047,-1.16015 -1.14062,-0.85938 -1.71094,-2.0625 -1.71094,-3.61719 0,-1.71875 0.45313,-3.16797 1.35547,-4.35938 1.00391,-1.3164 2.35547,-1.97265 4.0625,-1.97265 1.17969,0 2.16016,0.1875 2.94141,0.57031 1.02344,0.5 1.53906,1.28125 1.53906,2.33984 0,0.7461 -0.41797,1.41016 -1.25391,1.98828 -0.3789,0.26172 -1.14453,0.64844 -2.28906,1.16016 l -3.43359,1.51563 c 0.32422,0.35156 0.71875,0.61718 1.18359,0.79296 0.46094,0.17969 0.98828,0.26563 1.58594,0.26563 0.91016,0 1.67969,-0.1875 2.3125,-0.55859 0.5625,-0.33204 1.01562,-0.5 1.35547,-0.5 0.70312,0 1.05859,0.34375 1.05859,1.03125 0,0.76953 -0.5664,1.40234 -1.70312,1.89062 -0.94922,0.41016 -1.95703,0.61328 -3.02344,0.61328" id="path1180"/>
  <path style="fill:#2775b6;fill-opacity:1;fill-rule:nonzero;stroke:none" d="m 169.46074,90.355464 c -2.10937,1.81641 -4.3164,3.39844 -6.62109,4.75782 -0.32422,0.1914 -0.64844,0.28906 -0.96875,0.28906 -0.47266,0 -0.875,-0.16406 -1.20312,-0.48828 -0.32813,-0.32422 -0.49219,-0.69531 -0.49219,-1.11719 0,-0.48047 0.23437,-0.89453 0.70703,-1.23437 1.02734,-0.69532 2.54687,-1.75391 4.55859,-3.1836 -1.00781,-0.72656 -1.97265,-1.53125 -2.90234,-2.41406 -1.17188,-1.10156 -1.75781,-1.875 -1.75781,-2.32422 0,-0.42578 0.17578,-0.79687 0.53125,-1.10937 0.35156,-0.3086 0.75781,-0.46485 1.21484,-0.46485 0.47266,0 0.89844,0.19531 1.27344,0.57813 1.96094,2.01562 3.71484,3.39453 5.26562,4.13672 0.71094,0.34375 1.06641,0.79296 1.06641,1.35546 0,0.42969 -0.22266,0.83594 -0.67188,1.21875" id="path1182"/>
  <path style="fill:#2775b6;fill-opacity:1;fill-rule:nonzero;stroke:none" d="m 226.14043,92.527344 c 1.10938,0.64844 5.0586,1.61719 11.57031,1.61719 6.51563,0 10.46485,-0.96875 11.57032,-1.61719 -1.10547,-0.64844 -5.05469,-1.61719 -11.57032,-1.61719 -6.51171,0 -10.46093,0.96875 -11.57031,1.61719 z m 11.57031,3.72656 c -2.32031,0 -13.90234,-0.17969 -13.90234,-3.72656 0,-3.54688 11.58203,-3.72656 13.90234,-3.72656 2.32032,0 13.90235,0.17968 13.90235,3.72656 0,3.54687 -11.58203,3.72656 -13.90235,3.72656" id="path1184"/>
  <path style="fill:#2775b6;fill-opacity:1;fill-rule:nonzero;stroke:none" d="m 237.71074,100.71093 c -2.32031,0 -13.90234,-0.17968 -13.90234,-3.722646 v -4.46094 h 2.11328 v 4.30469 c 0.67969,0.63281 4.72656,1.76953 11.78906,1.76953 7.0625,0 11.10938,-1.13672 11.79297,-1.76953 v -4.30469 h 2.10938 v 4.46094 c 0,3.542966 -11.58203,3.722646 -13.90235,3.722646" id="path1186"/>
  <path style="fill:#2775b6;fill-opacity:1;fill-rule:nonzero;stroke:none" d="m 237.71074,105.98828 c -2.32031,0 -13.90234,-0.17969 -13.90234,-3.72657 v -4.457026 h 2.11328 v 4.300776 c 0.67969,0.63672 4.72656,1.77344 11.78906,1.77344 7.0625,0 11.10938,-1.13672 11.79297,-1.77344 v -4.300776 h 2.10938 v 4.457026 c 0,3.54688 -11.58203,3.72657 -13.90235,3.72657" id="path1188"/>
  <path style="fill:#2775b6;fill-opacity:1;fill-rule:nonzero;stroke:none" d="m 237.71074,111.26562 c -2.32031,0 -13.90234,-0.17969 -13.90234,-3.72266 v -4.46093 h 2.11328 v 4.30078 c 0.67969,0.63672 4.72656,1.77344 11.78906,1.77344 7.0625,0 11.10938,-1.13672 11.79297,-1.77344 v -4.30078 h 2.10938 v 4.46093 c 0,3.54297 -11.58203,3.72266 -13.90235,3.72266" id="path1190"/>
  <path style="fill:#2775b6;fill-opacity:1;fill-rule:nonzero;stroke:none" d="m 237.71074,116.54296 c -2.32031,0 -13.90234,-0.17968 -13.90234,-3.72656 v -4.45703 h 2.11328 v 4.30078 c 0.67969,0.63672 4.72656,1.77344 11.78906,1.77344 7.0625,0 11.10938,-1.13672 11.79297,-1.77344 v -4.30078 h 2.10938 v 4.45703 c 0,3.54688 -11.58203,3.72656 -13.90235,3.72656" id="path1192"/>
  <path style="fill:#ffffff;fill-opacity:1;fill-rule:nonzero;stroke:none" d="m 355.73809,96.550784 c 7.02344,0 12.91797,-5.50782 13.14062,-12.52735 0.008,-0.1875 0.008,-0.375 0.008,-0.55859 0,-9.52734 -7.71875,-17.25 -17.2461,-17.25 -0.16797,0 -0.33594,0.008 -0.5,0.0117 v -0.0117 c 0,-4.24609 -3.4414,-7.69141 -7.6914,-7.69141 -1.69922,0 -3.27344,0.55469 -4.54688,1.49219 -2.57422,-8 -10.07422,-13.785155 -18.92578,-13.785155 -10.49609,0 -19.08594,8.128905 -19.82813,18.437505 -7.46875,1.39843 -13.12109,7.94921 -13.12109,15.82812 0,7.19141 4.71094,13.27734 11.21484,15.34766 1.5586,0.5 3.19922,0.70703 4.83985,0.70703 h 52.65625" id="path1194"/>
  <path style="fill:#ffffff;fill-opacity:1;fill-rule:nonzero;stroke:none" d="m 68.714652,57.335934 c 7.01953,0 12.91797,-5.51171 13.14063,-12.52734 0.008,-0.1875 0.008,-0.375 0.008,-0.558594 0,-9.527343 -7.72266,-17.25 -17.2461,-17.25 -0.16796,0 -0.33593,0.0078 -0.5,0.01172 V 27 c 0,-4.246093 -3.44531,-7.691406 -7.6914,-7.691406 -1.70313,0 -3.27344,0.554688 -4.54688,1.492188 -2.57422,-8 -10.07421,-13.785157 -18.92578,-13.785157 -10.49609,0 -19.085935,8.128907 -19.828122,18.433594 C 5.65625,26.851563 0,33.40625 0,41.28125 c 0,7.191407 4.710937,13.277344 11.214843,15.347654 1.5625,0.5 3.203125,0.70703 4.839844,0.70703 h 52.660155" id="path1196"/>
  <path style="fill:#ffffff;fill-opacity:1;fill-rule:nonzero;stroke:none" d="m 245.99981,50.320314 c 7.02343,0 12.91797,-5.51172 13.14062,-12.527345 0.008,-0.1875 0.0117,-0.375 0.0117,-0.5625 0,-9.523437 -7.72266,-17.246094 -17.25,-17.246094 -0.16797,0 -0.33203,0.0078 -0.5,0.01172 v -0.01172 c 0,-4.246093 -3.44141,-7.691406 -7.6875,-7.691406 -1.70312,0 -3.27734,0.554688 -4.54687,1.488281 C 226.58963,5.785157 219.08963,0 210.23807,0 c -10.49219,0 -19.08203,8.128907 -19.82422,18.433594 -7.47266,1.402344 -13.125,7.953125 -13.125,15.832031 0,7.191407 4.71094,13.277344 11.21484,15.347659 1.5586,0.49609 3.20313,0.70703 4.83985,0.70703 h 52.65625" id="path1198"/>
  <path style="fill:#2775b6;fill-opacity:1;fill-rule:nonzero;stroke:none" d="m 305.19903,69.800784 c -0.9336,-0.46485 -1.3125,-1.60156 -0.84766,-2.53125 0.46484,-0.9336 1.59766,-1.31641 2.53125,-0.85156 0.93359,0.46484 1.3125,1.59765 0.84766,2.53125 -0.46485,0.93359 -1.59766,1.3125 -2.53125,0.85156 z m 51.4375,11.03515 -1.28125,2.57422 -2.73829,-1.36328 0.75,-1.5 -2.41406,-1.20312 -1.39062,2.78906 -1.76953,-0.87891 -2.47657,4.97656 -21.40625,-10.65234 1.34766,-2.70312 -2.13672,-1.0625 c 0.28516,-4.35157 -2.01172,-8.65625 -6.16016,-10.71875 -5.51171,-2.74219 -12.20312,-0.5 -14.94531,5.01172 -2.74219,5.51171 -0.49609,12.20312 5.01563,14.94531 4.14843,2.0625 8.96484,1.30078 12.26172,-1.55078 l -0.0625,0.125 2.13671,1.0625 1.40625,-2.82813 31.06641,15.45313 0.53516,-1.07422 0.59765,-1.20313 4.39844,-8.83984 -2.73437,-1.35938" id="path1200"/>
  <path style="fill:#2775b6;fill-opacity:1;fill-rule:nonzero;stroke:none" d="m 64.800592,43.441407 0.0117,-0.15625 z m -0.0312,0.359375 0.0156,-0.109375 z m -0.0508,0.382812 0.0117,-0.07031 z m 0.0977,-1.082031 0.004,-0.214844 z m -0.82031,3.347656 0.0508,-0.113281 z m 0.64844,-1.863281 0.004,-0.02344 v 0.01563 z m -0.72656,2.007812 -0.11719,0.214844 z m -2.21485,0.132813 c -2.09375,2.617191 -5.91015,3.046871 -8.52734,0.953125 -2.61719,-2.089844 -3.04688,-5.90625 -0.95703,-8.527344 2.09375,-2.617187 5.91015,-3.042969 8.52734,-0.953125 2.62109,2.089844 3.04688,5.910156 0.95703,8.527344 z m -0.51562,2.839841 0.10937,-0.0703 z m 0.25,-0.16406 0.20703,-0.15234 z m -2.71485,1.19531 0.14063,-0.0352 z m -0.41406,0.082 0.17578,-0.0312 z m -0.39844,0.0586 0.21094,-0.0273 z m -0.39062,0.0391 0.24609,-0.0195 z m 1.66015,-0.30078 0.0742,-0.0195 -0.0195,0.004 z m -2.07812,0.32031 c 0.10547,0 0.21094,-0.004 0.32031,-0.0117 -0.11328,0.008 -0.21875,0.0117 -0.32031,0.0117 z m -4.28516,-14.535155 -0.043,0.02734 z m 0.29688,-0.175781 -0.043,0.02734 z m 0.32422,-0.171875 -0.043,0.02344 z m 0.35156,-0.164063 -0.0469,0.02344 z m 0.37891,-0.15625 -0.0547,0.02344 z m -1.70704,0.90625 -0.17968,0.128907 z m 3.07422,-1.285156 -0.16797,0.03125 z m 0.47657,-0.07422 c -0.0898,0.01172 -0.1836,0.02344 -0.27735,0.03906 0.0977,-0.01563 0.1875,-0.02734 0.27735,-0.03906 z m -1.44532,0.316407 -0.0312,0.0078 0.0234,-0.0078 z m 10.25,7.308593 c 0,-0.101562 -0.004,-0.203125 -0.0117,-0.300781 0.008,0.09375 0.0117,0.195313 0.0117,0.300781 z m -15.69531,-0.308593 -0.0117,0.179687 z m 0.0234,-0.308594 -0.0117,0.101562 z m 0.043,-0.347656 -0.008,0.05078 z m 0.0664,-0.390625 -0.008,0.03516 z m -0.14843,1.359375 -0.004,0.257812 z m 0.35937,-2.183594 -0.004,0.01172 z m 0.13281,-0.390625 -0.004,0.0078 z m 0.14844,-0.371094 -0.0117,0.03125 z m 0.16797,-0.359375 -0.043,0.08984 z m 0.19141,-0.363281 -0.0937,0.171875 z m -0.75789,1.894522 -0.008,0.02734 0.004,-0.01172 z m 15.39453,0.824219 c 0.0234,0.175781 0.0469,0.382812 0.0625,0.609375 -0.0703,-1.035156 -0.33984,-2.054688 -0.80859,-2.996094 0.67578,-0.765625 1.35156,-1.53125 2.02734,-2.300781 l -3.98828,-3.625 c -0.67578,0.730469 -1.34765,1.460937 -2.02343,2.191406 -1.25,-0.527344 -2.60157,-0.714844 -3.91407,-0.570312 0.48047,-0.05469 0.89844,-0.05469 1.22266,-0.04297 -0.32813,-0.96875 -0.65625,-1.941406 -0.98438,-2.910156 l -5.13281,1.648437 c 0.30469,0.972656 0.60938,1.949219 0.91797,2.925781 l 0.0781,-0.0625 c -0.50391,0.382813 -0.96875,0.832032 -1.37891,1.347657 -0.24219,0.308593 -0.46094,0.625 -0.65234,0.953125 0.11328,-0.195313 0.22656,-0.371094 0.32421,-0.515625 -0.99609,-0.234375 -1.99218,-0.46875 -2.99218,-0.707032 l -1.32031,5.222657 c 0.98828,0.261718 1.97656,0.519531 2.96484,0.777343 -0.0195,-0.191406 -0.0352,-0.417968 -0.0391,-0.667968 0.0391,1.867187 0.73828,3.707031 2.05468,5.144531 -0.67968,-0.730469 -1.08984,-1.449219 -1.32812,-1.945313 -0.69922,0.746094 -1.40235,1.496094 -2.10156,2.246094 l 3.88281,3.738286 c 0.70703,-0.72266 1.41797,-1.44922 2.125,-2.17188 1.0625,0.48047 2.20312,0.70703 3.33594,0.6875 -0.22657,0.004 -0.42969,0 -0.60547,-0.0117 0.3125,0.97657 0.625,1.95313 0.9375,2.92969 l 5.15625,-1.5625 c -0.28907,-0.97656 -0.57813,-1.95703 -0.86328,-2.9375 l -0.008,0.004 c 0.51563,-0.386723 0.98828,-0.847661 1.41016,-1.375005 0.25,-0.3125 0.46875,-0.632812 0.66406,-0.96875 -0.0586,0.101563 -0.11719,0.199219 -0.17187,0.28125 1.00781,0.199219 2.01172,0.398438 3.01562,0.597657 l 1.125,-5.273438 c -0.99609,-0.21875 -1.99609,-0.4375 -2.99219,-0.660156" id="path1202"/>
  <path style="fill:#2775b6;fill-opacity:1;fill-rule:nonzero;stroke:none" d="m 44.527152,31.28125 -0.0703,-0.222656 z m 0.14844,0.523438 -0.043,-0.164063 z m 0.12891,0.5625 -0.0195,-0.105469 z m -0.4375,-1.574219 c -0.0391,-0.101562 -0.0742,-0.203125 -0.11329,-0.300781 0.0391,0.09766 0.0742,0.195312 0.11329,0.300781 z m 0.62109,5.144531 0.0195,-0.1875 z m -0.0742,-2.964843 -0.004,-0.03516 0.004,0.02344 z m 0.0469,3.207031 c -0.0156,0.128906 -0.0312,0.25 -0.0508,0.371094 0.0195,-0.125 0.0352,-0.246094 0.0508,-0.371094 z m -3.04297,1.367187 c -1.54688,4.792969 -6.6875,7.425782 -11.48047,5.878907 -4.78906,-1.546875 -7.42188,-6.683594 -5.87891,-11.476563 1.54688,-4.792969 6.6875,-7.425781 11.48047,-5.878906 4.79297,1.546875 7.42188,6.683594 5.87891,11.476562 z m 0.78906,4.261719 0.11328,-0.152344 z m 0.25781,-0.363281 c 0.0742,-0.105469 0.14844,-0.210938 0.21485,-0.320313 -0.0625,0.101563 -0.13672,0.210938 -0.21485,0.320313 z m -3.17578,3.125 0.17578,-0.117188 z m -0.53516,0.339844 0.22657,-0.140625 z m -0.53125,0.296875 c 0.0937,-0.05078 0.1875,-0.101563 0.28125,-0.152344 -0.0937,0.05078 -0.1875,0.101562 -0.28125,0.152344 z m -0.53125,0.261718 c 0.11329,-0.05469 0.22657,-0.109375 0.33985,-0.164062 -0.11719,0.05859 -0.23047,0.113281 -0.33985,0.164062 z m 2.17579,-1.304687 0.0937,-0.07031 -0.0234,0.01563 z m -2.75,1.550781 c 0.14843,-0.05859 0.29296,-0.121094 0.4375,-0.183594 -0.14844,0.06641 -0.29688,0.128907 -0.4375,0.183594 z m -13.75782,-18.144531 -0.043,0.05469 z m 0.32813,-0.410156 -0.0508,0.0625 z m 0.36328,-0.410157 -0.0508,0.05469 z m 0.40625,-0.421875 -0.0586,0.05859 z m 0.44531,-0.417968 -0.0625,0.05859 z m -1.91797,2.179687 c -0.0625,0.08984 -0.125,0.183594 -0.18359,0.277344 0.0547,-0.08984 0.11719,-0.183594 0.18359,-0.277344 z m 3.64063,-3.441406 -0.22266,0.132812 z m 0.6289,-0.359375 c -0.12109,0.06641 -0.24609,0.132812 -0.36718,0.199219 0.125,-0.07031 0.24609,-0.136719 0.36718,-0.199219 z m -1.86718,1.214844 -0.0352,0.02734 0.0312,-0.02344 z m 18.30078,4.820312 c -0.0547,-0.140625 -0.11328,-0.28125 -0.17578,-0.417969 0.0586,0.132813 0.11718,0.269532 0.17578,0.417969 z m -22.22656,7.917969 0.082,0.257812 z m -0.13282,-0.449219 0.0391,0.148438 z m -0.125,-0.507812 0.0195,0.07813 z m -0.11328,-0.582032 0.0117,0.05078 z m 0.51563,1.984375 c 0.043,0.121094 0.0859,0.242188 0.13672,0.363282 -0.0469,-0.117188 -0.0898,-0.238282 -0.13672,-0.363282 z m -0.65625,-3.261718 v 0.02344 z m -0.0234,-0.617188 0.004,0.01172 z m 0.0156,-0.601562 -0.004,0.05078 z m 0.043,-0.59375 -0.0156,0.152343 z m 0.0742,-0.609375 c -0.0156,0.09375 -0.0273,0.191406 -0.0391,0.289062 0.0117,-0.101562 0.0234,-0.195312 0.0391,-0.289062 z m -0.0547,3.066406 0.004,0.03906 -0.004,-0.01953 z m 22.07422,-7.035156 c 0.12891,0.234375 0.26953,0.511718 0.41407,0.824218 -0.64844,-1.417968 -1.57422,-2.707031 -2.73438,-3.78125 0.54297,-1.4375 1.08594,-2.875 1.625,-4.3125 l -7.53125,-2.972656 c -0.55859,1.382813 -1.11719,2.769531 -1.67578,4.152344 -2.04297,-0.07813 -4.03906,0.378906 -5.80859,1.285156 0.65234,-0.335937 1.23828,-0.558594 1.69921,-0.710937 -0.98046,-1.1875 -1.95703,-2.378907 -2.93359,-3.570313 l -6.336,5.046875 c 0.94532,1.207031 1.89453,2.417969 2.83985,3.625 l 0.0781,-0.125 c -0.5,0.804688 -0.91406,1.683594 -1.21484,2.625 -0.1836,0.558594 -0.31641,1.125 -0.41016,1.6875 0.0547,-0.335937 0.11719,-0.640625 0.17969,-0.898437 -1.52734,0.199218 -3.054689,0.398437 -4.582032,0.597656 l 0.921875,8.046875 c 1.527343,-0.164063 3.054687,-0.324219 4.582027,-0.488281 -0.1289,-0.257813 -0.27343,-0.566407 -0.41015,-0.917969 1.04297,2.601562 3.00781,4.816406 5.625,6.136719 -1.34375,-0.664063 -2.30469,-1.453125 -2.90625,-2.027344 -0.58203,1.425781 -1.16797,2.847656 -1.75391,4.273437 l 7.44531,3.191404 c 0.60938,-1.39453 1.21875,-2.78906 1.82813,-4.183591 1.75391,0.109375 3.47656,-0.179688 5.0625,-0.808594 -0.31641,0.125 -0.60938,0.226563 -0.86328,0.304688 0.96094,1.207031 1.91797,2.414062 2.875,3.621097 l 6.41797,-4.937504 c -0.92578,-1.226562 -1.85157,-2.449218 -2.77735,-3.671875 l -0.008,0.0078 c 0.51563,-0.820313 0.94141,-1.714844 1.25391,-2.679688 0.18359,-0.570312 0.32031,-1.144531 0.41406,-1.71875 -0.0273,0.175782 -0.0586,0.34375 -0.0898,0.492188 1.51953,-0.257813 3.03906,-0.515625 4.55859,-0.769531 l -1.22639,-8.0078 c -1.51953,0.222656 -3.03907,0.441406 -4.5586,0.664063" id="path1204"/>
  <path style="fill:#2775b6;fill-opacity:1;fill-rule:nonzero;stroke:none" d="m 240.64043,34.113282 c 0.0391,-3.78125 -3.0039,-6.890625 -6.78906,-6.929688 l -10.97266,-0.113281 c -3.78515,-0.03906 -6.89453,3.003906 -6.93359,6.789062 -0.0391,3.78125 3.00781,6.890625 6.78906,6.929688 l 10.97656,0.113281 c 3.78125,0.03906 6.89063,-3.007812 6.92969,-6.789062 z m -28.80859,-0.296875 c 0.0586,-6.054688 5.03515,-10.925782 11.08984,-10.863282 l 10.97266,0.113282 c 6.05469,0.0625 10.92578,5.035156 10.86328,11.089843 -0.0625,6.050782 -5.03906,10.925782 -11.08984,10.863282 L 222.69121,44.90625 c -6.05078,-0.0625 -10.92578,-5.039062 -10.85937,-11.089843" id="path1206"/>
  <path style="fill:#2775b6;fill-opacity:1;fill-rule:nonzero;stroke:none" d="m 213.97637,44.074219 c 1,-0.347656 1.84766,-0.757812 2.53516,-1.15625 -1.1875,-0.835937 -2.20313,-1.902344 -2.98047,-3.132812 -1.04688,0.511718 -2.26172,0.886718 -3.26563,0.875 l -10.08203,-0.105469 -0.89453,-0.0078 c -1.41797,-0.01563 -2.73438,-0.460937 -3.82031,-1.210937 -1.8125,-1.253906 -2.99219,-3.355469 -2.96875,-5.71875 0.0391,-3.785156 3.14843,-6.828125 6.92968,-6.789063 l 2.60547,0.02344 4.17969,0.04687 4.19141,0.04297 c 0.21093,0 0.41797,0.01563 0.62109,0.03516 l 0.14453,0.01563 c 0.19531,0.02344 0.39063,0.05469 0.58203,0.09766 l 0.11328,0.02734 c 0.16016,0.03516 0.32032,0.07813 0.47657,0.128906 l 0.14843,0.04297 c 0.17188,0.05859 0.34375,0.121094 0.51172,0.195312 l 0.16407,0.07031 c 0.13671,0.0625 0.26953,0.128906 0.40234,0.203125 l 0.12109,0.0625 c 1.28516,0.722656 2.3086,1.851562 2.91016,3.203125 0.0937,0.214844 0.17969,0.4375 0.25391,0.664062 l 0.004,0.0039 c 0.0664,0.214843 0.125,0.433593 0.17578,0.65625 l 0.0156,0.05469 c 0.0391,0.203125 0.0703,0.410156 0.0937,0.617188 l 0.0195,0.117187 c 0.0195,0.238281 0.0352,0.484375 0.0312,0.730469 v 0.0039 c -0.004,0.167969 -0.0195,0.328125 -0.0312,0.492188 -0.0781,0.800781 -0.32031,1.664062 -0.62109,2.359375 0.1914,0.457031 0.52734,1.121093 1.12109,1.785156 0.65234,0.738281 1.34766,1.175781 1.8125,1.417969 0.61719,-0.992188 1.60156,-2.871094 1.79687,-5.269532 l 0.004,-0.04687 c 0.0195,-0.226562 0.0312,-0.460937 0.0352,-0.695312 0,-0.246094 -0.008,-0.492188 -0.0195,-0.738281 l -0.0117,-0.183594 c -0.0195,-0.226563 -0.0391,-0.453125 -0.0703,-0.679688 l -0.004,-0.04297 c -0.0352,-0.242188 -0.0781,-0.484375 -0.12891,-0.71875 l -0.0312,-0.140625 c -0.0508,-0.226563 -0.10937,-0.449219 -0.17187,-0.671875 l -0.008,-0.02734 c -0.0703,-0.242203 -0.1523,-0.480484 -0.23824,-0.714859 l -0.0273,-0.06641 c -0.0859,-0.230469 -0.17969,-0.460938 -0.28125,-0.683594 -0.10938,-0.234375 -0.22656,-0.46875 -0.35156,-0.695312 l -0.004,-0.0039 c -0.93359,-1.707031 -2.30859,-3.140625 -3.96875,-4.144531 l -0.0234,-0.01563 c -0.44922,-0.269531 -0.92187,-0.507812 -1.41015,-0.710937 l -0.0742,-0.03125 c -0.23047,-0.09766 -0.46875,-0.1875 -0.70703,-0.265625 l -0.0234,-0.0078 c -0.23828,-0.07813 -0.48438,-0.148437 -0.73047,-0.210937 l -0.13672,-0.03125 c -0.23437,-0.05859 -0.47265,-0.109375 -0.71484,-0.148438 l -0.0352,-0.0078 c -0.24609,-0.03906 -0.49609,-0.07031 -0.75,-0.09375 l -0.17578,-0.01563 c -0.25391,-0.01953 -0.50781,-0.03516 -0.76562,-0.03906 l -5.8125,-0.05859 -2.38282,-0.02734 -2.78125,-0.02734 c -0.94531,-0.01172 -1.86328,0.101562 -2.74218,0.316406 -4.7461,1.171875 -8.29297,5.441406 -8.34766,10.546875 -0.0508,5.105469 3.41016,9.445313 8.125,10.714844 0.875,0.234375 1.79297,0.363281 2.73828,0.375 l 0.44531,0.0039 10.53125,0.109375 c 1.16016,0.01172 2.48438,-0.261719 3.75391,-0.703125" id="path1208"/>
  <path style="fill:#abd9e3;fill-opacity:1;fill-rule:nonzero;stroke:none" d="M 104.76543,177.98046 H 45.734182 v -26.63671 h 1 v 25.63671 h 58.031248 v 1" id="path1210"/>
  <path style="fill:#abd9e3;fill-opacity:1;fill-rule:nonzero;stroke:none" d="m 114.7459,121.71093 h -1 v -5.55468 H 82.441212 V 87.527344 h -44.16406 v -27.60547 h 1 v 26.60547 h 44.16406 V 115.15625 H 114.7459 v 6.55468" id="path1212"/>
  <path style="fill:#abd9e3;fill-opacity:1;fill-rule:nonzero;stroke:none" d="m 134.30449,124.83984 h -1 v -17.66797 h 1 v 17.66797" id="path1214"/>
  <path style="fill:#abd9e3;fill-opacity:1;fill-rule:nonzero;stroke:none" d="m 191.84746,124.83984 h -1 V 70.890624 h 21.22266 v -11.46875 h 5.64844 v -9.70703 h 1 v 10.70703 h -5.64844 v 11.46875 h -21.22266 v 52.949216" id="path1216"/>
  <path style="fill:#abd9e3;fill-opacity:1;fill-rule:nonzero;stroke:none" d="m 305.50371,149.67578 h -8.09375 v -1 h 7.09375 v -35.72657 h -21.59375 v -1 h 22.59375 v 37.72657" id="path1218"/>
  <path style="fill:#abd9e3;fill-opacity:1;fill-rule:nonzero;stroke:none" d="m 330.60918,159.17578 h -31.30859 v -1 h 30.30859 V 98.675784 h 1 v 60.499996" id="path1220"/>
</svg>