<?xml version="1.0" encoding="UTF-8" standalone="no"?><svg xmlns="http://www.w3.org/2000/svg" xmlns:xlink="http://www.w3.org/1999/xlink" contentStyleType="text/css" height="3709px" preserveAspectRatio="none" style="width:1730px;height:3709px;background:#FFFFFF;" version="1.1" viewBox="0 0 1730 3709" width="1730px" zoomAndPan="magnify"><defs><filter height="300%" id="flnmw3xaxqdm3" width="300%" x="-1" y="-1"><feGaussianBlur result="blurOut" stdDeviation="2.0"/><feColorMatrix in="blurOut" result="blurOut2" type="matrix" values="0 0 0 0 0 0 0 0 0 0 0 0 0 0 0 0 0 0 .4 0"/><feOffset dx="4.0" dy="4.0" in="blurOut2" result="blurOut3"/><feBlend in="SourceGraphic" in2="blurOut3" mode="normal"/></filter></defs><g><rect fill="#F1F1F1" filter="url(#flnmw3xaxqdm3)" height="36.2969" rx="12.5" ry="12.5" style="stroke:#181818;stroke-width:1.5;" width="90" x="10" y="1835.5742"/><text fill="#000000" font-family="sans-serif" font-size="14" lengthAdjust="spacing" textLength="70" x="20" y="1858.5693">时间的朋友</text><rect fill="#F1F1F1" filter="url(#flnmw3xaxqdm3)" height="36.2969" rx="12.5" ry="12.5" style="stroke:#181818;stroke-width:1.5;" width="48" x="150" y="301.4844"/><text fill="#000000" font-family="sans-serif" font-size="14" lengthAdjust="spacing" textLength="28" x="160" y="324.4795">开篇</text><rect fill="#F1F1F1" filter="url(#flnmw3xaxqdm3)" height="36.2969" rx="12.5" ry="12.5" style="stroke:#181818;stroke-width:1.5;" width="314" x="248" y="20"/><text fill="#000000" font-family="sans-serif" font-size="14" lengthAdjust="spacing" textLength="294" x="258" y="42.9951">你有你的计划，这个世界另有计划。——万维钢</text><path d="M198,319.6328 L208,319.6328 C223,319.6328 223,38.1484 238,38.1484 L248,38.1484 " fill="none" style="stroke:#181818;stroke-width:1.0;"/><rect fill="#F1F1F1" filter="url(#flnmw3xaxqdm3)" height="36.2969" rx="12.5" ry="12.5" style="stroke:#181818;stroke-width:1.5;" width="431" x="248" y="76.2969"/><text fill="#000000" font-family="sans-serif" font-size="14" lengthAdjust="spacing" textLength="411" x="258" y="99.292">以前，变化是生活的一部分;现在，变化成了生活本身。——和菜头</text><rect fill="#F1F1F1" filter="url(#flnmw3xaxqdm3)" height="36.2969" rx="12.5" ry="12.5" style="stroke:#181818;stroke-width:1.5;" width="118" x="729" y="20"/><text fill="#000000" font-family="sans-serif" font-size="14" lengthAdjust="spacing" textLength="98" x="739" y="42.9951">黑天鹅就是家禽</text><path d="M679,94.4453 L689,94.4453 C704,94.4453 704,38.1484 719,38.1484 L729,38.1484 " fill="none" style="stroke:#181818;stroke-width:1.0;"/><rect fill="#F1F1F1" filter="url(#flnmw3xaxqdm3)" height="36.2969" rx="12.5" ry="12.5" style="stroke:#181818;stroke-width:1.5;" width="412" x="729" y="76.2969"/><text fill="#000000" font-family="sans-serif" font-size="14" lengthAdjust="spacing" textLength="392" x="739" y="99.292">我们必须习惯，这个世界抽换掉一些我们喜欢的、熟悉的东西。</text><path d="M679,94.4453 L689,94.4453 C704,94.4453 704,94.4453 719,94.4453 L729,94.4453 " fill="none" style="stroke:#181818;stroke-width:1.0;"/><rect fill="#F1F1F1" filter="url(#flnmw3xaxqdm3)" height="36.2969" rx="12.5" ry="12.5" style="stroke:#181818;stroke-width:1.5;" width="496" x="729" y="132.5938"/><text fill="#000000" font-family="sans-serif" font-size="14" lengthAdjust="spacing" textLength="476" x="739" y="155.5889">成年的滋味总是很复杂，熟悉的也许只能用来怀念，依赖的也许必须要放手。</text><path d="M679,94.4453 L689,94.4453 C704,94.4453 704,150.7422 719,150.7422 L729,150.7422 " fill="none" style="stroke:#181818;stroke-width:1.0;"/><path d="M198,319.6328 L208,319.6328 C223,319.6328 223,94.4453 238,94.4453 L248,94.4453 " fill="none" style="stroke:#181818;stroke-width:1.0;"/><rect fill="#F1F1F1" filter="url(#flnmw3xaxqdm3)" height="36.2969" rx="12.5" ry="12.5" style="stroke:#181818;stroke-width:1.5;" width="48" x="248" y="188.8906"/><text fill="#000000" font-family="sans-serif" font-size="14" lengthAdjust="spacing" textLength="28" x="258" y="211.8857">告别</text><rect fill="#F1F1F1" filter="url(#flnmw3xaxqdm3)" height="36.2969" rx="12.5" ry="12.5" style="stroke:#181818;stroke-width:1.5;" width="920" x="346" y="188.8906"/><text fill="#000000" font-family="sans-serif" font-size="14" lengthAdjust="spacing" textLength="900" x="356" y="211.8857">纪梵希、霍金、李敖、奈保尔、安南、常宝华、盛中国、单田芳、朱旭、高坤、是圣经、饶宗颐、李咏、金庸、蓝洁瑛、常贵田、斯坦.李、二月河</text><path d="M296,207.0391 L306,207.0391 C321,207.0391 321,207.0391 336,207.0391 L346,207.0391 " fill="none" style="stroke:#181818;stroke-width:1.0;"/><path d="M198,319.6328 L208,319.6328 C223,319.6328 223,207.0391 238,207.0391 L248,207.0391 " fill="none" style="stroke:#181818;stroke-width:1.0;"/><rect fill="#F1F1F1" filter="url(#flnmw3xaxqdm3)" height="36.2969" rx="12.5" ry="12.5" style="stroke:#181818;stroke-width:1.5;" width="76" x="248" y="414.0781"/><text fill="#000000" font-family="sans-serif" font-size="14" lengthAdjust="spacing" textLength="56" x="258" y="437.0732">做事的人</text><rect fill="#F1F1F1" filter="url(#flnmw3xaxqdm3)" height="36.2969" rx="12.5" ry="12.5" style="stroke:#181818;stroke-width:1.5;" width="188" x="374" y="245.1875"/><text fill="#000000" font-family="sans-serif" font-size="14" lengthAdjust="spacing" textLength="168" x="384" y="268.1826">跨年演讲，为做事的人服务</text><path d="M324,432.2266 L334,432.2266 C349,432.2266 349,263.3359 364,263.3359 L374,263.3359 " fill="none" style="stroke:#181818;stroke-width:1.0;"/><rect fill="#F1F1F1" filter="url(#flnmw3xaxqdm3)" height="36.2969" rx="12.5" ry="12.5" style="stroke:#181818;stroke-width:1.5;" width="272" x="374" y="301.4844"/><text fill="#000000" font-family="sans-serif" font-size="14" lengthAdjust="spacing" textLength="252" x="384" y="324.4795">做事的人要搞定的无非是一张时间表而已</text><path d="M324,432.2266 L334,432.2266 C349,432.2266 349,319.6328 364,319.6328 L374,319.6328 " fill="none" style="stroke:#181818;stroke-width:1.0;"/><rect fill="#F1F1F1" filter="url(#flnmw3xaxqdm3)" height="36.2969" rx="12.5" ry="12.5" style="stroke:#181818;stroke-width:1.5;" width="552" x="374" y="357.7813"/><text fill="#000000" font-family="sans-serif" font-size="14" lengthAdjust="spacing" textLength="532" x="384" y="380.7764">做事的人无所谓悲观还是乐观，我们只关心如何把事做好，让自己的事业处于上升期。</text><path d="M324,432.2266 L334,432.2266 C349,432.2266 349,375.9297 364,375.9297 L374,375.9297 " fill="none" style="stroke:#181818;stroke-width:1.0;"/><rect fill="#F1F1F1" filter="url(#flnmw3xaxqdm3)" height="36.2969" rx="12.5" ry="12.5" style="stroke:#181818;stroke-width:1.5;" width="454" x="374" y="414.0781"/><text fill="#000000" font-family="sans-serif" font-size="14" lengthAdjust="spacing" textLength="434" x="384" y="437.0732">宏观是我们必须接受的，微观才是我们可以有所作为的。——查理芒格</text><path d="M324,432.2266 L334,432.2266 C349,432.2266 349,432.2266 364,432.2266 L374,432.2266 " fill="none" style="stroke:#181818;stroke-width:1.0;"/><rect fill="#F1F1F1" filter="url(#flnmw3xaxqdm3)" height="36.2969" rx="12.5" ry="12.5" style="stroke:#181818;stroke-width:1.5;" width="272" x="374" y="470.375"/><text fill="#000000" font-family="sans-serif" font-size="14" lengthAdjust="spacing" textLength="252" x="384" y="493.3701">我们是伞兵。伞兵，天生就是被包围的。</text><path d="M324,432.2266 L334,432.2266 C349,432.2266 349,488.5234 364,488.5234 L374,488.5234 " fill="none" style="stroke:#181818;stroke-width:1.0;"/><rect fill="#F1F1F1" filter="url(#flnmw3xaxqdm3)" height="36.2969" rx="12.5" ry="12.5" style="stroke:#181818;stroke-width:1.5;" width="510" x="374" y="526.6719"/><text fill="#000000" font-family="sans-serif" font-size="14" lengthAdjust="spacing" textLength="490" x="384" y="549.667">对做事的人来说，难就不干了吗？对不做事的人来说，难不难跟他有什么关系？</text><path d="M324,432.2266 L334,432.2266 C349,432.2266 349,544.8203 364,544.8203 L374,544.8203 " fill="none" style="stroke:#181818;stroke-width:1.0;"/><rect fill="#F1F1F1" filter="url(#flnmw3xaxqdm3)" height="36.2969" rx="12.5" ry="12.5" style="stroke:#181818;stroke-width:1.5;" width="566" x="374" y="582.9688"/><text fill="#000000" font-family="sans-serif" font-size="14" lengthAdjust="spacing" textLength="546" x="384" y="605.9639">世界上只有一种真正的英雄主义，就是认清了生活的真相，还仍然热爱它。——罗曼罗兰</text><path d="M324,432.2266 L334,432.2266 C349,432.2266 349,601.1172 364,601.1172 L374,601.1172 " fill="none" style="stroke:#181818;stroke-width:1.0;"/><path d="M198,319.6328 L208,319.6328 C223,319.6328 223,432.2266 238,432.2266 L248,432.2266 " fill="none" style="stroke:#181818;stroke-width:1.0;"/><path d="M100,1853.7227 L110,1853.7227 C125,1853.7227 125,319.6328 140,319.6328 L150,319.6328 " fill="none" style="stroke:#181818;stroke-width:1.0;"/><rect fill="#F1F1F1" filter="url(#flnmw3xaxqdm3)" height="36.2969" rx="12.5" ry="12.5" style="stroke:#181818;stroke-width:1.5;" width="62" x="150" y="977.0469"/><text fill="#000000" font-family="sans-serif" font-size="14" lengthAdjust="spacing" textLength="42" x="160" y="1000.042">小趋势</text><rect fill="#F1F1F1" filter="url(#flnmw3xaxqdm3)" height="36.2969" rx="12.5" ry="12.5" style="stroke:#181818;stroke-width:1.5;" width="144" x="262" y="639.2656"/><text fill="#000000" font-family="sans-serif" font-size="14" lengthAdjust="spacing" textLength="124" x="272" y="662.2607">2018 不能再随大流</text><rect fill="#F1F1F1" filter="url(#flnmw3xaxqdm3)" height="36.2969" rx="12.5" ry="12.5" style="stroke:#181818;stroke-width:1.5;" width="230" x="456" y="639.2656"/><text fill="#000000" font-family="sans-serif" font-size="14" lengthAdjust="spacing" textLength="210" x="466" y="662.2607">宁可被说成猪，也一定要挤在风口</text><path d="M406,657.4141 L416,657.4141 C431,657.4141 431,657.4141 446,657.4141 L456,657.4141 " fill="none" style="stroke:#181818;stroke-width:1.0;"/><path d="M212,995.1953 L222,995.1953 C237,995.1953 237,657.4141 252,657.4141 L262,657.4141 " fill="none" style="stroke:#181818;stroke-width:1.0;"/><rect fill="#F1F1F1" filter="url(#flnmw3xaxqdm3)" height="36.2969" rx="12.5" ry="12.5" style="stroke:#181818;stroke-width:1.5;" width="90" x="262" y="780.0078"/><text fill="#000000" font-family="sans-serif" font-size="14" lengthAdjust="spacing" textLength="70" x="272" y="803.0029">小趋势举例</text><rect fill="#F1F1F1" filter="url(#flnmw3xaxqdm3)" height="36.2969" rx="12.5" ry="12.5" style="stroke:#181818;stroke-width:1.5;" width="193" x="402" y="695.5625"/><text fill="#000000" font-family="sans-serif" font-size="14" lengthAdjust="spacing" textLength="173" x="412" y="718.5576">移动支付-信用的数据化基石</text><path d="M352,798.1563 L362,798.1563 C377,798.1563 377,713.7109 392,713.7109 L402,713.7109 " fill="none" style="stroke:#181818;stroke-width:1.0;"/><rect fill="#F1F1F1" filter="url(#flnmw3xaxqdm3)" height="36.2969" rx="12.5" ry="12.5" style="stroke:#181818;stroke-width:1.5;" width="212" x="402" y="751.8594"/><text fill="#000000" font-family="sans-serif" font-size="14" lengthAdjust="spacing" textLength="192" x="412" y="774.8545">5G 时代，清空台面，再来一局</text><path d="M352,798.1563 L362,798.1563 C377,798.1563 377,770.0078 392,770.0078 L402,770.0078 " fill="none" style="stroke:#181818;stroke-width:1.0;"/><rect fill="#F1F1F1" filter="url(#flnmw3xaxqdm3)" height="36.2969" rx="12.5" ry="12.5" style="stroke:#181818;stroke-width:1.5;" width="306" x="402" y="808.1563"/><text fill="#000000" font-family="sans-serif" font-size="14" lengthAdjust="spacing" textLength="286" x="412" y="831.1514">猫砂：1947 最伟大的发明之一 —— 狗想不通</text><path d="M352,798.1563 L362,798.1563 C377,798.1563 377,826.3047 392,826.3047 L402,826.3047 " fill="none" style="stroke:#181818;stroke-width:1.0;"/><rect fill="#F1F1F1" filter="url(#flnmw3xaxqdm3)" height="36.2969" rx="12.5" ry="12.5" style="stroke:#181818;stroke-width:1.5;" width="342" x="402" y="864.4531"/><text fill="#000000" font-family="sans-serif" font-size="14" lengthAdjust="spacing" textLength="322" x="412" y="887.4482">大趋势不是我们普通人的游戏，死心吧，寻找小趋势</text><path d="M352,798.1563 L362,798.1563 C377,798.1563 377,882.6016 392,882.6016 L402,882.6016 " fill="none" style="stroke:#181818;stroke-width:1.0;"/><path d="M212,995.1953 L222,995.1953 C237,995.1953 237,798.1563 252,798.1563 L262,798.1563 " fill="none" style="stroke:#181818;stroke-width:1.0;"/><rect fill="#F1F1F1" filter="url(#flnmw3xaxqdm3)" height="36.2969" rx="12.5" ry="12.5" style="stroke:#181818;stroke-width:1.5;" width="104" x="262" y="948.8984"/><text fill="#000000" font-family="sans-serif" font-size="14" lengthAdjust="spacing" textLength="84" x="272" y="971.8936">小趋势的特点</text><rect fill="#F1F1F1" filter="url(#flnmw3xaxqdm3)" height="36.2969" rx="12.5" ry="12.5" style="stroke:#181818;stroke-width:1.5;" width="188" x="416" y="920.75"/><text fill="#000000" font-family="sans-serif" font-size="14" lengthAdjust="spacing" textLength="168" x="426" y="943.7451">小趋势不是大趋势的小时候</text><path d="M366,967.0469 L376,967.0469 C391,967.0469 391,938.8984 406,938.8984 L416,938.8984 " fill="none" style="stroke:#181818;stroke-width:1.0;"/><rect fill="#F1F1F1" filter="url(#flnmw3xaxqdm3)" height="36.2969" rx="12.5" ry="12.5" style="stroke:#181818;stroke-width:1.5;" width="300" x="416" y="977.0469"/><text fill="#000000" font-family="sans-serif" font-size="14" lengthAdjust="spacing" textLength="280" x="426" y="1000.042">小趋势是影响趋势的趋势，是带来改变的改变</text><path d="M366,967.0469 L376,967.0469 C391,967.0469 391,995.1953 406,995.1953 L416,995.1953 " fill="none" style="stroke:#181818;stroke-width:1.0;"/><path d="M212,995.1953 L222,995.1953 C237,995.1953 237,967.0469 252,967.0469 L262,967.0469 " fill="none" style="stroke:#181818;stroke-width:1.0;"/><rect fill="#F1F1F1" filter="url(#flnmw3xaxqdm3)" height="36.2969" rx="12.5" ry="12.5" style="stroke:#181818;stroke-width:1.5;" width="62" x="262" y="1061.4922"/><text fill="#000000" font-family="sans-serif" font-size="14" lengthAdjust="spacing" textLength="42" x="272" y="1084.4873">大趋势</text><rect fill="#F1F1F1" filter="url(#flnmw3xaxqdm3)" height="36.2969" rx="12.5" ry="12.5" style="stroke:#181818;stroke-width:1.5;" width="118" x="374" y="1033.3438"/><text fill="#000000" font-family="sans-serif" font-size="14" lengthAdjust="spacing" textLength="98" x="384" y="1056.3389">美团：超脑系统</text><path d="M324,1079.6406 L334,1079.6406 C349,1079.6406 349,1051.4922 364,1051.4922 L374,1051.4922 " fill="none" style="stroke:#181818;stroke-width:1.0;"/><rect fill="#F1F1F1" filter="url(#flnmw3xaxqdm3)" height="36.2969" rx="12.5" ry="12.5" style="stroke:#181818;stroke-width:1.5;" width="118" x="374" y="1089.6406"/><text fill="#000000" font-family="sans-serif" font-size="14" lengthAdjust="spacing" textLength="98" x="384" y="1112.6357">阿里：鹿班系统</text><path d="M324,1079.6406 L334,1079.6406 C349,1079.6406 349,1107.7891 364,1107.7891 L374,1107.7891 " fill="none" style="stroke:#181818;stroke-width:1.0;"/><path d="M212,995.1953 L222,995.1953 C237,995.1953 237,1079.6406 252,1079.6406 L262,1079.6406 " fill="none" style="stroke:#181818;stroke-width:1.0;"/><rect fill="#F1F1F1" filter="url(#flnmw3xaxqdm3)" height="36.2969" rx="12.5" ry="12.5" style="stroke:#181818;stroke-width:1.5;" width="104" x="262" y="1230.3828"/><text fill="#000000" font-family="sans-serif" font-size="14" lengthAdjust="spacing" textLength="84" x="272" y="1253.3779">小趋势的逻辑</text><rect fill="#F1F1F1" filter="url(#flnmw3xaxqdm3)" height="36.2969" rx="12.5" ry="12.5" style="stroke:#181818;stroke-width:1.5;" width="356" x="416" y="1145.9375"/><text fill="#000000" font-family="sans-serif" font-size="14" lengthAdjust="spacing" textLength="336" x="426" y="1168.9326">坏消息：每一班车停靠的时间都非常短，并且像末班车</text><path d="M366,1248.5313 L376,1248.5313 C391,1248.5313 391,1164.0859 406,1164.0859 L416,1164.0859 " fill="none" style="stroke:#181818;stroke-width:1.0;"/><rect fill="#F1F1F1" filter="url(#flnmw3xaxqdm3)" height="36.2969" rx="12.5" ry="12.5" style="stroke:#181818;stroke-width:1.5;" width="244" x="416" y="1202.2344"/><text fill="#000000" font-family="sans-serif" font-size="14" lengthAdjust="spacing" textLength="224" x="426" y="1225.2295">好消息：没有末班车，总有下一班车</text><path d="M366,1248.5313 L376,1248.5313 C391,1248.5313 391,1220.3828 406,1220.3828 L416,1220.3828 " fill="none" style="stroke:#181818;stroke-width:1.0;"/><rect fill="#F1F1F1" filter="url(#flnmw3xaxqdm3)" height="36.2969" rx="12.5" ry="12.5" style="stroke:#181818;stroke-width:1.5;" width="272" x="416" y="1258.5313"/><text fill="#000000" font-family="sans-serif" font-size="14" lengthAdjust="spacing" textLength="252" x="426" y="1281.5264">赶大趋势的人思考方式：只有……就好了</text><path d="M366,1248.5313 L376,1248.5313 C391,1248.5313 391,1276.6797 406,1276.6797 L416,1276.6797 " fill="none" style="stroke:#181818;stroke-width:1.0;"/><rect fill="#F1F1F1" filter="url(#flnmw3xaxqdm3)" height="36.2969" rx="12.5" ry="12.5" style="stroke:#181818;stroke-width:1.5;" width="454" x="416" y="1314.8281"/><text fill="#000000" font-family="sans-serif" font-size="14" lengthAdjust="spacing" textLength="434" x="426" y="1337.8232">赶小趋势的人思考方式：凡我赶不上的，我就做好准备，到未来等它。</text><path d="M366,1248.5313 L376,1248.5313 C391,1248.5313 391,1332.9766 406,1332.9766 L416,1332.9766 " fill="none" style="stroke:#181818;stroke-width:1.0;"/><path d="M212,995.1953 L222,995.1953 C237,995.1953 237,1248.5313 252,1248.5313 L262,1248.5313 " fill="none" style="stroke:#181818;stroke-width:1.0;"/><path d="M100,1853.7227 L110,1853.7227 C125,1853.7227 125,995.1953 140,995.1953 L150,995.1953 " fill="none" style="stroke:#181818;stroke-width:1.0;"/><rect fill="#F1F1F1" filter="url(#flnmw3xaxqdm3)" height="36.2969" rx="12.5" ry="12.5" style="stroke:#181818;stroke-width:1.5;" width="191" x="150" y="1582.2383"/><text fill="#000000" font-family="sans-serif" font-size="14" lengthAdjust="spacing" textLength="171" x="160" y="1605.2334">第 1 问：我能看到事实吗？</text><rect fill="#F1F1F1" filter="url(#flnmw3xaxqdm3)" height="36.2969" rx="12.5" ry="12.5" style="stroke:#181818;stroke-width:1.5;" width="174" x="391" y="1371.125"/><text fill="#000000" font-family="sans-serif" font-size="14" lengthAdjust="spacing" textLength="154" x="401" y="1394.1201">真相未必神秘，但很隐秘</text><rect fill="#F1F1F1" filter="url(#flnmw3xaxqdm3)" height="36.2969" rx="12.5" ry="12.5" style="stroke:#181818;stroke-width:1.5;" width="406" x="615" y="1371.125"/><text fill="#000000" font-family="sans-serif" font-size="14" lengthAdjust="spacing" textLength="386" x="625" y="1394.1201">罗辑思维：我要上春晚，日活先过亿 ———— 知道就算自己人</text><path d="M565,1389.2734 L575,1389.2734 C590,1389.2734 590,1389.2734 605,1389.2734 L615,1389.2734 " fill="none" style="stroke:#181818;stroke-width:1.0;"/><path d="M341,1600.3867 L351,1600.3867 C366,1600.3867 366,1389.2734 381,1389.2734 L391,1389.2734 " fill="none" style="stroke:#181818;stroke-width:1.0;"/><rect fill="#F1F1F1" filter="url(#flnmw3xaxqdm3)" height="36.2969" rx="12.5" ry="12.5" style="stroke:#181818;stroke-width:1.5;" width="566" x="391" y="1455.5703"/><text fill="#000000" font-family="sans-serif" font-size="14" lengthAdjust="spacing" textLength="546" x="401" y="1478.5654">千万别把自己当主流，你要对自己的趣味保持一种警醒和谦卑，不要动不动就以己度人。</text><rect fill="#F1F1F1" filter="url(#flnmw3xaxqdm3)" height="36.2969" rx="12.5" ry="12.5" style="stroke:#181818;stroke-width:1.5;" width="116" x="1007" y="1427.4219"/><text fill="#000000" font-family="sans-serif" font-size="14" lengthAdjust="spacing" textLength="96" x="1017" y="1450.417">大学生只占 5%</text><path d="M957,1473.7188 L967,1473.7188 C982,1473.7188 982,1445.5703 997,1445.5703 L1007,1445.5703 " fill="none" style="stroke:#181818;stroke-width:1.0;"/><rect fill="#F1F1F1" filter="url(#flnmw3xaxqdm3)" height="36.2969" rx="12.5" ry="12.5" style="stroke:#181818;stroke-width:1.5;" width="706" x="1007" y="1483.7188"/><text fill="#000000" font-family="sans-serif" font-size="14" lengthAdjust="spacing" textLength="686" x="1017" y="1506.7139">在中国，再众所周知的事情，都起码有一个亿的人不知道，而大多数时候，是十个亿的人都不知道。——沈帅波</text><path d="M957,1473.7188 L967,1473.7188 C982,1473.7188 982,1501.8672 997,1501.8672 L1007,1501.8672 " fill="none" style="stroke:#181818;stroke-width:1.0;"/><path d="M341,1600.3867 L351,1600.3867 C366,1600.3867 366,1473.7188 381,1473.7188 L391,1473.7188 " fill="none" style="stroke:#181818;stroke-width:1.0;"/><rect fill="#F1F1F1" filter="url(#flnmw3xaxqdm3)" height="36.2969" rx="12.5" ry="12.5" style="stroke:#181818;stroke-width:1.5;" width="102" x="391" y="1596.3125"/><text fill="#000000" font-family="sans-serif" font-size="14" lengthAdjust="spacing" textLength="82" x="401" y="1619.3076">抽象 VS 还原</text><rect fill="#F1F1F1" filter="url(#flnmw3xaxqdm3)" height="36.2969" rx="12.5" ry="12.5" style="stroke:#181818;stroke-width:1.5;" width="202" x="543" y="1511.8672"/><text fill="#000000" font-family="sans-serif" font-size="14" lengthAdjust="spacing" textLength="182" x="553" y="1534.8623">等号的意思：有些东西不重要</text><path d="M493,1614.4609 L503,1614.4609 C518,1614.4609 518,1530.0156 533,1530.0156 L543,1530.0156 " fill="none" style="stroke:#181818;stroke-width:1.0;"/><rect fill="#F1F1F1" filter="url(#flnmw3xaxqdm3)" height="36.2969" rx="12.5" ry="12.5" style="stroke:#181818;stroke-width:1.5;" width="216" x="543" y="1568.1641"/><text fill="#000000" font-family="sans-serif" font-size="14" lengthAdjust="spacing" textLength="196" x="553" y="1591.1592">一做等号，有些事实就不重要了</text><path d="M493,1614.4609 L503,1614.4609 C518,1614.4609 518,1586.3125 533,1586.3125 L543,1586.3125 " fill="none" style="stroke:#181818;stroke-width:1.0;"/><rect fill="#F1F1F1" filter="url(#flnmw3xaxqdm3)" height="36.2969" rx="12.5" ry="12.5" style="stroke:#181818;stroke-width:1.5;" width="328" x="543" y="1624.4609"/><text fill="#000000" font-family="sans-serif" font-size="14" lengthAdjust="spacing" textLength="308" x="553" y="1647.4561">不抽象我们无法思考，不还原，就看不到本来面目</text><path d="M493,1614.4609 L503,1614.4609 C518,1614.4609 518,1642.6094 533,1642.6094 L543,1642.6094 " fill="none" style="stroke:#181818;stroke-width:1.0;"/><rect fill="#F1F1F1" filter="url(#flnmw3xaxqdm3)" height="36.2969" rx="12.5" ry="12.5" style="stroke:#181818;stroke-width:1.5;" width="174" x="543" y="1680.7578"/><text fill="#000000" font-family="sans-serif" font-size="14" lengthAdjust="spacing" textLength="154" x="553" y="1703.7529">还原能力是最稀缺的能力</text><path d="M493,1614.4609 L503,1614.4609 C518,1614.4609 518,1698.9063 533,1698.9063 L543,1698.9063 " fill="none" style="stroke:#181818;stroke-width:1.0;"/><path d="M341,1600.3867 L351,1600.3867 C366,1600.3867 366,1614.4609 381,1614.4609 L391,1614.4609 " fill="none" style="stroke:#181818;stroke-width:1.0;"/><rect fill="#F1F1F1" filter="url(#flnmw3xaxqdm3)" height="36.2969" rx="12.5" ry="12.5" style="stroke:#181818;stroke-width:1.5;" width="76" x="391" y="1765.2031"/><text fill="#000000" font-family="sans-serif" font-size="14" lengthAdjust="spacing" textLength="56" x="401" y="1788.1982">如何还原</text><rect fill="#F1F1F1" filter="url(#flnmw3xaxqdm3)" height="36.2969" rx="12.5" ry="12.5" style="stroke:#181818;stroke-width:1.5;" width="314" x="517" y="1737.0547"/><text fill="#000000" font-family="sans-serif" font-size="14" lengthAdjust="spacing" textLength="294" x="527" y="1760.0498">多元思维模型：各个从业者的思维模型自我修炼</text><path d="M467,1783.3516 L477,1783.3516 C492,1783.3516 492,1755.2031 507,1755.2031 L517,1755.2031 " fill="none" style="stroke:#181818;stroke-width:1.0;"/><rect fill="#F1F1F1" filter="url(#flnmw3xaxqdm3)" height="36.2969" rx="12.5" ry="12.5" style="stroke:#181818;stroke-width:1.5;" width="608" x="517" y="1793.3516"/><text fill="#000000" font-family="sans-serif" font-size="14" lengthAdjust="spacing" textLength="588" x="527" y="1816.3467">一个人能同时保有全然相反的两种观念，还能正常行事，是第一流智慧的标志。——菲茨杰拉德</text><path d="M467,1783.3516 L477,1783.3516 C492,1783.3516 492,1811.5 507,1811.5 L517,1811.5 " fill="none" style="stroke:#181818;stroke-width:1.0;"/><path d="M341,1600.3867 L351,1600.3867 C366,1600.3867 366,1783.3516 381,1783.3516 L391,1783.3516 " fill="none" style="stroke:#181818;stroke-width:1.0;"/><path d="M100,1853.7227 L110,1853.7227 C125,1853.7227 125,1600.3867 140,1600.3867 L150,1600.3867 " fill="none" style="stroke:#181818;stroke-width:1.0;"/><rect fill="#F1F1F1" filter="url(#flnmw3xaxqdm3)" height="36.2969" rx="12.5" ry="12.5" style="stroke:#181818;stroke-width:1.5;" width="219" x="150" y="2187.4297"/><text fill="#000000" font-family="sans-serif" font-size="14" lengthAdjust="spacing" textLength="199" x="160" y="2210.4248">第 2 问：我能感知“非共识”吗？</text><rect fill="#F1F1F1" filter="url(#flnmw3xaxqdm3)" height="36.2969" rx="12.5" ry="12.5" style="stroke:#181818;stroke-width:1.5;" width="188" x="419" y="1905.9453"/><text fill="#000000" font-family="sans-serif" font-size="14" lengthAdjust="spacing" textLength="168" x="429" y="1928.9404">创新的本质就是“非共识”。</text><rect fill="#F1F1F1" filter="url(#flnmw3xaxqdm3)" height="36.2969" rx="12.5" ry="12.5" style="stroke:#181818;stroke-width:1.5;" width="496" x="657" y="1849.6484"/><text fill="#000000" font-family="sans-serif" font-size="14" lengthAdjust="spacing" textLength="476" x="667" y="1872.6436">从被排斥到被承认，从脱离共识到再造共识，整个过程才叫非共识。——梁宁</text><path d="M607,1924.0938 L617,1924.0938 C632,1924.0938 632,1867.7969 647,1867.7969 L657,1867.7969 " fill="none" style="stroke:#181818;stroke-width:1.0;"/><rect fill="#F1F1F1" filter="url(#flnmw3xaxqdm3)" height="36.2969" rx="12.5" ry="12.5" style="stroke:#181818;stroke-width:1.5;" width="244" x="657" y="1905.9453"/><text fill="#000000" font-family="sans-serif" font-size="14" lengthAdjust="spacing" textLength="224" x="667" y="1928.9404">异端邪说——伟大革命——稀松平常</text><path d="M607,1924.0938 L617,1924.0938 C632,1924.0938 632,1924.0938 647,1924.0938 L657,1924.0938 " fill="none" style="stroke:#181818;stroke-width:1.0;"/><rect fill="#F1F1F1" filter="url(#flnmw3xaxqdm3)" height="36.2969" rx="12.5" ry="12.5" style="stroke:#181818;stroke-width:1.5;" width="255" x="657" y="1962.2422"/><text fill="#000000" font-family="sans-serif" font-size="14" lengthAdjust="spacing" textLength="235" x="667" y="1985.2373">2012.3 晓说上线，罗辑思维云开雾散</text><path d="M607,1924.0938 L617,1924.0938 C632,1924.0938 632,1980.3906 647,1980.3906 L657,1980.3906 " fill="none" style="stroke:#181818;stroke-width:1.0;"/><path d="M369,2205.5781 L379,2205.5781 C394,2205.5781 394,1924.0938 409,1924.0938 L419,1924.0938 " fill="none" style="stroke:#181818;stroke-width:1.0;"/><rect fill="#F1F1F1" filter="url(#flnmw3xaxqdm3)" height="36.2969" rx="12.5" ry="12.5" style="stroke:#181818;stroke-width:1.5;" width="279" x="419" y="2074.8359"/><text fill="#000000" font-family="sans-serif" font-size="14" lengthAdjust="spacing" textLength="259" x="429" y="2097.8311">科技 3 定律——科幻作家 道格拉斯亚当斯</text><rect fill="#F1F1F1" filter="url(#flnmw3xaxqdm3)" height="36.2969" rx="12.5" ry="12.5" style="stroke:#181818;stroke-width:1.5;" width="454" x="748" y="2018.5391"/><text fill="#000000" font-family="sans-serif" font-size="14" lengthAdjust="spacing" textLength="434" x="758" y="2041.5342">任何在我出生时就有的科技，都是稀松平常的世界本来秩序的一部分。</text><path d="M698,2092.9844 L708,2092.9844 C723,2092.9844 723,2036.6875 738,2036.6875 L748,2036.6875 " fill="none" style="stroke:#181818;stroke-width:1.0;"/><rect fill="#F1F1F1" filter="url(#flnmw3xaxqdm3)" height="36.2969" rx="12.5" ry="12.5" style="stroke:#181818;stroke-width:1.5;" width="461" x="748" y="2074.8359"/><text fill="#000000" font-family="sans-serif" font-size="14" lengthAdjust="spacing" textLength="441" x="758" y="2097.8311">任何在我 15-35 岁之间诞生的科技，都是将会改变世界的革命性产物。</text><path d="M698,2092.9844 L708,2092.9844 C723,2092.9844 723,2092.9844 738,2092.9844 L748,2092.9844 " fill="none" style="stroke:#181818;stroke-width:1.0;"/><rect fill="#F1F1F1" filter="url(#flnmw3xaxqdm3)" height="36.2969" rx="12.5" ry="12.5" style="stroke:#181818;stroke-width:1.5;" width="424" x="748" y="2131.1328"/><text fill="#000000" font-family="sans-serif" font-size="14" lengthAdjust="spacing" textLength="404" x="758" y="2154.1279">任何在我 35 岁之后诞生的科技，都是违反自然规律要遭天谴的。</text><path d="M698,2092.9844 L708,2092.9844 C723,2092.9844 723,2149.2813 738,2149.2813 L748,2149.2813 " fill="none" style="stroke:#181818;stroke-width:1.0;"/><path d="M369,2205.5781 L379,2205.5781 C394,2205.5781 394,2092.9844 409,2092.9844 L419,2092.9844 " fill="none" style="stroke:#181818;stroke-width:1.0;"/><rect fill="#F1F1F1" filter="url(#flnmw3xaxqdm3)" height="36.2969" rx="12.5" ry="12.5" style="stroke:#181818;stroke-width:1.5;" width="118" x="419" y="2356.3203"/><text fill="#000000" font-family="sans-serif" font-size="14" lengthAdjust="spacing" textLength="98" x="429" y="2379.3154">这共识怎么达成</text><rect fill="#F1F1F1" filter="url(#flnmw3xaxqdm3)" height="36.2969" rx="12.5" ry="12.5" style="stroke:#181818;stroke-width:1.5;" width="510" x="587" y="2187.4297"/><text fill="#000000" font-family="sans-serif" font-size="14" lengthAdjust="spacing" textLength="490" x="597" y="2210.4248">非共识从来不反对什么，它只是把被忽略的、被遗忘的东西呈现出来。——梁宁</text><path d="M537,2374.4688 L547,2374.4688 C562,2374.4688 562,2205.5781 577,2205.5781 L587,2205.5781 " fill="none" style="stroke:#181818;stroke-width:1.0;"/><rect fill="#F1F1F1" filter="url(#flnmw3xaxqdm3)" height="36.2969" rx="12.5" ry="12.5" style="stroke:#181818;stroke-width:1.5;" width="188" x="587" y="2243.7266"/><text fill="#000000" font-family="sans-serif" font-size="14" lengthAdjust="spacing" textLength="168" x="597" y="2266.7217">非共识来源于更深处的共识</text><path d="M537,2374.4688 L547,2374.4688 C562,2374.4688 562,2261.875 577,2261.875 L587,2261.875 " fill="none" style="stroke:#181818;stroke-width:1.0;"/><rect fill="#F1F1F1" filter="url(#flnmw3xaxqdm3)" height="36.2969" rx="12.5" ry="12.5" style="stroke:#181818;stroke-width:1.5;" width="328" x="587" y="2300.0234"/><text fill="#000000" font-family="sans-serif" font-size="14" lengthAdjust="spacing" textLength="308" x="597" y="2323.0186">人类的很多古老共识，并没有沉底，只是在潜水。</text><path d="M537,2374.4688 L547,2374.4688 C562,2374.4688 562,2318.1719 577,2318.1719 L587,2318.1719 " fill="none" style="stroke:#181818;stroke-width:1.0;"/><rect fill="#F1F1F1" filter="url(#flnmw3xaxqdm3)" height="36.2969" rx="12.5" ry="12.5" style="stroke:#181818;stroke-width:1.5;" width="146" x="587" y="2356.3203"/><text fill="#000000" font-family="sans-serif" font-size="14" lengthAdjust="spacing" textLength="126" x="597" y="2379.3154">回到母体，强化母体</text><path d="M537,2374.4688 L547,2374.4688 C562,2374.4688 562,2374.4688 577,2374.4688 L587,2374.4688 " fill="none" style="stroke:#181818;stroke-width:1.0;"/><rect fill="#F1F1F1" filter="url(#flnmw3xaxqdm3)" height="36.2969" rx="12.5" ry="12.5" style="stroke:#181818;stroke-width:1.5;" width="496" x="587" y="2412.6172"/><text fill="#000000" font-family="sans-serif" font-size="14" lengthAdjust="spacing" textLength="476" x="597" y="2435.6123">所谓的创新，就是要回到一个古老的事物，但是用全新的手段把它再做一遍。</text><path d="M537,2374.4688 L547,2374.4688 C562,2374.4688 562,2430.7656 577,2430.7656 L587,2430.7656 " fill="none" style="stroke:#181818;stroke-width:1.0;"/><rect fill="#F1F1F1" filter="url(#flnmw3xaxqdm3)" height="36.2969" rx="12.5" ry="12.5" style="stroke:#181818;stroke-width:1.5;" width="468" x="587" y="2468.9141"/><text fill="#000000" font-family="sans-serif" font-size="14" lengthAdjust="spacing" textLength="448" x="597" y="2491.9092">所谓的非共识，就是你刚开始不认识，但是到最后发现，原来早已相识。</text><path d="M537,2374.4688 L547,2374.4688 C562,2374.4688 562,2487.0625 577,2487.0625 L587,2487.0625 " fill="none" style="stroke:#181818;stroke-width:1.0;"/><rect fill="#F1F1F1" filter="url(#flnmw3xaxqdm3)" height="36.2969" rx="12.5" ry="12.5" style="stroke:#181818;stroke-width:1.5;" width="332" x="587" y="2525.2109"/><text fill="#000000" font-family="sans-serif" font-size="14" lengthAdjust="spacing" textLength="312" x="597" y="2548.2061">若不进入传统，则无法添加新物。——法学家 刘晗</text><path d="M537,2374.4688 L547,2374.4688 C562,2374.4688 562,2543.3594 577,2543.3594 L587,2543.3594 " fill="none" style="stroke:#181818;stroke-width:1.0;"/><path d="M369,2205.5781 L379,2205.5781 C394,2205.5781 394,2374.4688 409,2374.4688 L419,2374.4688 " fill="none" style="stroke:#181818;stroke-width:1.0;"/><path d="M100,1853.7227 L110,1853.7227 C125,1853.7227 125,2205.5781 140,2205.5781 L150,2205.5781 " fill="none" style="stroke:#181818;stroke-width:1.0;"/><rect fill="#F1F1F1" filter="url(#flnmw3xaxqdm3)" height="36.2969" rx="12.5" ry="12.5" style="stroke:#181818;stroke-width:1.5;" width="191" x="150" y="2778.5469"/><text fill="#000000" font-family="sans-serif" font-size="14" lengthAdjust="spacing" textLength="171" x="160" y="2801.542">第 3 问：我的时间够用吗？</text><rect fill="#F1F1F1" filter="url(#flnmw3xaxqdm3)" height="36.2969" rx="12.5" ry="12.5" style="stroke:#181818;stroke-width:1.5;" width="76" x="391" y="2609.6563"/><text fill="#000000" font-family="sans-serif" font-size="14" lengthAdjust="spacing" textLength="56" x="401" y="2632.6514">信息过载</text><rect fill="#F1F1F1" filter="url(#flnmw3xaxqdm3)" height="36.2969" rx="12.5" ry="12.5" style="stroke:#181818;stroke-width:1.5;" width="286" x="517" y="2581.5078"/><text fill="#000000" font-family="sans-serif" font-size="14" lengthAdjust="spacing" textLength="266" x="527" y="2604.5029">知识多，人生短，跟着学，就挂了——庄子</text><path d="M467,2627.8047 L477,2627.8047 C492,2627.8047 492,2599.6563 507,2599.6563 L517,2599.6563 " fill="none" style="stroke:#181818;stroke-width:1.0;"/><rect fill="#F1F1F1" filter="url(#flnmw3xaxqdm3)" height="36.2969" rx="12.5" ry="12.5" style="stroke:#181818;stroke-width:1.5;" width="370" x="517" y="2637.8047"/><text fill="#000000" font-family="sans-serif" font-size="14" lengthAdjust="spacing" textLength="350" x="527" y="2660.7998">所谓信息过载，是你对环境的熟悉程度太低。——万维钢</text><path d="M467,2627.8047 L477,2627.8047 C492,2627.8047 492,2655.9531 507,2655.9531 L517,2655.9531 " fill="none" style="stroke:#181818;stroke-width:1.0;"/><path d="M341,2796.6953 L351,2796.6953 C366,2796.6953 366,2627.8047 381,2627.8047 L391,2627.8047 " fill="none" style="stroke:#181818;stroke-width:1.0;"/><rect fill="#F1F1F1" filter="url(#flnmw3xaxqdm3)" height="36.2969" rx="12.5" ry="12.5" style="stroke:#181818;stroke-width:1.5;" width="118" x="391" y="2806.6953"/><text fill="#000000" font-family="sans-serif" font-size="14" lengthAdjust="spacing" textLength="98" x="401" y="2829.6904">百岁人生的挑战</text><rect fill="#F1F1F1" filter="url(#flnmw3xaxqdm3)" height="36.2969" rx="12.5" ry="12.5" style="stroke:#181818;stroke-width:1.5;" width="90" x="559" y="2694.1016"/><text fill="#000000" font-family="sans-serif" font-size="14" lengthAdjust="spacing" textLength="70" x="569" y="2717.0967">婚姻的挑战</text><rect fill="#F1F1F1" filter="url(#flnmw3xaxqdm3)" height="36.2969" rx="12.5" ry="12.5" style="stroke:#181818;stroke-width:1.5;" width="62" x="699" y="2694.1016"/><text fill="#000000" font-family="sans-serif" font-size="14" lengthAdjust="spacing" textLength="42" x="709" y="2717.0967">顶石婚</text><path d="M649,2712.25 L659,2712.25 C674,2712.25 674,2712.25 689,2712.25 L699,2712.25 " fill="none" style="stroke:#181818;stroke-width:1.0;"/><path d="M509,2824.8438 L519,2824.8438 C534,2824.8438 534,2712.25 549,2712.25 L559,2712.25 " fill="none" style="stroke:#181818;stroke-width:1.0;"/><rect fill="#F1F1F1" filter="url(#flnmw3xaxqdm3)" height="36.2969" rx="12.5" ry="12.5" style="stroke:#181818;stroke-width:1.5;" width="90" x="559" y="2750.3984"/><text fill="#000000" font-family="sans-serif" font-size="14" lengthAdjust="spacing" textLength="70" x="569" y="2773.3936">工作的挑战</text><rect fill="#F1F1F1" filter="url(#flnmw3xaxqdm3)" height="36.2969" rx="12.5" ry="12.5" style="stroke:#181818;stroke-width:1.5;" width="356" x="699" y="2750.3984"/><text fill="#000000" font-family="sans-serif" font-size="14" lengthAdjust="spacing" textLength="336" x="709" y="2773.3936">种一棵树最好的时间是十年前，其次好的时间就是现在</text><path d="M649,2768.5469 L659,2768.5469 C674,2768.5469 674,2768.5469 689,2768.5469 L699,2768.5469 " fill="none" style="stroke:#181818;stroke-width:1.0;"/><path d="M509,2824.8438 L519,2824.8438 C534,2824.8438 534,2768.5469 549,2768.5469 L559,2768.5469 " fill="none" style="stroke:#181818;stroke-width:1.0;"/><rect fill="#F1F1F1" filter="url(#flnmw3xaxqdm3)" height="36.2969" rx="12.5" ry="12.5" style="stroke:#181818;stroke-width:1.5;" width="76" x="559" y="2862.9922"/><text fill="#000000" font-family="sans-serif" font-size="14" lengthAdjust="spacing" textLength="56" x="569" y="2885.9873">面对挫折</text><rect fill="#F1F1F1" filter="url(#flnmw3xaxqdm3)" height="36.2969" rx="12.5" ry="12.5" style="stroke:#181818;stroke-width:1.5;" width="160" x="685" y="2806.6953"/><text fill="#000000" font-family="sans-serif" font-size="14" lengthAdjust="spacing" textLength="140" x="695" y="2829.6904">OFO 戴威：91 年出生</text><path d="M635,2881.1406 L645,2881.1406 C660,2881.1406 660,2824.8438 675,2824.8438 L685,2824.8438 " fill="none" style="stroke:#181818;stroke-width:1.0;"/><rect fill="#F1F1F1" filter="url(#flnmw3xaxqdm3)" height="36.2969" rx="12.5" ry="12.5" style="stroke:#181818;stroke-width:1.5;" width="426" x="685" y="2862.9922"/><text fill="#000000" font-family="sans-serif" font-size="14" lengthAdjust="spacing" textLength="406" x="695" y="2885.9873">这不是结束，甚至不是结束的开始，只是开始的结束。——丘吉尔</text><path d="M635,2881.1406 L645,2881.1406 C660,2881.1406 660,2881.1406 675,2881.1406 L685,2881.1406 " fill="none" style="stroke:#181818;stroke-width:1.0;"/><rect fill="#F1F1F1" filter="url(#flnmw3xaxqdm3)" height="36.2969" rx="12.5" ry="12.5" style="stroke:#181818;stroke-width:1.5;" width="594" x="685" y="2919.2891"/><text fill="#000000" font-family="sans-serif" font-size="14" lengthAdjust="spacing" textLength="574" x="695" y="2942.2842">所有能穿越时间的东西，就该坚守，因为人生太长了。所有会被时间过滤的，该翻篇就翻篇。</text><path d="M635,2881.1406 L645,2881.1406 C660,2881.1406 660,2937.4375 675,2937.4375 L685,2937.4375 " fill="none" style="stroke:#181818;stroke-width:1.0;"/><path d="M509,2824.8438 L519,2824.8438 C534,2824.8438 534,2881.1406 549,2881.1406 L559,2881.1406 " fill="none" style="stroke:#181818;stroke-width:1.0;"/><path d="M341,2796.6953 L351,2796.6953 C366,2796.6953 366,2824.8438 381,2824.8438 L391,2824.8438 " fill="none" style="stroke:#181818;stroke-width:1.0;"/><rect fill="#F1F1F1" filter="url(#flnmw3xaxqdm3)" height="36.2969" rx="12.5" ry="12.5" style="stroke:#181818;stroke-width:1.5;" width="370" x="391" y="2975.5859"/><text fill="#000000" font-family="sans-serif" font-size="14" lengthAdjust="spacing" textLength="350" x="401" y="2998.5811">你在朋友圈里又佛又丧，你在收藏夹里偷偷地积极向上。</text><path d="M341,2796.6953 L351,2796.6953 C366,2796.6953 366,2993.7344 381,2993.7344 L391,2993.7344 " fill="none" style="stroke:#181818;stroke-width:1.0;"/><path d="M100,1853.7227 L110,1853.7227 C125,1853.7227 125,2796.6953 140,2796.6953 L150,2796.6953 " fill="none" style="stroke:#181818;stroke-width:1.0;"/><rect fill="#F1F1F1" filter="url(#flnmw3xaxqdm3)" height="36.2969" rx="12.5" ry="12.5" style="stroke:#181818;stroke-width:1.5;" width="205" x="150" y="3144.4766"/><text fill="#000000" font-family="sans-serif" font-size="14" lengthAdjust="spacing" textLength="185" x="160" y="3167.4717">第 4 问：我的力量从哪里来？</text><rect fill="#F1F1F1" filter="url(#flnmw3xaxqdm3)" height="36.2969" rx="12.5" ry="12.5" style="stroke:#181818;stroke-width:1.5;" width="132" x="405" y="3031.8828"/><text fill="#000000" font-family="sans-serif" font-size="14" lengthAdjust="spacing" textLength="112" x="415" y="3054.8779">拼多多是人的逻辑</text><path d="M355,3162.625 L365,3162.625 C380,3162.625 380,3050.0313 395,3050.0313 L405,3050.0313 " fill="none" style="stroke:#181818;stroke-width:1.0;"/><rect fill="#F1F1F1" filter="url(#flnmw3xaxqdm3)" height="36.2969" rx="12.5" ry="12.5" style="stroke:#181818;stroke-width:1.5;" width="328" x="405" y="3088.1797"/><text fill="#000000" font-family="sans-serif" font-size="14" lengthAdjust="spacing" textLength="308" x="415" y="3111.1748">人对人非常直接的感知和判断，胜过千万条数据。</text><path d="M355,3162.625 L365,3162.625 C380,3162.625 380,3106.3281 395,3106.3281 L405,3106.3281 " fill="none" style="stroke:#181818;stroke-width:1.0;"/><rect fill="#F1F1F1" filter="url(#flnmw3xaxqdm3)" height="36.2969" rx="12.5" ry="12.5" style="stroke:#181818;stroke-width:1.5;" width="244" x="405" y="3144.4766"/><text fill="#000000" font-family="sans-serif" font-size="14" lengthAdjust="spacing" textLength="224" x="415" y="3167.4717">良知良能，是最好的感知和判断工具</text><path d="M355,3162.625 L365,3162.625 C380,3162.625 380,3162.625 395,3162.625 L405,3162.625 " fill="none" style="stroke:#181818;stroke-width:1.0;"/><rect fill="#F1F1F1" filter="url(#flnmw3xaxqdm3)" height="36.2969" rx="12.5" ry="12.5" style="stroke:#181818;stroke-width:1.5;" width="146" x="405" y="3200.7734"/><text fill="#000000" font-family="sans-serif" font-size="14" lengthAdjust="spacing" textLength="126" x="415" y="3223.7686">用人的体验丈量世界</text><path d="M355,3162.625 L365,3162.625 C380,3162.625 380,3218.9219 395,3218.9219 L405,3218.9219 " fill="none" style="stroke:#181818;stroke-width:1.0;"/><rect fill="#F1F1F1" filter="url(#flnmw3xaxqdm3)" height="36.2969" rx="12.5" ry="12.5" style="stroke:#181818;stroke-width:1.5;" width="76" x="405" y="3257.0703"/><text fill="#000000" font-family="sans-serif" font-size="14" lengthAdjust="spacing" textLength="56" x="415" y="3280.0654">信用飞轮</text><path d="M355,3162.625 L365,3162.625 C380,3162.625 380,3275.2188 395,3275.2188 L405,3275.2188 " fill="none" style="stroke:#181818;stroke-width:1.0;"/><path d="M100,1853.7227 L110,1853.7227 C125,1853.7227 125,3162.625 140,3162.625 L150,3162.625 " fill="none" style="stroke:#181818;stroke-width:1.0;"/><rect fill="#F1F1F1" filter="url(#flnmw3xaxqdm3)" height="36.2969" rx="12.5" ry="12.5" style="stroke:#181818;stroke-width:1.5;" width="233" x="150" y="3341.5156"/><text fill="#000000" font-family="sans-serif" font-size="14" lengthAdjust="spacing" textLength="213" x="160" y="3364.5107">第 5 问：时间愿意和我做朋友吗？</text><rect fill="#F1F1F1" filter="url(#flnmw3xaxqdm3)" height="36.2969" rx="12.5" ry="12.5" style="stroke:#181818;stroke-width:1.5;" width="356" x="433" y="3313.3672"/><text fill="#000000" font-family="sans-serif" font-size="14" lengthAdjust="spacing" textLength="336" x="443" y="3336.3623">普通人的努力，在长期主义的复利下，会积累成奇迹。</text><path d="M383,3359.6641 L393,3359.6641 C408,3359.6641 408,3331.5156 423,3331.5156 L433,3331.5156 " fill="none" style="stroke:#181818;stroke-width:1.0;"/><rect fill="#F1F1F1" filter="url(#flnmw3xaxqdm3)" height="36.2969" rx="12.5" ry="12.5" style="stroke:#181818;stroke-width:1.5;" width="300" x="433" y="3369.6641"/><text fill="#000000" font-family="sans-serif" font-size="14" lengthAdjust="spacing" textLength="280" x="443" y="3392.6592">用自己的超级确定性，来对冲外界的不确定。</text><path d="M383,3359.6641 L393,3359.6641 C408,3359.6641 408,3387.8125 423,3387.8125 L433,3387.8125 " fill="none" style="stroke:#181818;stroke-width:1.0;"/><path d="M100,1853.7227 L110,1853.7227 C125,1853.7227 125,3359.6641 140,3359.6641 L150,3359.6641 " fill="none" style="stroke:#181818;stroke-width:1.0;"/><rect fill="#F1F1F1" filter="url(#flnmw3xaxqdm3)" height="36.2969" rx="12.5" ry="12.5" style="stroke:#181818;stroke-width:1.5;" width="48" x="150" y="3538.5547"/><text fill="#000000" font-family="sans-serif" font-size="14" lengthAdjust="spacing" textLength="28" x="160" y="3561.5498">尾声</text><rect fill="#F1F1F1" filter="url(#flnmw3xaxqdm3)" height="36.2969" rx="12.5" ry="12.5" style="stroke:#181818;stroke-width:1.5;" width="160" x="248" y="3425.9609"/><text fill="#000000" font-family="sans-serif" font-size="14" lengthAdjust="spacing" textLength="140" x="258" y="3448.9561">有意瞄准，无意击发。</text><path d="M198,3556.7031 L208,3556.7031 C223,3556.7031 223,3444.1094 238,3444.1094 L248,3444.1094 " fill="none" style="stroke:#181818;stroke-width:1.0;"/><rect fill="#F1F1F1" filter="url(#flnmw3xaxqdm3)" height="36.2969" rx="12.5" ry="12.5" style="stroke:#181818;stroke-width:1.5;" width="552" x="248" y="3482.2578"/><text fill="#000000" font-family="sans-serif" font-size="14" lengthAdjust="spacing" textLength="532" x="258" y="3505.2529">历史一直奔涌不息，但它有时候是一个反转大师。反转大师提供的机会，你不能辜负。</text><path d="M198,3556.7031 L208,3556.7031 C223,3556.7031 223,3500.4063 238,3500.4063 L248,3500.4063 " fill="none" style="stroke:#181818;stroke-width:1.0;"/><rect fill="#F1F1F1" filter="url(#flnmw3xaxqdm3)" height="36.2969" rx="12.5" ry="12.5" style="stroke:#181818;stroke-width:1.5;" width="384" x="248" y="3538.5547"/><text fill="#000000" font-family="sans-serif" font-size="14" lengthAdjust="spacing" textLength="364" x="258" y="3561.5498">永远不要低估中国人那种朴素的、但是又强烈的向上冲动。</text><path d="M198,3556.7031 L208,3556.7031 C223,3556.7031 223,3556.7031 238,3556.7031 L248,3556.7031 " fill="none" style="stroke:#181818;stroke-width:1.0;"/><rect fill="#F1F1F1" filter="url(#flnmw3xaxqdm3)" height="36.2969" rx="12.5" ry="12.5" style="stroke:#181818;stroke-width:1.5;" width="482" x="248" y="3594.8516"/><text fill="#000000" font-family="sans-serif" font-size="14" lengthAdjust="spacing" textLength="462" x="258" y="3617.8467">所有事到最后都会是好事，如果还不是，那它就还没到最后。——约翰列侬</text><path d="M198,3556.7031 L208,3556.7031 C223,3556.7031 223,3613 238,3613 L248,3613 " fill="none" style="stroke:#181818;stroke-width:1.0;"/><rect fill="#F1F1F1" filter="url(#flnmw3xaxqdm3)" height="36.2969" rx="12.5" ry="12.5" style="stroke:#181818;stroke-width:1.5;" width="402" x="248" y="3651.1484"/><text fill="#000000" font-family="sans-serif" font-size="14" lengthAdjust="spacing" textLength="382" x="258" y="3674.1436">对未来最大的慷慨，是把一切献给现在。——作家 阿尔贝加缪</text><path d="M198,3556.7031 L208,3556.7031 C223,3556.7031 223,3669.2969 238,3669.2969 L248,3669.2969 " fill="none" style="stroke:#181818;stroke-width:1.0;"/><path d="M100,1853.7227 L110,1853.7227 C125,1853.7227 125,3556.7031 140,3556.7031 L150,3556.7031 " fill="none" style="stroke:#181818;stroke-width:1.0;"/><!--MD5=[67a480559df717cbac205cea7816b682]
@startmindmap
skinparam monochrome true
skinparam Shadowing true

+ 时间的朋友
++ 开篇
+++ 你有你的计划，这个世界另有计划。——万维钢
+++ 以前，变化是生活的一部分;现在，变化成了生活本身。——和菜头
++++ 黑天鹅就是家禽
++++ 我们必须习惯，这个世界抽换掉一些我们喜欢的、熟悉的东西。
++++ 成年的滋味总是很复杂，熟悉的也许只能用来怀念，依赖的也许必须要放手。
+++ 告别
++++ 纪梵希、霍金、李敖、奈保尔、安南、常宝华、盛中国、单田芳、朱旭、高坤、是圣经、饶宗颐、李咏、金庸、蓝洁瑛、常贵田、斯坦.李、二月河
+++ 做事的人
++++ 跨年演讲，为做事的人服务
++++ 做事的人要搞定的无非是一张时间表而已
++++ 做事的人无所谓悲观还是乐观，我们只关心如何把事做好，让自己的事业处于上升期。
++++ 宏观是我们必须接受的，微观才是我们可以有所作为的。——查理芒格
++++ 我们是伞兵。伞兵，天生就是被包围的。
++++ 对做事的人来说，难就不干了吗？对不做事的人来说，难不难跟他有什么关系？
++++ 世界上只有一种真正的英雄主义，就是认清了生活的真相，还仍然热爱它。——罗曼罗兰
++ 小趋势
+++ 2018 不能再随大流
++++ 宁可被说成猪，也一定要挤在风口
+++ 小趋势举例
++++ 移动支付-信用的数据化基石
++++ 5G 时代，清空台面，再来一局
++++ 猫砂：1947 最伟大的发明之一 —— 狗想不通
++++ 大趋势不是我们普通人的游戏，死心吧，寻找小趋势
+++ 小趋势的特点
++++ 小趋势不是大趋势的小时候
++++ 小趋势是影响趋势的趋势，是带来改变的改变
+++ 大趋势
++++ 美团：超脑系统
++++ 阿里：鹿班系统
+++ 小趋势的逻辑
++++ 坏消息：每一班车停靠的时间都非常短，并且像末班车
++++ 好消息：没有末班车，总有下一班车
++++ 赶大趋势的人思考方式：只有……就好了
++++ 赶小趋势的人思考方式：凡我赶不上的，我就做好准备，到未来等它。
++ 第 1 问：我能看到事实吗？
+++ 真相未必神秘，但很隐秘
++++ 罗辑思维：我要上春晚，日活先过亿 ———— 知道就算自己人
+++ 千万别把自己当主流，你要对自己的趣味保持一种警醒和谦卑，不要动不动就以己度人。
++++ 大学生只占 5%
++++ 在中国，再众所周知的事情，都起码有一个亿的人不知道，而大多数时候，是十个亿的人都不知道。——沈帅波
+++ 抽象 VS 还原
++++ 等号的意思：有些东西不重要
++++ 一做等号，有些事实就不重要了
++++ 不抽象我们无法思考，不还原，就看不到本来面目
++++ 还原能力是最稀缺的能力
+++ 如何还原
++++ 多元思维模型：各个从业者的思维模型自我修炼
++++ 一个人能同时保有全然相反的两种观念，还能正常行事，是第一流智慧的标志。——菲茨杰拉德
++ 第 2 问：我能感知“非共识”吗？
+++ 创新的本质就是“非共识”。
++++ 从被排斥到被承认，从脱离共识到再造共识，整个过程才叫非共识。——梁宁
++++ 异端邪说——伟大革命——稀松平常
++++ 2012.3 晓说上线，罗辑思维云开雾散
+++ 科技 3 定律——科幻作家 道格拉斯亚当斯
++++ 任何在我出生时就有的科技，都是稀松平常的世界本来秩序的一部分。
++++ 任何在我 15-35 岁之间诞生的科技，都是将会改变世界的革命性产物。
++++ 任何在我 35 岁之后诞生的科技，都是违反自然规律要遭天谴的。
+++ 这共识怎么达成
++++ 非共识从来不反对什么，它只是把被忽略的、被遗忘的东西呈现出来。——梁宁
++++ 非共识来源于更深处的共识
++++ 人类的很多古老共识，并没有沉底，只是在潜水。
++++ 回到母体，强化母体
++++ 所谓的创新，就是要回到一个古老的事物，但是用全新的手段把它再做一遍。
++++ 所谓的非共识，就是你刚开始不认识，但是到最后发现，原来早已相识。
++++ 若不进入传统，则无法添加新物。——法学家 刘晗
++ 第 3 问：我的时间够用吗？
+++ 信息过载
++++ 知识多，人生短，跟着学，就挂了——庄子
++++ 所谓信息过载，是你对环境的熟悉程度太低。——万维钢
+++ 百岁人生的挑战
++++ 婚姻的挑战
+++++ 顶石婚
++++ 工作的挑战
+++++ 种一棵树最好的时间是十年前，其次好的时间就是现在
++++ 面对挫折
+++++ OFO 戴威：91 年出生
+++++ 这不是结束，甚至不是结束的开始，只是开始的结束。——丘吉尔
+++++ 所有能穿越时间的东西，就该坚守，因为人生太长了。所有会被时间过滤的，该翻篇就翻篇。
+++ 你在朋友圈里又佛又丧，你在收藏夹里偷偷地积极向上。
++ 第 4 问：我的力量从哪里来？
+++ 拼多多是人的逻辑
+++ 人对人非常直接的感知和判断，胜过千万条数据。
+++ 良知良能，是最好的感知和判断工具
+++ 用人的体验丈量世界
+++ 信用飞轮
++ 第 5 问：时间愿意和我做朋友吗？
+++ 普通人的努力，在长期主义的复利下，会积累成奇迹。
+++ 用自己的超级确定性，来对冲外界的不确定。
++ 尾声
+++ 有意瞄准，无意击发。
+++ 历史一直奔涌不息，但它有时候是一个反转大师。反转大师提供的机会，你不能辜负。
+++ 永远不要低估中国人那种朴素的、但是又强烈的向上冲动。
+++ 所有事到最后都会是好事，如果还不是，那它就还没到最后。——约翰列侬
+++ 对未来最大的慷慨，是把一切献给现在。——作家 阿尔贝加缪
@endmindmap

PlantUML version 1.2022.4(Sat Apr 09 21:29:17 CST 2022)
(GPL source distribution)
Java Runtime: OpenJDK Runtime Environment
JVM: OpenJDK 64-Bit Server VM
Default Encoding: UTF-8
Language: en
Country: US
--></g></svg>