<svg id="Capa_1" enable-background="new 0 0 512 512" height="512" viewBox="0 0 512 512" width="512" xmlns="http://www.w3.org/2000/svg"><g><path d="m172.05 210.392c-8.285 0-15.002 6.716-15.002 15v2.516c-10.367-6.776-22.736-10.732-36.019-10.732-36.405 0-66.023 29.614-66.023 66.016s29.618 66.016 66.023 66.016c13.283 0 25.652-3.956 36.019-10.732v2.515c0 8.284 6.717 15 15.002 15s15.002-6.716 15.002-15v-115.599c0-8.285-6.717-15-15.002-15zm-51.021 108.815c-19.861 0-36.02-16.157-36.02-36.016s16.159-36.016 36.02-36.016 36.019 16.157 36.019 36.016-16.158 36.016-36.019 36.016z"/><path d="m284.06 211.997c-15.667 0-30.17 5.044-42.002 13.573v-54.56c0-8.284-6.717-15-15.002-15s-15.002 6.716-15.002 15v169.98c0 8.284 6.717 15 15.002 15 7.82 0 14.236-5.985 14.932-13.622 11.845 8.559 26.374 13.622 42.071 13.622 39.704 0 72.004-32.297 72.004-71.997s-32.3-71.996-72.003-71.996zm0 113.993c-23.16 0-42.002-18.839-42.002-41.997s18.842-41.997 42.002-41.997c23.159 0 42.001 18.839 42.001 41.997s-18.843 41.997-42.001 41.997z"/><path d="m458.893 106.01h-47.823v-21.557c0-12.042 9.798-21.839 21.841-21.839 8.285 0 15.002-6.716 15.002-15s-6.717-15-15.002-15c-14.398 0-27.439 5.903-36.843 15.411-9.404-9.508-22.445-15.411-36.843-15.411-8.285 0-15.002 6.716-15.002 15s6.717 15 15.002 15c12.043 0 21.841 9.797 21.841 21.839v21.557h-327.959c-29.284 0-53.107 23.821-53.107 53.101v193.778c0 29.28 23.823 53.101 53.107 53.101h327.96v21.557c0 12.042-9.798 21.839-21.841 21.839-8.285 0-15.002 6.716-15.002 15s6.717 15 15.002 15c14.398 0 27.439-5.903 36.843-15.411 9.404 9.508 22.445 15.411 36.843 15.411 8.285 0 15.002-6.716 15.002-15s-6.717-15-15.002-15c-12.043 0-21.841-9.797-21.841-21.839v-21.557h47.823c29.284 0 53.107-23.821 53.107-53.101v-193.778c-.001-29.28-23.825-53.101-53.108-53.101zm-405.786 269.98c-12.739 0-23.103-10.363-23.103-23.101v-193.778c0-12.738 10.364-23.101 23.103-23.101h327.96v239.98zm428.89-23.101c0 12.738-10.364 23.101-23.104 23.101h-47.823v-239.98h47.823c12.74 0 23.104 10.363 23.104 23.101z"/></g></svg>